<svg width="26" height="32" fill="none" xmlns="http://www.w3.org/2000/svg"><path d="M13.001 19.167a6.34 6.34 0 006.334-6.334A6.34 6.34 0 0013 6.5a6.34 6.34 0 00-6.333 6.333A6.34 6.34 0 0013 19.167zm0-9.5a3.17 3.17 0 013.167 3.166A3.17 3.17 0 0113.001 16a3.17 3.17 0 01-3.166-3.167A3.17 3.17 0 0113 9.667z" fill="#D6C098"/><path d="M11.748 31.539a1.58 1.58 0 001.837 0c.481-.34 11.794-8.509 11.748-18.706C25.334 5.85 19.651.167 12.668.167S0 5.849 0 12.826C-.046 23.03 11.267 31.197 11.748 31.538zm.919-28.206c5.24 0 9.5 4.261 9.5 9.508.033 7.027-6.948 13.337-9.5 15.406-2.55-2.07-9.533-8.382-9.5-15.414 0-5.239 4.26-9.5 9.5-9.5z" fill="#D6C098"/></svg>