<svg width="35" height="29" fill="none" xmlns="http://www.w3.org/2000/svg"><path d="M32.813.906H1.215C.543.906 0 1.458 0 2.142v24.716c0 .683.543 1.236 1.215 1.236h31.598c.672 0 1.215-.553 1.215-1.236V2.142c0-.683-.543-1.236-1.215-1.236zm-1.52 4.28v20.127H2.734V5.185l-1.048-.83 1.493-1.95L4.804 3.69h24.423l1.626-1.286 1.492 1.95-1.052.83zm-2.066-1.5l-12.213 9.655L4.8 3.687 3.175 2.4 1.682 4.35l1.049.83 12.973 10.257a2.103 2.103 0 002.609 0l12.98-10.253 1.049-.83-1.493-1.95-1.622 1.282z" fill="#D6C098"/></svg>