<svg width="375" height="281" fill="none" xmlns="http://www.w3.org/2000/svg"><g opacity=".5"><path fill="url(#paint0_linear)" d="M0 0h375v280H0z"/><path opacity=".4" d="M375 0H.26" stroke="url(#paint1_linear)" stroke-miterlimit="10"/><path opacity=".4" d="M375 7.89c-63.255-.07-126.478 1.603-189.717 3.494-27.362.824-54.911.554-82.27-1.181C68.764 8.034 34.501 10.077.261 7.89" stroke="url(#paint2_linear)" stroke-miterlimit="10"/><path opacity=".4" d="M375 16.365c-17.921 0-35.848-.27-53.77-.138-16.014.118-31.992 2.665-48.004 3.104-29.822.817-59.64-.132-89.46.833-26.468.857-53.21 3.13-79.661-.337-15.416-2.043-30.674-2.972-46.103-3.814C38.744 14.96 19.51 17.815.26 16.365" stroke="url(#paint3_linear)" stroke-miterlimit="10"/><path opacity=".4" d="M375 22.755c-17.663 0-35.377-.695-53.035.054-16.596.707-33.095 5.66-49.677 6.933-29.881 2.297-59.526-4.264-89.376-3.095-26.265 1.012-52.159 9.224-78.453 1.877-15.37-4.295-30.263-7.658-45.744-8.639-19.518-1.218-38.94 4.71-58.454 2.87" stroke="url(#paint4_linear)" stroke-miterlimit="10"/><path opacity=".4" d="M375 30.842c-17.346 0-34.816-.887-52.149.337-17.331 1.224-34.416 6.858-51.696 8.678-15.707 1.653-31.194 1.21-46.818-2.39-14.003-3.23-27.606-5.561-41.724-5.21-12.374.312-23.968 3.834-36.188 7.117-13.985 3.76-28.384 2.005-42.239-2.785-15.25-5.278-29.633-10.327-45.206-10.902-19.642-.732-39.064 6.419-58.72 5.155" stroke="url(#paint5_linear)" stroke-miterlimit="10"/><path opacity=".4" d="M375 38.657c-16.97 0-34.196-1.246-51.138.747-18.102 2.126-35.898 9.827-53.961 12.716-15.508 2.512-31.121.79-46.387-5.117-13.628-5.198-26.804-9.842-40.734-9.628-12.9.198-24.572 6.581-37.094 11.744-14.214 5.86-28.28 3.637-42.278-3.469-15.003-7.63-28.853-15.848-44.532-16.067C39.2 29.303 19.971 39.51.261 38.65" stroke="url(#paint6_linear)" stroke-miterlimit="10"/><path opacity=".4" d="M375 45.26c-16.569.031-33.545-1.578-50.057 1.235-18.953 3.202-37.472 13.082-56.358 17.209-15.849 3.46-30.495.242-45.781-8.45-13.087-7.444-25.763-14.9-39.491-14.915-13.574 0-25.649 9.91-38.53 17.145-14.675 8.239-28.207 5.841-42.546-4.111-14.594-10.127-27.994-22.083-43.759-21.82C38.83 31.911 19.963 45.502.261 45.26" stroke="url(#paint7_linear)" stroke-miterlimit="10"/><path opacity=".4" d="M375 52.013c-16.15.048-32.87-1.753-48.924 1.733-19.827 4.303-39.036 16.183-58.79 21.545-16.071 4.361-30.02-.302-45.059-11.97-12.408-9.628-24.595-20.061-38.099-20.39-14.272-.35-27.138 13.37-40.337 22.605-15.243 10.667-28.257 8.399-42.987-4.6-14.027-12.377-27.106-28.269-42.94-27.379C38.288 34.66 19.918 51.505.262 52.013" stroke="url(#paint8_linear)" stroke-miterlimit="10"/><path opacity=".4" d="M375 58.846c-15.735.063-32.195-1.863-47.815 2.219-20.674 5.402-40.579 19.209-61.156 25.798-16.394 5.253-29.551-.761-44.273-15.568-11.643-11.71-23.337-25.234-36.654-25.947-14.968-.794-28.868 17.106-42.371 28.108-7.073 5.732-14.529 11.102-22.24 9.868-7.546-1.214-14.692-7.713-21.292-14.903-13.303-14.462-26.263-34.368-42.093-32.846C37.615 37.456 19.86 57.525.261 58.83" stroke="url(#paint9_linear)" stroke-miterlimit="10"/><path opacity=".4" d="M375 66.77c-15.352.08-31.547-1.854-46.738 2.607-21.463 6.285-41.992 21.549-63.331 29.116-16.769 5.951-29.167-1.131-43.491-18.615-10.86-13.258-22.066-29.46-35.263-30.56-15.614-1.298-30.708 20.35-44.47 32.602-7.209 6.42-15.159 13.19-23.211 11.7-7.547-1.397-14.617-9.026-20.928-16.937-12.583-15.78-25.41-39.206-41.28-37.116C36.88 42.131 19.808 64.77.261 66.771" stroke="url(#paint10_linear)" stroke-miterlimit="10"/><path opacity=".4" d="M375 73.202c-14.987.095-30.939-1.864-45.744 2.99-22.161 7.27-43.242 24.369-65.242 33.061-8.376 3.305-16.316 5.217-24.521-.581-6.685-4.726-12.567-13.022-18.24-21.407-10.149-14.992-20.863-34.219-34.028-35.724-16.187-1.853-32.494 24.059-46.478 37.74-7.334 7.177-15.774 15.488-24.132 13.73-7.581-1.584-14.558-10.492-20.598-19.29C84.104 66.38 71.43 38.931 55.475 41.588 36.137 44.814 19.773 70.594.26 73.228" stroke="url(#paint11_linear)" stroke-miterlimit="10"/><path opacity=".4" d="M375 80.156c-14.672.099-30.407-1.824-44.873 3.183-22.722 7.867-44.201 26.184-66.757 35.567-8.406 3.496-16.322 5.663-24.486-.828-6.623-5.298-12.267-14.39-17.665-23.475-9.553-16.062-19.819-37.412-33.05-39.21-8.455-1.15-16.957 7.68-24.259 15.156-8.101 8.294-15.89 17.744-23.988 26.049-7.443 7.627-16.291 16.984-24.931 15.03-7.635-1.724-14.503-11.409-20.327-20.735-11.367-18.234-23.801-48.378-39.91-45.325C35.45 49.215 19.771 77.18.261 80.177" stroke="url(#paint12_linear)" stroke-miterlimit="10"/><path opacity=".4" d="M375 87.052c-14.409.1-29.98-1.847-44.164 3.304-23.124 8.393-44.853 28.155-67.786 38.22-8.367 3.683-16.343 6.035-24.424-.989-6.615-5.751-12.09-15.722-17.292-25.529-9.155-17.253-19.034-40.604-32.426-42.619-8.686-1.294-17.435 8.366-24.852 16.353-8.372 9.024-16.395 19.294-24.767 28.328-7.547 8.151-16.655 18.342-25.526 16.264-7.716-1.81-14.467-12.202-20.132-22.162-11.016-19.357-23.07-51.984-39.436-48.695C34.89 53.404 19.81 83.916.26 87.03" stroke="url(#paint13_linear)" stroke-miterlimit="10"/><path opacity=".4" d="M375 92.94c-14.205.086-29.679-1.925-43.655 3.254-23.321 8.64-45.109 29.722-68.217 40.202-8.252 3.733-16.376 6.165-24.342-1.003-6.669-6-12.069-16.65-17.175-27.013-9.009-18.314-18.596-42.933-32.268-44.916-8.879-1.291-17.651 8.602-25.172 17.066-8.549 9.6-16.72 20.544-25.266 30.154-7.643 8.597-16.79 19.093-25.843 17.003-7.807-1.803-14.443-12.528-20.038-23.056-10.93-20.56-22.408-54.469-39.156-51.167C34.514 57.277 19.89 90.109.26 92.93" stroke="url(#paint14_linear)" stroke-miterlimit="10"/><path opacity=".4" d="M375 98.528c-14.153.179-29.578-2.05-43.495 3.154-23.162 8.676-44.673 30.071-67.598 40.64-8.23 3.789-16.349 6.059-24.31-.92-6.766-5.944-12.272-16.565-17.454-26.902-9.176-18.31-18.864-42.88-32.717-45.17-8.941-1.477-17.662 8.15-25.217 16.622-8.561 9.607-16.717 20.601-25.276 30.214-7.68 8.629-16.78 18.83-25.902 16.622-7.859-1.902-14.456-12.492-20.061-22.981-10.974-20.544-22.235-53.516-39.116-50.453C34.445 62.866 19.97 96.1.26 98.529" stroke="url(#paint15_linear)" stroke-miterlimit="10"/><path opacity=".4" d="M375 104.855c-14.213.328-29.592-2.505-43.558 3.104-22.751 9.136-43.777 31.053-66.286 42.081-8.328 4.083-16.234 6.207-24.31-.874-6.888-6.033-12.59-16.626-17.962-26.954-9.48-18.252-19.578-43.262-33.43-46.414-8.887-2.023-17.639 7.707-25.129 16.24-8.458 9.634-16.492 20.725-24.947 30.37-7.664 8.744-16.765 18.946-25.873 16.303-7.836-2.273-14.53-13.099-20.213-23.554C82.26 94.871 70.674 62.266 53.995 65.263 34.54 68.764 20.018 102.45.261 104.855" stroke="url(#paint16_linear)" stroke-miterlimit="10"/><path opacity=".4" d="M375 111.537c-14.294.398-29.631-3.274-43.683 2.744-22.287 9.545-42.766 32.051-64.8 43.486-8.398 4.37-16.119 6.319-24.286-.768-6.995-6.072-12.926-16.53-18.497-26.918-9.798-18.254-20.361-43.513-34.201-47.48-8.806-2.53-17.491 7.13-24.913 15.74-8.314 9.664-16.179 20.836-24.488 30.494-7.641 8.88-16.656 18.925-25.722 15.865-7.844-2.653-14.657-13.674-20.468-24.159-11.177-20.133-23.143-52.355-39.695-49.36C34.706 74.714 20.104 109.08.261 111.505" stroke="url(#paint17_linear)" stroke-miterlimit="10"/><path opacity=".4" d="M375 117.599c-14.393.38-29.721-4.251-43.872 2.055-21.775 9.696-41.656 32.368-63.174 43.969-8.431 4.545-16.006 6.253-24.24-.611-7.12-5.931-13.271-16.06-19.059-26.232-10.206-17.875-21.139-42.7-35.017-47.384-8.702-2.933-17.232 6.28-24.581 14.808-8.132 9.444-15.796 20.488-23.923 29.942-7.612 8.86-16.452 18.379-25.464 14.99-7.879-2.971-14.833-13.919-20.818-24.23-11.4-19.631-23.793-50.778-40.255-47.807-19.66 3.55-34.374 38.048-54.336 40.484" stroke="url(#paint18_linear)" stroke-miterlimit="10"/><path opacity=".4" d="M375 123.036c-14.51.294-29.834-5.337-44.112 1.113-21.229 9.588-40.48 32.012-61.443 43.448-8.425 4.607-15.897 6.04-24.172-.394-7.248-5.636-13.616-15.219-19.64-24.886-10.67-17.124-21.935-40.876-35.866-46.13-16.811-6.344-33.799 26.676-47.423 42.242-7.583 8.669-16.184 17.354-25.118 13.718-7.942-3.238-15.041-13.865-21.232-23.821-11.69-18.793-24.546-48.234-40.966-45.306C35.22 86.547 20.367 120.611.26 123.036" stroke="url(#paint19_linear)" stroke-miterlimit="10"/><path opacity=".4" d="M375 129.586c-14.638.164-29.964-6.719-44.391 0-20.661 9.657-39.245 32.334-59.624 43.881-8.399 4.754-15.797 5.938-24.096-.164-7.38-5.435-13.969-14.653-20.231-24.077-11.133-16.745-22.734-39.855-36.735-45.798-16.556-7.015-32.813 25.26-46.184 40.674-7.393 8.51-16.012 17.089-24.701 12.704-8.068-4.067-15.175-13.929-21.717-23.966-12.026-18.435-25.376-46.87-41.797-43.891C35.55 92.567 20.536 127.114.261 129.623" stroke="url(#paint20_linear)" stroke-miterlimit="10"/><path opacity=".4" d="M375 134.657c-14.776 0-30.118-8.335-44.706-1.256-20.072 9.741-37.975 32.879-57.752 44.546-34.352 20.282-52.271-54.593-82.445-68.923-16.265-7.733-31.7 23.878-44.829 39.223-7.359 8.587-15.645 16.406-24.225 11.7-8.169-4.482-15.442-14.282-22.247-24.286-12.4-18.248-26.268-45.824-42.723-42.749-20.16 3.757-35.35 39.131-55.812 41.745" stroke="url(#paint21_linear)" stroke-miterlimit="10"/><path opacity=".4" d="M375 140.55c-14.919-.222-30.284-9.811-45.047-2.609-19.475 9.499-36.693 32.416-55.855 43.846-33.64 20.059-54.128-50.385-83.816-65.559-15.983-8.179-30.491 21.676-43.38 36.548-7.328 8.454-15.253 15.163-23.71 10.3-8.278-4.774-15.736-14.214-22.815-23.894-12.798-17.502-27.194-43.443-43.719-40.335C36.3 102.671 20.921 137.883.261 140.55" stroke="url(#paint22_linear)" stroke-miterlimit="10"/><path opacity=".4" d="M375 145.529c-15.068-.457-30.465-11.591-45.414-4.111-18.879 9.446-35.394 32.693-53.962 44.118-32.929 20.264-55.952-47.208-85.159-63.609-15.698-8.812-29.221 19.947-41.884 34.72-7.302 8.517-14.834 14.224-23.162 9.135-8.392-5.153-16.044-14.509-23.403-24.074-13.21-17.196-28.138-42.108-44.746-38.89-20.56 3.993-36.143 39.938-57.01 42.732" stroke="url(#paint23_linear)" stroke-miterlimit="10"/><path opacity=".4" d="M375 150.592c-15.214-.671-30.655-12.829-45.801-5.436-18.294 8.938-34.126 31.454-52.098 42.328-32.226 19.504-57.711-41.896-86.439-58.727-15.414-9.031-27.92 17.33-40.367 31.356-7.271 8.194-14.436 12.632-22.625 7.528-8.51-5.306-16.361-14.135-23.997-23.167-13.623-16.127-29.076-38.915-45.788-35.72-20.775 3.975-36.55 39.019-57.624 41.838" stroke="url(#paint24_linear)" stroke-miterlimit="10"/><path opacity=".4" d="M375 155.687c-15.354-.908-30.847-14.621-46.167-6.988-17.731 8.837-32.895 31.694-50.29 42.517-31.591 19.651-59.438-38.635-87.699-56.679-15.132-9.667-26.621 15.593-38.865 29.581-7.239 8.267-14.052 11.669-22.085 6.339-8.627-5.716-16.676-14.474-24.584-23.39-14.024-15.816-29.992-37.648-46.818-34.336C37.51 116.878 21.54 152.75.261 155.677" stroke="url(#paint25_linear)" stroke-miterlimit="10"/><path opacity=".4" d="M375 160.802c-15.508-1.143-31.038-16.408-46.547-8.548-17.198 8.72-31.721 31.922-48.577 42.681-30.985 19.778-61.061-35.319-88.849-54.62-14.881-10.334-25.343 13.903-37.418 27.828-7.216 8.317-13.673 10.732-21.571 5.162-8.739-6.139-16.983-14.858-25.149-23.653-14.41-15.513-30.87-36.386-47.814-32.936-21.181 4.32-37.34 41.022-58.814 44.086" stroke="url(#paint26_linear)" stroke-miterlimit="10"/><path opacity=".4" d="M375 165.942c-15.652-1.294-31.228-17.362-46.909-9.638-16.707 8.224-30.631 30.79-46.981 41.008-15.861 9.915-32.735-1.279-47.551-13.24-14.286-11.538-27.868-26.673-42.368-37.136-14.693-10.604-24.064 11.857-36.048 25.05-15.914 17.508-32.212-4.697-46.778-19.095-14.758-14.571-31.68-33.661-48.737-30.233-21.368 4.29-37.703 40.237-59.367 43.29" stroke="url(#paint27_linear)" stroke-miterlimit="10"/><path opacity=".4" d="M375 170.983c-15.798-1.467-31.377-18.909-47.259-11.009-16.262 8.095-29.632 30.989-45.542 41.136-15.718 10.035-33.037-.864-47.922-11.985-14.577-10.893-28.45-25.278-42.948-36.596-14.498-11.317-22.967 10.369-34.798 23.573-15.552 17.352-32.53-6.888-46.843-20.478-15.068-14.306-32.421-32.511-49.571-28.982-21.535 4.434-38.032 41.173-59.856 44.341" stroke="url(#paint28_linear)" stroke-miterlimit="10"/><path opacity=".4" d="M375 174.762c-15.946-1.571-31.513-19.774-47.579-11.919-15.874 7.756-28.751 30.374-44.242 40.209-15.594 9.871-33.31-.461-48.264-10.542-14.833-10.008-28.985-23.372-43.46-35.244-6.829-5.598-11.833-5.828-18.436 1.393-5.366 5.871-9.904 14.396-15.263 20.308-7.149 7.898-12.843 7.678-20.33 1.807-8.996-7.064-17.761-15.186-26.589-23.078-15.32-13.658-33.05-30.604-50.279-27.085-21.683 4.43-38.317 40.983-60.297 44.151" stroke="url(#paint29_linear)" stroke-miterlimit="10"/><path opacity=".4" d="M375 179.532c-16.095-1.587-31.615-20.866-47.869-12.9-15.558 7.628-27.998 30.575-43.173 40.262-15.517 9.904-33.557-.106-48.57-9.528-15.014-9.423-29.428-22.232-43.856-34.936-6.668-5.871-11.542-6.702-18.087.561-5.189 5.759-9.52 14.26-14.696 20.061-7.11 7.972-12.716 7.125-20.073.996-9.041-7.533-17.941-15.727-26.935-23.482-15.513-13.371-33.59-29.547-50.844-25.979-21.803 4.504-38.55 41.674-60.636 44.898" stroke="url(#paint30_linear)" stroke-miterlimit="10"/><path opacity=".4" d="M375 184.065c-16.245-1.56-31.675-21.692-48.111-13.629-15.326 7.527-27.376 30.864-42.342 40.353-15.493 9.836-33.728.192-48.834-8.639-15.228-8.896-29.767-21.285-44.135-34.813-6.532-6.144-11.351-7.437-17.846-.107-5.049 5.69-9.205 14.217-14.237 19.96-7.076 8.073-12.676 6.764-19.921.342-9.053-8.014-18.057-16.306-27.189-23.967-15.613-13.106-33.99-28.589-51.23-25.015-21.89 4.542-38.715 42.272-60.895 45.515" stroke="url(#paint31_linear)" stroke-miterlimit="10"/><path opacity=".4" d="M375 189.11c-16.394-1.385-31.692-21.562-48.311-13.651-15.167 7.22-26.957 30.157-41.743 39.333-15.446 9.58-33.919.345-49.065-7.759-15.385-8.234-29.99-20.03-44.289-33.984-6.426-6.275-11.271-7.791-17.733-.57-4.945 5.526-8.97 13.876-13.907 19.455-7.05 7.968-12.728 6.462-19.887-.11-9.036-8.292-18.107-16.465-27.341-23.837-15.66-12.501-34.252-26.973-51.422-23.527-21.94 4.397-38.81 41.518-61.041 44.65" stroke="url(#paint32_linear)" stroke-miterlimit="10"/><path opacity=".4" d="M375 193.142c-16.478-1.247-31.668-21.68-48.389-13.682-15.115 7.229-26.834 30.187-41.574 39.326-15.431 9.565-33.987.126-49.138-7.82-15.44-8.097-29.997-19.825-44.315-33.868-6.402-6.285-11.315-7.595-17.733-.408-4.911 5.499-8.91 13.791-13.821 19.306-7.026 7.889-12.809 6.422-19.9-.351-8.997-8.59-18.079-16.839-27.351-24.151-15.585-12.294-34.419-26.63-51.456-23.047-21.91 4.599-38.888 41.159-61.062 44.679" stroke="url(#paint33_linear)" stroke-miterlimit="10"/><path opacity=".4" d="M375 197.207c-16.514-1.191-31.66-21.883-48.419-13.742-15.091 7.334-26.87 30.234-41.62 39.371-15.43 9.559-33.945-.353-49.072-8.399-15.39-8.188-29.885-19.965-44.301-33.423-13.647-12.735-20.41 6.85-31.65 19.064-7.026 7.635-12.845 6.244-19.871-.595-8.957-8.721-18.023-16.999-27.293-24.27-15.494-12.151-34.572-26.641-51.486-22.731-21.816 5.047-39.001 40.33-61.027 44.646" stroke="url(#paint34_linear)" stroke-miterlimit="10"/><path opacity=".4" d="M374.74 201.329c-16.553-1.16-31.652-22.2-48.452-13.913-15.081 7.445-26.899 30.315-41.647 39.453-15.417 9.573-33.867-.815-48.96-8.962-15.32-8.271-29.75-20.104-44.241-33.002-13.523-12.041-20.523 7.377-31.763 19.147-7.021 7.371-12.888 6.01-19.847-.904-8.91-8.85-17.944-17.142-27.205-24.354-15.42-12.014-34.676-26.486-51.438-22.274C39.495 161.966 22.11 196.032.26 201.079" stroke="url(#paint35_linear)" stroke-miterlimit="10"/><path opacity=".4" d="M374.74 205.487c-16.621-1.144-31.708-22.653-48.581-14.212-15.073 7.54-26.97 30.468-41.738 39.636-15.427 9.548-33.829-1.249-48.905-9.519-15.257-8.36-29.666-20.269-44.218-32.625-13.436-11.397-20.68 7.858-31.956 19.238-7.045 7.104-12.96 5.723-19.871-1.283-8.866-8.991-17.889-17.303-27.14-24.444-15.392-11.892-34.777-26.207-51.437-21.714-21.6 5.82-39.196 38.742-60.894 44.491" stroke="url(#paint36_linear)" stroke-miterlimit="10"/><path opacity=".4" d="M374.74 209.271c-16.692-1.092-31.75-21.983-48.71-13.842-15.06 7.225-27.03 29.072-41.811 37.733-15.423 9.038-33.732-1.602-48.802-9.544-15.174-8.005-29.539-19.363-44.152-30.555-13.334-10.214-20.834 7.855-32.162 18.23-7.068 6.477-13.03 5.099-19.898-1.632-8.797-8.709-17.824-16.459-27.041-23.215-15.38-11.144-34.82-24.431-51.383-19.903C39.32 172.38 21.509 202.508 0 208.574" stroke="url(#paint37_linear)" stroke-miterlimit="10"/><path opacity=".4" d="M374.74 213.521c-16.767-1.115-31.82-22.635-48.86-14.332-15.05 7.32-27.1 29.335-41.899 37.997-15.417 9.025-33.647-2.012-48.688-10.086-15.094-8.09-29.419-19.529-44.065-30.215-13.235-9.662-21.006 8.244-32.401 18.197-7.102 6.206-13.108 4.719-19.937-2.123-8.743-8.836-17.737-16.601-26.933-23.256-15.388-11.026-34.825-23.857-51.3-19.111-21.32 6.142-39.336 35.227-60.657 41.905" stroke="url(#paint38_linear)" stroke-miterlimit="10"/><path opacity=".4" d="M374.74 216.627c-16.854-1.115-31.904-22.732-49.041-14.527-15.04 7.2-27.176 28.806-41.979 37.227-15.412 8.766-33.546-2.358-48.574-10.33-14.982-7.929-29.303-19.142-43.965-29.028-13.142-8.866-21.199 8.358-32.673 17.599-7.141 5.752-13.194 4.161-19.994-2.643-8.684-8.715-17.638-16.275-26.805-22.632-15.413-10.573-34.79-22.5-51.196-17.663C39.34 180.869 21.129 208.126 0 215.184" stroke="url(#paint39_linear)" stroke-miterlimit="10"/><path opacity=".4" d="M374.74 219.756c-16.948-1.141-32.011-22.943-49.247-14.788-15.029 7.066-27.251 28.307-42.072 36.495-15.402 8.502-33.436-2.689-48.431-10.564-14.877-7.816-29.183-18.764-43.849-27.88-13.051-8.107-21.41 8.45-32.97 16.974-7.185 5.283-13.285 3.57-20.064-3.168-8.627-8.603-17.543-15.954-26.682-21.998-15.463-10.156-34.73-21.062-51.076-16.145-21.02 6.338-39.418 31.8-60.349 39.215" stroke="url(#paint40_linear)" stroke-miterlimit="10"/><path opacity=".4" d="M374.74 224.883c-17.049-1.174-32.11-23.237-49.474-15.175-15.019 6.977-27.338 27.906-42.175 35.857-15.389 8.242-33.311-3.011-48.285-10.804-14.774-7.69-29.066-18.388-43.72-26.752-12.962-7.411-21.642 8.506-33.293 16.314-7.234 4.844-13.381 2.944-20.145-3.705-8.566-8.492-17.44-15.634-26.544-21.365-15.523-9.713-34.635-19.516-50.934-14.53-20.864 6.352-39.437 30.12-60.17 37.859" stroke="url(#paint41_linear)" stroke-miterlimit="10"/><path opacity=".4" d="M374.74 228.113c-17.156-1.222-32.229-23.576-49.706-15.597-15.026 6.837-27.441 27.48-42.296 35.181-15.373 7.969-33.169-3.319-48.143-11.022-14.665-7.555-28.946-17.981-43.584-25.593-12.874-6.699-21.892 8.531-33.639 15.59-7.286 4.378-13.477 2.284-20.236-4.356-8.504-8.372-17.333-15.288-26.398-20.679-15.583-9.248-34.502-17.875-50.764-12.813-20.7 6.412-39.439 28.404-59.974 36.434" stroke="url(#paint42_linear)" stroke-miterlimit="10"/><path opacity=".4" d="M374.74 231.343c-17.263-1.266-32.355-23.985-49.984-16.086-15.003 6.728-27.523 27.103-42.393 34.563-15.352 7.708-33.028-3.631-47.969-11.23-14.557-7.422-28.828-17.573-43.436-24.456-12.793-6.032-22.166 8.557-34.004 14.846-7.339 3.909-13.58 1.605-20.341-5.032-8.439-8.26-17.222-14.952-26.242-19.996-15.684-8.771-34.37-16.097-50.605-11.011C39.228 199.358 20.34 219.637 0 227.954" stroke="url(#paint43_linear)" stroke-miterlimit="10"/><path opacity=".4" d="M374.74 234.69c-17.385-1.351-32.508-24.462-50.263-16.655-14.998 6.591-27.63 26.711-42.508 33.917-15.341 7.419-32.884-3.94-47.804-11.469-14.448-7.291-28.709-17.129-43.277-23.277-12.718-5.389-22.461 8.52-34.387 14.011-7.394 3.421-13.681.85-20.452-5.745-8.376-8.137-17.11-14.587-26.081-19.264-15.78-8.256-34.206-14.221-50.421-9.091-20.376 6.439-39.4 24.922-59.547 33.496" stroke="url(#paint44_linear)" stroke-miterlimit="10"/><path opacity=".4" d="M374.74 238.061c-17.51-1.438-32.659-25.015-50.56-17.299-14.988 6.463-27.718 26.365-42.625 33.314-15.321 7.143-32.728-4.252-47.624-11.691-14.344-7.162-28.587-16.685-43.108-22.102-12.652-4.721-22.773 8.483-34.791 13.204-7.445 2.924-13.777.07-20.571-6.535-8.311-8.016-16.994-14.22-25.912-18.513-15.875-7.71-34.018-12.241-50.226-7.078-20.217 6.43-39.36 23.137-59.323 31.974" stroke="url(#paint45_linear)" stroke-miterlimit="10"/><path opacity=".4" d="M374.74 240.732c-17.633-1.421-32.821-23.77-50.86-16.699-14.99 5.876-27.827 24.148-42.752 30.35-15.3 6.356-32.569-4.238-47.454-11.06-14.243-6.529-28.465-15.042-42.939-19.387-12.598-3.778-23.104 7.813-35.208 11.428-7.5 2.243-13.875-.69-20.696-6.801-8.246-7.333-16.878-12.858-25.74-16.474-15.981-6.611-33.815-9.412-50.017-4.601C39.035 213.449 19.778 227.244 0 235.68" stroke="url(#paint46_linear)" stroke-miterlimit="10"/><path opacity=".4" d="M374.74 244.194c-17.762-1.512-32.989-24.23-51.178-17.317-14.991 5.717-27.935 23.725-42.879 29.637-15.278 6.032-32.408-4.516-47.277-11.218-14.147-6.377-28.343-14.501-42.756-18.141-12.554-3.17-23.443 7.688-35.625 10.506-7.547 1.748-13.973-1.479-20.82-7.561-8.182-7.185-16.762-12.436-25.564-15.647-16.084-5.996-33.604-7.331-49.807-2.516C38.941 217.845 19.607 229.831 0 238.462" stroke="url(#paint47_linear)" stroke-miterlimit="10"/><path opacity=".4" d="M374.74 247.141c-17.89-1.673-33.161-25.887-51.494-18.783-14.987 5.814-28.046 24.352-43.004 30.204-15.252 5.982-32.238-5.018-47.102-11.894-14.052-6.525-28.216-14.569-42.568-17.632-12.53-2.675-23.79 7.887-36.065 9.985-7.601 1.302-14.052-2.403-20.964-8.734-8.118-7.352-16.645-12.548-25.382-15.467C71.469 202.154 35.513 223.522 0 240.381" stroke="url(#paint48_linear)" stroke-miterlimit="10"/><path opacity=".4" d="M374.74 249.422c-18.024-1.683-33.34-24.94-51.824-18.39-14.988 5.314-28.156 22.526-43.136 27.772-15.227 5.334-32.069-5.013-46.903-11.366-13.972-6.002-28.095-13.163-42.382-15.323-12.528-1.912-24.142 7.25-36.508 8.442-7.646.725-14.152-3.108-21.103-9.049-8.025-6.903-16.548-11.304-25.201-13.737C71.924 207.709 34.627 226.388 0 242.332" stroke="url(#paint49_linear)" stroke-miterlimit="10"/><path opacity=".4" d="M374.74 252.663c-18.157-1.851-33.519-26.369-52.155-19.749-14.988 5.34-28.268 22.85-43.266 27.965-15.201 5.179-31.897-5.49-46.715-11.907-13.897-6.034-27.97-12.989-42.192-14.51-12.551-1.343-24.493 7.327-36.954 7.69-7.69.223-14.237-4.097-21.243-10.228-7.973-6.978-16.439-11.182-25.019-13.271-16.345-3.978-32.92-.59-49.13 4.275-19.45 5.84-38.928 12.249-58.066 21.65" stroke="url(#paint50_linear)" stroke-miterlimit="10"/><path opacity=".4" d="M374.74 254.877c-18.133-1.808-33.474-25.067-52.092-19.338-14.927 4.614-28.233 20.55-43.113 25.383-15.042 4.883-31.402-4.809-46.09-10.663-14.198-5.636-28.581-11.935-43.115-12.725-12.902-.702-25.474 7.057-38.347 6.149-7.771-.548-14.248-5.548-21.37-11.106-7.399-5.771-15.211-9.077-23.112-10.64-16.816-3.326-33.494 1.579-50.11 6.207-19.179 5.34-38.53 9.451-57.391 18.38" stroke="url(#paint51_linear)" stroke-miterlimit="10"/><path opacity=".4" d="M374.74 258.342c-18.258-1.953-33.663-26.137-52.416-20.456-14.933 4.524-28.346 20.521-43.25 25.139-15.011 4.629-31.241-5.221-45.908-11.061-14.131-5.632-28.459-11.624-42.918-11.624-12.978 0-25.828 6.936-38.809 5.167-7.781-1.056-14.313-6.511-21.49-12.118-7.349-5.739-15.109-8.787-22.943-9.992-16.87-2.595-33.26 4.078-49.874 8.719-19.054 5.322-38.403 7.589-57.132 16.91" stroke="url(#paint52_linear)" stroke-miterlimit="10"/><path opacity=".4" d="M374.74 260.109c-18.397-1.999-33.833-25.828-52.746-20.492-14.938 4.216-28.457 19.414-43.382 23.577-14.977 4.189-31.083-5.374-45.742-10.896-14.053-5.303-28.328-10.635-42.712-9.881-13.072.686-26.175 6.452-39.265 3.916-7.792-1.513-14.376-7.13-21.601-12.493-7.286-5.408-15.011-8.037-22.771-8.817-16.916-1.709-33.036 6.364-49.645 10.777-18.935 5.032-38.255 5.31-56.876 14.536" stroke="url(#paint53_linear)" stroke-miterlimit="10"/><path opacity=".4" d="M374.74 261.688c-18.525-2.115-34.023-26.699-53.071-21.469-14.941 4.107-28.563 19.233-43.509 23.111-14.949 3.88-30.923-5.771-45.543-11.224-14.019-5.232-28.226-10.173-42.532-8.626-13.186 1.429-26.513 6.269-39.712 2.86-7.808-2.014-14.438-8.07-21.731-13.428-7.292-5.359-14.916-7.664-22.604-8.066-16.916-.893-32.822 8.916-49.412 13.303C37.8 243.126 18.496 241.435 0 251.012" stroke="url(#paint54_linear)" stroke-miterlimit="10"/><path opacity=".4" d="M374.74 265.257c-18.652-2.263-34.206-27.466-53.389-22.383-14.949 3.982-28.668 18.925-43.637 22.545-14.907 3.602-30.782-6.166-45.377-11.535-13.977-5.138-28.106-9.645-42.341-7.294-13.317 2.204-26.842 6.064-40.158 1.779-7.784-2.51-14.493-9.006-21.837-14.342-7.209-5.234-14.834-7.248-22.439-7.266-16.915-.041-32.618 11.483-49.186 15.834C37.64 247.518 18.381 243.786 0 253.701" stroke="url(#paint55_linear)" stroke-miterlimit="10"/><path opacity=".4" d="M374.74 266.197c-18.777-2.217-34.377-26.34-53.699-21.7-14.956 3.578-28.774 17.381-43.761 20.448-14.891 3.068-30.607-6.133-45.204-11.051-13.948-4.682-28.007-8.481-42.158-5.522-13.46 2.812-27.159 5.461-40.598.634-7.781-2.786-14.547-9.262-21.946-14.211-7.175-4.794-14.734-6.365-22.268-6.016-16.89.77-32.429 13.111-48.972 17.144-18.631 4.541-37.84-.909-56.134 8.691" stroke="url(#paint56_linear)" stroke-miterlimit="10"/><path opacity=".4" d="M374.74 268.169c-18.894-2.353-34.548-27.254-53.996-22.705-14.961 3.506-28.885 17.202-43.88 20.049-14.859 2.818-30.446-6.6-45.034-11.453-13.922-4.618-27.91-8.024-41.98-4.26-13.61 3.637-27.478 5.325-41.01-.383-7.773-3.276-14.596-10.232-22.059-15.202-7.13-4.715-14.651-6.017-22.12-5.298-16.844 1.61-32.25 15.635-48.764 19.682-18.541 4.544-37.691-2.983-55.897 7.055" stroke="url(#paint57_linear)" stroke-miterlimit="10"/><path opacity=".4" d="M374.74 270.141c-18.998-2.48-34.71-28.127-54.281-23.662-14.972 3.419-28.974 17.001-44.001 19.59-14.833 2.55-30.308-7.065-44.873-11.856-13.904-4.583-27.822-7.543-41.809-2.964-13.769 4.502-27.762 5.198-41.411-1.394-7.758-3.751-14.646-11.187-22.159-16.148-7.094-4.686-14.573-5.655-21.964-4.573-16.785 2.459-32.084 18.128-48.568 22.211-18.476 4.561-37.549-5.107-55.674 5.402" stroke="url(#paint58_linear)" stroke-miterlimit="10"/><path opacity=".4" d="M374.74 272.113c-19.116-2.475-34.872-27.625-54.553-23.448-14.985 3.173-29.07 16.011-44.115 18.225-14.81 2.178-30.165-7.188-44.717-11.71-13.891-4.317-27.741-6.719-41.651-1.567-13.91 5.154-28.04 4.85-41.796-2.28-7.74-4.015-14.696-11.487-22.251-16.302-7.026-4.484-14.515-5.047-21.815-3.653-16.718 3.133-31.93 19.625-48.38 23.551-18.397 4.392-37.415-6.933-55.462 3.583" stroke="url(#paint59_linear)" stroke-miterlimit="10"/><path opacity=".4" d="M374.74 274.084c-19.221-2.58-35.011-28.415-54.81-24.317-14.98 3.084-29.15 15.792-44.213 17.757-14.777 1.929-30.033-7.661-44.57-12.142-13.884-4.263-27.669-6.251-41.498-.299-14.09 6.058-28.305 4.796-42.16-3.197-7.724-4.444-14.741-12.356-22.34-17.199-6.998-4.46-14.449-4.715-21.673-3.003-7.883 1.87-15.568 6.152-23.136 10.906-8.166 5.119-16.57 12.929-25.077 14.999-18.334 4.459-37.288-9.016-55.263 2.035" stroke="url(#paint60_linear)" stroke-miterlimit="10"/><path opacity=".4" d="M374.74 274.084c-19.314-2.559-35.134-27.953-55.047-24.086-14.993 2.912-29.238 14.979-44.32 16.613-14.753 1.619-29.899-7.804-44.423-12.071-13.884-4.07-27.614-5.552-41.363.915-14.243 6.702-28.551 4.575-42.508-3.907-7.69-4.684-14.766-12.645-22.404-17.307-6.97-4.251-14.387-4.22-21.541-2.264-7.867 2.145-15.508 6.692-23.031 11.63-8.107 5.317-16.523 13.343-25.028 15.377-18.277 4.365-37.17-10.643-55.075.521" stroke="url(#paint61_linear)" stroke-miterlimit="10"/><path opacity=".4" d="M374.74 276.056c-19.403-2.659-35.263-28.767-55.262-24.932-15.003 2.882-29.316 14.843-44.41 16.274-14.731 1.397-29.776-8.345-44.289-12.595-13.887-4.058-27.567-5.148-41.235 2.129-14.407 7.642-28.78 4.609-42.835-4.725-7.661-5.083-14.789-13.47-22.466-18.183-6.941-4.255-14.314-3.957-21.415-1.697-7.849 2.501-15.45 7.5-22.935 12.822-8.052 5.729-16.479 14.293-24.983 16.403-18.216 4.521-37.066-12.685-54.91-.867" stroke="url(#paint62_linear)" stroke-miterlimit="10"/><path opacity=".4" d="M374.74 276.056c-19.483-2.605-35.37-28.364-55.455-24.695-15.021 2.747-29.407 14.143-44.517 15.316-14.715 1.147-29.666-8.542-44.164-12.622-13.891-3.904-27.533-4.576-41.117 3.165-14.555 8.289-28.965 4.538-43.119-5.213-7.635-5.268-14.81-13.699-22.518-18.275-6.918-4.103-14.264-3.581-21.298-1.13-7.839 2.729-15.399 7.94-22.849 13.407-8.008 5.883-16.44 14.561-24.954 16.676-18.18 4.525-36.983-14.122-54.749-2.084" stroke="url(#paint63_linear)" stroke-miterlimit="10"/><path opacity=".4" d="M374.74 278.028c-19.559-2.669-35.461-29.224-55.624-25.524-15.024 2.755-29.474 14.12-44.595 15.135-14.701.966-29.553-9.135-44.051-13.257-13.899-3.949-27.515-4.271-41.021 4.271-14.706 9.306-29.123 4.736-43.381-5.873-7.602-5.658-14.818-14.494-22.555-19.15-6.896-4.154-14.206-3.417-21.191-.694-7.828 3.059-15.354 8.687-22.773 14.522-7.971 6.274-16.395 15.391-24.933 17.619-18.141 4.778-36.92-16.124-54.616-3.247" stroke="url(#paint64_linear)" stroke-miterlimit="10"/><path opacity=".4" d="M374.74 278.028c-19.463-2.623-35.313-28.724-55.359-25.342-15.839 2.673-31.152 14.737-47.135 14.49-13.666-.21-27.378-9.263-40.876-13.156-14.342-4.135-28.07-4.019-41.959 4.833-15.4 9.792-29.831 4.644-44.675-7-6.654-5.215-12.993-12.331-19.697-17.217-7.094-5.169-14.883-4.666-22.183-1.795-8.283 3.254-16.212 9.445-24.025 15.743-7.875 6.37-16.247 15.338-24.738 17.438-17.956 4.412-36.631-17.375-54.093-4.236" stroke="url(#paint65_linear)" stroke-miterlimit="10"/><path opacity=".4" d="M374.74 280c-19.517-2.659-35.367-29.682-55.468-26.196-15.844 2.753-31.228 14.87-47.206 14.464-13.654-.35-27.296-9.92-40.787-13.93-14.352-4.263-28.076-3.841-41.898 5.856-15.556 10.923-29.911 5.01-44.877-7.556-6.623-5.559-12.981-12.941-19.703-17.971-7.078-5.32-14.833-4.695-22.091-1.576-8.278 3.557-16.176 10.2-23.965 16.849-7.865 6.713-16.234 16.04-24.746 18.308-17.923 4.736-36.618-19.35-53.999-5.181" stroke="url(#paint66_linear)" stroke-miterlimit="10"/><path opacity=".4" d="M374.74 280c-19.556-2.589-35.393-29.476-55.551-25.973-15.847 2.752-31.265 14.48-47.263 13.953-13.65-.449-27.226-10.218-40.712-14.216-14.359-4.27-28.105-3.593-41.838 6.577-15.707 11.626-29.948 5.285-45.041-7.667-6.608-5.663-12.981-13.039-19.708-18.073-7.073-5.29-14.761-4.622-22.013-1.393-16.757 7.473-31.77 30.868-48.688 35.587C36.035 273.788 17.29 248.356 0 263.073" stroke="url(#paint67_linear)" stroke-miterlimit="10"/><path opacity=".4" d="M374.74 280c-19.588-2.518-35.42-29.386-55.602-25.824-15.85 2.806-31.32 14.227-47.312 13.618-13.652-.532-27.169-10.573-40.649-14.615-14.366-4.305-28.159-3.436-41.814 7.213-15.846 12.359-29.928 5.693-45.165-7.69-6.553-5.743-12.942-13.352-19.685-18.156-7.162-5.095-14.618-4.681-21.949-1.33-16.785 7.678-31.715 30.941-48.694 35.966-17.868 5.304-36.694-21.501-53.87-6.108" stroke="url(#paint68_linear)" stroke-miterlimit="10"/><path opacity=".4" d="M374.74 280c-19.608-2.457-35.41-29.633-55.612-25.917-15.85 2.916-31.339 14.21-47.361 13.547-13.654-.564-27.118-11.09-40.595-15.246-14.365-4.433-28.23-3.413-41.804 7.831-15.967 13.239-29.85 6.297-45.233-7.673-14.052-12.753-25.629-27.27-41.543-19.797-16.829 7.909-31.688 31.101-48.725 36.559-17.846 5.722-36.77-22.686-53.867-6.397" stroke="url(#paint69_linear)" stroke-miterlimit="10"/></g><defs><linearGradient id="paint0_linear" x1="187.5" y1="0" x2="187.5" y2="280" gradientUnits="userSpaceOnUse"><stop stop-color="#554E40" stop-opacity=".63"/><stop offset="1" stop-color="#707070" stop-opacity="0"/></linearGradient><linearGradient id="paint1_linear" x1="-nan" y1="-nan" x2="-nan" y2="-nan" gradientUnits="userSpaceOnUse"><stop offset=".141" stop-color="#E9D1A2" stop-opacity=".433"/><stop offset=".802" stop-color="#E2B155" stop-opacity=".26"/></linearGradient><linearGradient id="paint2_linear" x1="187.63" y1="11.831" x2="187.63" y2="7.888" gradientUnits="userSpaceOnUse"><stop offset=".141" stop-color="#E9D1A2" stop-opacity=".433"/><stop offset=".802" stop-color="#E2B155" stop-opacity=".26"/></linearGradient><linearGradient id="paint3_linear" x1="187.63" y1="21.69" x2="187.63" y2="15.774" gradientUnits="userSpaceOnUse"><stop offset=".141" stop-color="#E9D1A2" stop-opacity=".433"/><stop offset=".802" stop-color="#E2B155" stop-opacity=".26"/></linearGradient><linearGradient id="paint4_linear" x1="187.63" y1="31.55" x2="187.63" y2="19.719" gradientUnits="userSpaceOnUse"><stop offset=".141" stop-color="#E9D1A2" stop-opacity=".433"/><stop offset=".802" stop-color="#E2B155" stop-opacity=".26"/></linearGradient><linearGradient id="paint5_linear" x1="187.63" y1="41.408" x2="187.63" y2="25.634" gradientUnits="userSpaceOnUse"><stop offset=".141" stop-color="#E9D1A2" stop-opacity=".433"/><stop offset=".802" stop-color="#E2B155" stop-opacity=".26"/></linearGradient><linearGradient id="paint6_linear" x1="187.63" y1="53.239" x2="187.63" y2="29.577" gradientUnits="userSpaceOnUse"><stop offset=".141" stop-color="#E9D1A2" stop-opacity=".433"/><stop offset=".802" stop-color="#E2B155" stop-opacity=".26"/></linearGradient><linearGradient id="paint7_linear" x1="187.63" y1="65.07" x2="187.63" y2="31.549" gradientUnits="userSpaceOnUse"><stop offset=".141" stop-color="#E9D1A2" stop-opacity=".433"/><stop offset=".802" stop-color="#E2B155" stop-opacity=".26"/></linearGradient><linearGradient id="paint8_linear" x1="187.63" y1="76.902" x2="187.63" y2="33.522" gradientUnits="userSpaceOnUse"><stop offset=".141" stop-color="#E9D1A2" stop-opacity=".433"/><stop offset=".802" stop-color="#E2B155" stop-opacity=".26"/></linearGradient><linearGradient id="paint9_linear" x1="187.63" y1="88.733" x2="187.63" y2="35.493" gradientUnits="userSpaceOnUse"><stop offset=".141" stop-color="#E9D1A2" stop-opacity=".433"/><stop offset=".802" stop-color="#E2B155" stop-opacity=".26"/></linearGradient><linearGradient id="paint10_linear" x1="187.631" y1="100.563" x2="187.631" y2="39.437" gradientUnits="userSpaceOnUse"><stop offset=".141" stop-color="#E9D1A2" stop-opacity=".433"/><stop offset=".802" stop-color="#E2B155" stop-opacity=".26"/></linearGradient><linearGradient id="paint11_linear" x1="187.63" y1="112.394" x2="187.63" y2="41.408" gradientUnits="userSpaceOnUse"><stop offset=".141" stop-color="#E9D1A2" stop-opacity=".433"/><stop offset=".802" stop-color="#E2B155" stop-opacity=".26"/></linearGradient><linearGradient id="paint12_linear" x1="187.631" y1="122.254" x2="187.631" y2="45.352" gradientUnits="userSpaceOnUse"><stop offset=".141" stop-color="#E9D1A2" stop-opacity=".433"/><stop offset=".802" stop-color="#E2B155" stop-opacity=".26"/></linearGradient><linearGradient id="paint13_linear" x1="187.631" y1="132.113" x2="187.631" y2="49.296" gradientUnits="userSpaceOnUse"><stop offset=".141" stop-color="#E9D1A2" stop-opacity=".433"/><stop offset=".802" stop-color="#E2B155" stop-opacity=".26"/></linearGradient><linearGradient id="paint14_linear" x1="187.631" y1="140" x2="187.631" y2="53.239" gradientUnits="userSpaceOnUse"><stop offset=".141" stop-color="#E9D1A2" stop-opacity=".433"/><stop offset=".802" stop-color="#E2B155" stop-opacity=".26"/></linearGradient><linearGradient id="paint15_linear" x1="187.631" y1="145.916" x2="187.631" y2="59.155" gradientUnits="userSpaceOnUse"><stop offset=".141" stop-color="#E9D1A2" stop-opacity=".433"/><stop offset=".802" stop-color="#E2B155" stop-opacity=".26"/></linearGradient><linearGradient id="paint16_linear" x1="187.631" y1="153.803" x2="187.631" y2="65.07" gradientUnits="userSpaceOnUse"><stop offset=".141" stop-color="#E9D1A2" stop-opacity=".433"/><stop offset=".802" stop-color="#E2B155" stop-opacity=".26"/></linearGradient><linearGradient id="paint17_linear" x1="187.631" y1="161.69" x2="187.631" y2="70.986" gradientUnits="userSpaceOnUse"><stop offset=".141" stop-color="#E9D1A2" stop-opacity=".433"/><stop offset=".802" stop-color="#E2B155" stop-opacity=".26"/></linearGradient><linearGradient id="paint18_linear" x1="187.631" y1="167.606" x2="187.631" y2="76.901" gradientUnits="userSpaceOnUse"><stop offset=".141" stop-color="#E9D1A2" stop-opacity=".433"/><stop offset=".802" stop-color="#E2B155" stop-opacity=".26"/></linearGradient><linearGradient id="paint19_linear" x1="187.631" y1="171.55" x2="187.631" y2="82.817" gradientUnits="userSpaceOnUse"><stop offset=".141" stop-color="#E9D1A2" stop-opacity=".433"/><stop offset=".802" stop-color="#E2B155" stop-opacity=".26"/></linearGradient><linearGradient id="paint20_linear" x1="187.631" y1="177.465" x2="187.631" y2="88.732" gradientUnits="userSpaceOnUse"><stop offset=".141" stop-color="#E9D1A2" stop-opacity=".433"/><stop offset=".802" stop-color="#E2B155" stop-opacity=".26"/></linearGradient><linearGradient id="paint21_linear" x1="187.631" y1="181.408" x2="187.631" y2="92.676" gradientUnits="userSpaceOnUse"><stop offset=".141" stop-color="#E9D1A2" stop-opacity=".433"/><stop offset=".802" stop-color="#E2B155" stop-opacity=".26"/></linearGradient><linearGradient id="paint22_linear" x1="187.631" y1="185.352" x2="187.631" y2="98.592" gradientUnits="userSpaceOnUse"><stop offset=".141" stop-color="#E9D1A2" stop-opacity=".433"/><stop offset=".802" stop-color="#E2B155" stop-opacity=".26"/></linearGradient><linearGradient id="paint23_linear" x1="187.63" y1="189.296" x2="187.63" y2="102.535" gradientUnits="userSpaceOnUse"><stop offset=".141" stop-color="#E9D1A2" stop-opacity=".433"/><stop offset=".802" stop-color="#E2B155" stop-opacity=".26"/></linearGradient><linearGradient id="paint24_linear" x1="187.631" y1="191.268" x2="187.631" y2="108.451" gradientUnits="userSpaceOnUse"><stop offset=".141" stop-color="#E9D1A2" stop-opacity=".433"/><stop offset=".802" stop-color="#E2B155" stop-opacity=".26"/></linearGradient><linearGradient id="paint25_linear" x1="187.631" y1="195.211" x2="187.631" y2="112.395" gradientUnits="userSpaceOnUse"><stop offset=".141" stop-color="#E9D1A2" stop-opacity=".433"/><stop offset=".802" stop-color="#E2B155" stop-opacity=".26"/></linearGradient><linearGradient id="paint26_linear" x1="187.631" y1="199.155" x2="187.631" y2="116.338" gradientUnits="userSpaceOnUse"><stop offset=".141" stop-color="#E9D1A2" stop-opacity=".433"/><stop offset=".802" stop-color="#E2B155" stop-opacity=".26"/></linearGradient><linearGradient id="paint27_linear" x1="187.63" y1="201.127" x2="187.63" y2="122.254" gradientUnits="userSpaceOnUse"><stop offset=".141" stop-color="#E9D1A2" stop-opacity=".433"/><stop offset=".802" stop-color="#E2B155" stop-opacity=".26"/></linearGradient><linearGradient id="paint28_linear" x1="187.631" y1="205.07" x2="187.631" y2="126.197" gradientUnits="userSpaceOnUse"><stop offset=".141" stop-color="#E9D1A2" stop-opacity=".433"/><stop offset=".802" stop-color="#E2B155" stop-opacity=".26"/></linearGradient><linearGradient id="paint29_linear" x1="187.631" y1="207.042" x2="187.631" y2="130.141" gradientUnits="userSpaceOnUse"><stop offset=".141" stop-color="#E9D1A2" stop-opacity=".433"/><stop offset=".802" stop-color="#E2B155" stop-opacity=".26"/></linearGradient><linearGradient id="paint30_linear" x1="187.631" y1="210.986" x2="187.631" y2="134.085" gradientUnits="userSpaceOnUse"><stop offset=".141" stop-color="#E9D1A2" stop-opacity=".433"/><stop offset=".802" stop-color="#E2B155" stop-opacity=".26"/></linearGradient><linearGradient id="paint31_linear" x1="187.631" y1="214.93" x2="187.631" y2="138.028" gradientUnits="userSpaceOnUse"><stop offset=".141" stop-color="#E9D1A2" stop-opacity=".433"/><stop offset=".802" stop-color="#E2B155" stop-opacity=".26"/></linearGradient><linearGradient id="paint32_linear" x1="187.631" y1="218.873" x2="187.631" y2="143.943" gradientUnits="userSpaceOnUse"><stop offset=".141" stop-color="#E9D1A2" stop-opacity=".433"/><stop offset=".802" stop-color="#E2B155" stop-opacity=".26"/></linearGradient><linearGradient id="paint33_linear" x1="187.631" y1="222.817" x2="187.631" y2="147.888" gradientUnits="userSpaceOnUse"><stop offset=".141" stop-color="#E9D1A2" stop-opacity=".433"/><stop offset=".802" stop-color="#E2B155" stop-opacity=".26"/></linearGradient><linearGradient id="paint34_linear" x1="187.631" y1="226.76" x2="187.631" y2="151.831" gradientUnits="userSpaceOnUse"><stop offset=".141" stop-color="#E9D1A2" stop-opacity=".433"/><stop offset=".802" stop-color="#E2B155" stop-opacity=".26"/></linearGradient><linearGradient id="paint35_linear" x1="187.5" y1="230.704" x2="187.5" y2="155.775" gradientUnits="userSpaceOnUse"><stop offset=".141" stop-color="#E9D1A2" stop-opacity=".433"/><stop offset=".802" stop-color="#E2B155" stop-opacity=".26"/></linearGradient><linearGradient id="paint36_linear" x1="187.37" y1="234.647" x2="187.37" y2="159.719" gradientUnits="userSpaceOnUse"><stop offset=".141" stop-color="#E9D1A2" stop-opacity=".433"/><stop offset=".802" stop-color="#E2B155" stop-opacity=".26"/></linearGradient><linearGradient id="paint37_linear" x1="187.37" y1="236.619" x2="187.37" y2="165.634" gradientUnits="userSpaceOnUse"><stop offset=".141" stop-color="#E9D1A2" stop-opacity=".433"/><stop offset=".802" stop-color="#E2B155" stop-opacity=".26"/></linearGradient><linearGradient id="paint38_linear" x1="187.37" y1="240.563" x2="187.37" y2="169.577" gradientUnits="userSpaceOnUse"><stop offset=".141" stop-color="#E9D1A2" stop-opacity=".433"/><stop offset=".802" stop-color="#E2B155" stop-opacity=".26"/></linearGradient><linearGradient id="paint39_linear" x1="187.37" y1="242.535" x2="187.37" y2="173.522" gradientUnits="userSpaceOnUse"><stop offset=".141" stop-color="#E9D1A2" stop-opacity=".433"/><stop offset=".802" stop-color="#E2B155" stop-opacity=".26"/></linearGradient><linearGradient id="paint40_linear" x1="187.37" y1="244.507" x2="187.37" y2="177.465" gradientUnits="userSpaceOnUse"><stop offset=".141" stop-color="#E9D1A2" stop-opacity=".433"/><stop offset=".802" stop-color="#E2B155" stop-opacity=".26"/></linearGradient><linearGradient id="paint41_linear" x1="187.37" y1="248.452" x2="187.37" y2="183.38" gradientUnits="userSpaceOnUse"><stop offset=".141" stop-color="#E9D1A2" stop-opacity=".433"/><stop offset=".802" stop-color="#E2B155" stop-opacity=".26"/></linearGradient><linearGradient id="paint42_linear" x1="187.37" y1="250.422" x2="187.37" y2="187.324" gradientUnits="userSpaceOnUse"><stop offset=".141" stop-color="#E9D1A2" stop-opacity=".433"/><stop offset=".802" stop-color="#E2B155" stop-opacity=".26"/></linearGradient><linearGradient id="paint43_linear" x1="187.37" y1="252.394" x2="187.37" y2="191.268" gradientUnits="userSpaceOnUse"><stop offset=".141" stop-color="#E9D1A2" stop-opacity=".433"/><stop offset=".802" stop-color="#E2B155" stop-opacity=".26"/></linearGradient><linearGradient id="paint44_linear" x1="187.37" y1="254.365" x2="187.37" y2="195.211" gradientUnits="userSpaceOnUse"><stop offset=".141" stop-color="#E9D1A2" stop-opacity=".433"/><stop offset=".802" stop-color="#E2B155" stop-opacity=".26"/></linearGradient><linearGradient id="paint45_linear" x1="187.37" y1="256.338" x2="187.37" y2="199.155" gradientUnits="userSpaceOnUse"><stop offset=".141" stop-color="#E9D1A2" stop-opacity=".433"/><stop offset=".802" stop-color="#E2B155" stop-opacity=".26"/></linearGradient><linearGradient id="paint46_linear" x1="187.37" y1="256.338" x2="187.37" y2="205.07" gradientUnits="userSpaceOnUse"><stop offset=".141" stop-color="#E9D1A2" stop-opacity=".433"/><stop offset=".802" stop-color="#E2B155" stop-opacity=".26"/></linearGradient><linearGradient id="paint47_linear" x1="187.37" y1="258.31" x2="187.37" y2="209.014" gradientUnits="userSpaceOnUse"><stop offset=".141" stop-color="#E9D1A2" stop-opacity=".433"/><stop offset=".802" stop-color="#E2B155" stop-opacity=".26"/></linearGradient><linearGradient id="paint48_linear" x1="187.37" y1="260.283" x2="187.37" y2="210.986" gradientUnits="userSpaceOnUse"><stop offset=".141" stop-color="#E9D1A2" stop-opacity=".433"/><stop offset=".802" stop-color="#E2B155" stop-opacity=".26"/></linearGradient><linearGradient id="paint49_linear" x1="187.37" y1="260.281" x2="187.37" y2="214.93" gradientUnits="userSpaceOnUse"><stop offset=".141" stop-color="#E9D1A2" stop-opacity=".433"/><stop offset=".802" stop-color="#E2B155" stop-opacity=".26"/></linearGradient><linearGradient id="paint50_linear" x1="187.37" y1="262.252" x2="187.37" y2="216.901" gradientUnits="userSpaceOnUse"><stop offset=".141" stop-color="#E9D1A2" stop-opacity=".433"/><stop offset=".802" stop-color="#E2B155" stop-opacity=".26"/></linearGradient><linearGradient id="paint51_linear" x1="187.37" y1="262.253" x2="187.37" y2="220.845" gradientUnits="userSpaceOnUse"><stop offset=".141" stop-color="#E9D1A2" stop-opacity=".433"/><stop offset=".802" stop-color="#E2B155" stop-opacity=".26"/></linearGradient><linearGradient id="paint52_linear" x1="187.37" y1="264.225" x2="187.37" y2="222.817" gradientUnits="userSpaceOnUse"><stop offset=".141" stop-color="#E9D1A2" stop-opacity=".433"/><stop offset=".802" stop-color="#E2B155" stop-opacity=".26"/></linearGradient><linearGradient id="paint53_linear" x1="187.37" y1="264.224" x2="187.37" y2="224.79" gradientUnits="userSpaceOnUse"><stop offset=".141" stop-color="#E9D1A2" stop-opacity=".433"/><stop offset=".802" stop-color="#E2B155" stop-opacity=".26"/></linearGradient><linearGradient id="paint54_linear" x1="187.37" y1="264.227" x2="187.37" y2="224.79" gradientUnits="userSpaceOnUse"><stop offset=".141" stop-color="#E9D1A2" stop-opacity=".433"/><stop offset=".802" stop-color="#E2B155" stop-opacity=".26"/></linearGradient><linearGradient id="paint55_linear" x1="187.37" y1="266.196" x2="187.37" y2="226.761" gradientUnits="userSpaceOnUse"><stop offset=".141" stop-color="#E9D1A2" stop-opacity=".433"/><stop offset=".802" stop-color="#E2B155" stop-opacity=".26"/></linearGradient><linearGradient id="paint56_linear" x1="187.37" y1="266.197" x2="187.37" y2="228.731" gradientUnits="userSpaceOnUse"><stop offset=".141" stop-color="#E9D1A2" stop-opacity=".433"/><stop offset=".802" stop-color="#E2B155" stop-opacity=".26"/></linearGradient><linearGradient id="paint57_linear" x1="187.37" y1="268.169" x2="187.37" y2="228.732" gradientUnits="userSpaceOnUse"><stop offset=".141" stop-color="#E9D1A2" stop-opacity=".433"/><stop offset=".802" stop-color="#E2B155" stop-opacity=".26"/></linearGradient><linearGradient id="paint58_linear" x1="187.37" y1="270.141" x2="187.37" y2="228.732" gradientUnits="userSpaceOnUse"><stop offset=".141" stop-color="#E9D1A2" stop-opacity=".433"/><stop offset=".802" stop-color="#E2B155" stop-opacity=".26"/></linearGradient><linearGradient id="paint59_linear" x1="187.37" y1="272.113" x2="187.37" y2="230.704" gradientUnits="userSpaceOnUse"><stop offset=".141" stop-color="#E9D1A2" stop-opacity=".433"/><stop offset=".802" stop-color="#E2B155" stop-opacity=".26"/></linearGradient><linearGradient id="paint60_linear" x1="187.37" y1="274.084" x2="187.37" y2="230.704" gradientUnits="userSpaceOnUse"><stop offset=".141" stop-color="#E9D1A2" stop-opacity=".433"/><stop offset=".802" stop-color="#E2B155" stop-opacity=".26"/></linearGradient><linearGradient id="paint61_linear" x1="187.37" y1="274.084" x2="187.37" y2="230.703" gradientUnits="userSpaceOnUse"><stop offset=".141" stop-color="#E9D1A2" stop-opacity=".433"/><stop offset=".802" stop-color="#E2B155" stop-opacity=".26"/></linearGradient><linearGradient id="paint62_linear" x1="187.37" y1="276.056" x2="187.37" y2="230.704" gradientUnits="userSpaceOnUse"><stop offset=".141" stop-color="#E9D1A2" stop-opacity=".433"/><stop offset=".802" stop-color="#E2B155" stop-opacity=".26"/></linearGradient><linearGradient id="paint63_linear" x1="187.37" y1="276.056" x2="187.37" y2="230.704" gradientUnits="userSpaceOnUse"><stop offset=".141" stop-color="#E9D1A2" stop-opacity=".433"/><stop offset=".802" stop-color="#E2B155" stop-opacity=".26"/></linearGradient><linearGradient id="paint64_linear" x1="187.37" y1="278.028" x2="187.37" y2="230.704" gradientUnits="userSpaceOnUse"><stop offset=".141" stop-color="#E9D1A2" stop-opacity=".433"/><stop offset=".802" stop-color="#E2B155" stop-opacity=".26"/></linearGradient><linearGradient id="paint65_linear" x1="187.37" y1="278.028" x2="187.37" y2="230.703" gradientUnits="userSpaceOnUse"><stop offset=".141" stop-color="#E9D1A2" stop-opacity=".433"/><stop offset=".802" stop-color="#E2B155" stop-opacity=".26"/></linearGradient><linearGradient id="paint66_linear" x1="187.37" y1="280" x2="187.37" y2="230.702" gradientUnits="userSpaceOnUse"><stop offset=".141" stop-color="#E9D1A2" stop-opacity=".433"/><stop offset=".802" stop-color="#E2B155" stop-opacity=".26"/></linearGradient><linearGradient id="paint67_linear" x1="187.37" y1="280" x2="187.37" y2="230.704" gradientUnits="userSpaceOnUse"><stop offset=".141" stop-color="#E9D1A2" stop-opacity=".433"/><stop offset=".802" stop-color="#E2B155" stop-opacity=".26"/></linearGradient><linearGradient id="paint68_linear" x1="187.37" y1="280" x2="187.37" y2="230.704" gradientUnits="userSpaceOnUse"><stop offset=".141" stop-color="#E9D1A2" stop-opacity=".433"/><stop offset=".802" stop-color="#E2B155" stop-opacity=".26"/></linearGradient><linearGradient id="paint69_linear" x1="187.37" y1="280" x2="187.37" y2="230.704" gradientUnits="userSpaceOnUse"><stop offset=".141" stop-color="#E6B14A" stop-opacity=".433"/><stop offset=".802" stop-color="#E2B155" stop-opacity=".26"/></linearGradient></defs></svg>