<svg width="1440" height="140" fill="none" xmlns="http://www.w3.org/2000/svg"><path fill="url(#paint0_linear)" d="M0-2h1440v142H0z"/><path opacity=".4" d="M1440 2.001c-242.9-.035-485.676.813-728.514 1.772-105.07.418-210.859.28-315.919-.599C264.054 2.074 132.482 3.11 1 2.001" stroke="url(#paint1_linear)" stroke-miterlimit="10"/><path opacity=".4" d="M1440 6.3c-68.82 0-137.66-.138-206.48-.07-61.49.06-122.85 1.351-184.33 1.574-114.519.414-229.02-.067-343.529.422-101.64.435-204.329 1.587-305.898-.171-59.199-1.036-117.788-1.507-177.037-1.934C148.778 5.588 74.919 7.035 1 6.3" stroke="url(#paint2_linear)" stroke-miterlimit="10"/><path opacity=".4" d="M1440 9.54c-67.83 0-135.85-.353-203.66.027-63.72.359-127.08 2.87-190.75 3.516-114.747 1.165-228.587-2.162-343.208-1.57-100.859.514-200.29 4.678-301.26.952-59.019-2.178-116.209-3.883-175.658-4.38C150.516 7.466 75.938 10.472 1 9.54" stroke="url(#paint3_linear)" stroke-miterlimit="10"/><path opacity=".4" d="M1440 13.642c-66.61 0-133.7-.45-200.25.17-66.55.621-132.16 3.478-198.52 4.401-60.311.839-119.779.614-179.778-1.212-53.773-1.638-106.006-2.82-160.218-2.642-47.518.158-92.037 1.944-138.964 3.61-53.703 1.906-108.994 1.016-162.198-1.413-58.559-2.677-113.79-5.237-173.589-5.53C151.055 10.657 76.478 14.283 1 13.643" stroke="url(#paint4_linear)" stroke-miterlimit="10"/><path opacity=".4" d="M1440 17.605c-65.17 0-131.31-.632-196.37.379-69.51 1.078-137.85 4.983-207.21 6.448-59.553 1.274-119.506.401-178.126-2.595-52.334-2.636-102.928-4.99-156.421-4.882-49.536.1-94.354 3.337-142.441 5.955-54.582 2.972-108.594 1.845-162.347-1.759-57.611-3.869-110.793-8.037-171.002-8.148C150.526 12.86 76.688 18.038 1 17.602" stroke="url(#paint5_linear)" stroke-miterlimit="10"/><path opacity=".4" d="M1440 20.953c-63.63.016-128.81-.8-192.22.627-72.78 1.624-143.89 6.634-216.41 8.727-60.864 1.755-117.105.123-175.804-4.285-50.255-3.775-98.931-7.556-151.644-7.564-52.124 0-98.493 5.026-147.957 8.695-56.352 4.178-108.316 2.962-163.377-2.085-56.042-5.136-107.496-11.2-168.034-11.066C149.107 14.183 76.657 21.076 1 20.953" stroke="url(#paint6_linear)" stroke-miterlimit="10"/><path opacity=".4" d="M1440 24.378c-62.02.024-126.22-.89-187.87.879-76.13 2.182-149.9 8.207-225.75 10.926-61.717 2.212-115.28-.153-173.031-6.07-47.647-4.883-94.445-10.174-146.3-10.341-54.803-.177-104.209 6.78-154.894 11.464-58.531 5.41-108.506 4.26-165.068-2.333-53.864-6.277-104.09-14.336-164.888-13.885-75.179.56-145.72 9.102-221.199 9.36" stroke="url(#paint7_linear)" stroke-miterlimit="10"/><path opacity=".4" d="M1440 27.843c-60.42.032-123.63-.945-183.61 1.126-79.39 2.74-155.82 9.741-234.84 13.083-62.952 2.664-113.476-.386-170.007-7.895-44.709-5.939-89.617-12.798-140.752-13.16-57.479-.402-110.852 8.676-162.705 14.255-27.161 2.907-55.791 5.631-85.4 5.005-28.98-.616-56.42-3.911-81.763-7.558-51.084-7.334-100.85-17.43-161.636-16.657C144.439 16.995 76.257 27.173 1 27.835" stroke="url(#paint8_linear)" stroke-miterlimit="10"/><path opacity=".4" d="M1440 31.862c-58.95.04-121.14-.94-179.47 1.322-82.42 3.187-161.25 10.928-243.19 14.766-64.4 3.018-112.009-.574-167.012-9.44-41.702-6.724-84.733-14.941-135.408-15.499-59.96-.658-117.921 10.32-170.765 16.534-27.682 3.256-58.212 6.69-89.131 5.934-28.98-.709-56.132-4.578-80.366-8.59-48.317-8.003-97.574-19.883-158.512-18.823C141.615 19.366 76.059 30.848 1 31.862" stroke="url(#paint9_linear)" stroke-miterlimit="10"/><path opacity=".4" d="M1440 35.124c-57.55.048-118.81-.945-175.66 1.516-85.1 3.688-166.05 12.359-250.53 16.767-32.162 1.676-62.65 2.646-94.159-.295-25.671-2.397-48.255-6.604-70.041-10.856-38.972-7.603-80.114-17.354-130.669-18.117-62.156-.94-124.774 12.201-178.475 19.14-28.162 3.639-60.569 7.854-92.666 6.962-29.11-.803-55.902-5.32-79.095-9.782-45.749-8.795-94.415-22.715-155.683-21.368C138.764 20.727 75.928 33.801 1 35.138" stroke="url(#paint10_linear)" stroke-miterlimit="10"/><path opacity=".4" d="M1440 38.65c-56.34.05-116.76-.925-172.31 1.614-87.26 3.99-169.74 13.28-256.35 18.038-32.279 1.773-62.678 2.872-94.027-.42-25.432-2.687-47.107-7.297-67.833-11.905-36.684-8.146-76.107-18.973-126.911-19.885-32.468-.584-65.115 3.895-93.156 7.686-31.108 4.206-61.017 9-92.115 13.21-28.581 3.869-62.557 8.614-95.734 7.623-29.32-.874-55.692-5.786-78.056-10.515-43.649-9.248-91.397-24.535-153.254-22.987C136.126 22.96 75.918 37.141 1 38.661" stroke="url(#paint11_linear)" stroke-miterlimit="10"/><path opacity=".4" d="M1440 42.148c-55.33.05-115.12-.937-169.59 1.675-88.8 4.257-172.24 14.279-260.3 19.383-32.128 1.868-62.757 3.061-93.786-.501-25.402-2.917-46.427-7.973-66.404-12.947-35.155-8.75-73.089-20.592-124.513-21.614-33.357-.656-66.953 4.243-95.434 8.294-32.147 4.576-62.956 9.784-95.104 14.366-28.979 4.133-63.955 9.302-98.021 8.248-29.63-.918-55.553-6.188-77.307-11.24-42.301-9.816-88.588-26.363-151.435-24.695C133.978 25.083 76.068 40.557 1 42.137" stroke="url(#paint12_linear)" stroke-miterlimit="10"/><path opacity=".4" d="M1440 45.134c-54.55.044-113.97-.976-167.64 1.65-89.55 4.382-173.22 15.074-261.95 20.388-31.687 1.894-62.884 3.127-93.471-.508-25.612-3.043-46.348-8.444-65.953-13.7-34.595-9.288-71.409-21.773-123.91-22.779-34.096-.654-67.781 4.363-96.661 8.655-32.826 4.869-64.203 10.419-97.02 15.293-29.348 4.36-64.473 9.683-99.238 8.622-29.979-.914-55.46-6.353-76.944-11.692-41.971-10.427-86.048-27.624-150.362-25.95C132.534 27.049 76.376 43.699 1 45.13" stroke="url(#paint13_linear)" stroke-miterlimit="10"/><path opacity=".4" d="M1440 47.968c-54.35.09-113.58-1.04-167.02 1.599-88.95 4.4-171.54 15.25-259.58 20.61-31.6 1.922-62.779 3.073-93.348-.466-25.982-3.014-47.127-8.4-67.023-13.643-35.236-9.286-72.44-21.746-125.633-22.908-34.336-.75-67.823 4.134-96.833 8.43-32.877 4.872-64.196 10.448-97.063 15.322-29.489 4.377-64.435 9.55-99.46 8.43-30.179-.964-55.512-6.335-77.037-11.654-42.141-10.419-85.381-27.14-150.206-25.587C132.268 29.881 76.687 46.736 1 47.968" stroke="url(#paint14_linear)" stroke-miterlimit="10"/><path opacity=".4" d="M1440 51.176c-54.58.167-113.63-1.27-167.26 1.575-87.37 4.633-168.11 15.748-254.54 21.34-31.983 2.072-62.342 3.149-93.351-.442-26.453-3.06-48.348-8.432-68.975-13.67-36.405-9.256-75.179-21.94-128.373-23.538-34.127-1.026-67.735 3.908-96.495 8.235-32.478 4.886-63.327 10.51-95.795 15.402-29.431 4.435-64.377 9.608-99.354 8.268-30.09-1.152-55.792-6.643-77.618-11.945-42.361-10.288-86.852-26.823-150.898-25.303C132.631 32.873 76.869 49.958 1 51.176" stroke="url(#paint15_linear)" stroke-miterlimit="10"/><path opacity=".4" d="M1440 54.565c-54.89.202-113.78-1.66-167.74 1.392-85.59 4.84-164.22 16.254-248.84 22.053-32.244 2.216-61.893 3.205-93.253-.39-26.861-3.079-49.636-8.382-71.031-13.65-37.625-9.258-78.186-22.068-131.331-24.08-33.817-1.282-67.164 3.616-95.665 7.983-31.928 4.9-62.128 10.567-94.035 15.465-29.341 4.503-63.957 9.597-98.773 8.045-30.12-1.345-56.283-6.934-78.597-12.252-42.921-10.21-88.869-26.551-152.426-25.032C133.27 35.89 77.199 53.319 1 54.549" stroke="url(#paint16_linear)" stroke-miterlimit="10"/><path opacity=".4" d="M1440 57.64c-55.27.192-114.13-2.156-168.47 1.042-83.62 4.917-159.96 16.415-242.59 22.298-32.371 2.305-61.461 3.171-93.078-.31-27.341-3.008-50.964-8.144-73.188-13.303-39.192-9.065-81.172-21.655-134.464-24.03-33.416-1.488-66.172 3.184-94.392 7.51-31.228 4.789-60.658 10.39-91.865 15.184-29.229 4.494-63.175 9.32-97.78 7.602-30.259-1.506-56.959-7.059-79.942-12.288C320.452 51.39 272.865 35.593 209.65 37.1 134.154 38.9 77.655 56.396 1 57.631" stroke="url(#paint17_linear)" stroke-miterlimit="10"/><path opacity=".4" d="M1440 60.397c-55.72.149-114.56-2.707-169.39.564-81.52 4.862-155.44 16.235-235.94 22.034-32.36 2.337-61.046 3.064-92.824-.2-27.83-2.858-52.284-7.718-75.417-12.62-40.972-8.684-84.231-20.73-137.725-23.394-64.555-3.218-129.79 13.528-182.103 21.422-29.119 4.397-62.147 8.801-96.453 6.957-30.499-1.642-57.76-7.032-81.533-12.08-44.889-9.531-94.255-24.462-157.311-22.977C135.246 41.89 78.207 59.167 1 60.397" stroke="url(#paint18_linear)" stroke-miterlimit="10"/><path opacity=".4" d="M1440 63.719c-56.21.083-115.06-3.408-170.46 0-79.34 4.897-150.7 16.397-228.96 22.253-32.25 2.412-60.66 3.012-92.528-.082-28.34-2.757-53.642-7.432-77.686-12.211-42.75-8.492-87.299-20.212-141.062-23.226-63.576-3.558-126.002 12.81-177.347 20.627-28.389 4.316-61.487 8.667-94.853 6.443-30.979-2.063-58.271-7.064-83.393-12.154-46.178-9.35-97.442-23.77-160.499-22.26C136.506 44.946 78.856 62.466 1 63.738" stroke="url(#paint19_linear)" stroke-miterlimit="10"/><path opacity=".4" d="M1440 66.29c-56.74 0-115.65-4.226-171.67-.636-77.08 4.94-145.83 16.674-221.77 22.59-131.911 10.287-200.721-27.686-316.59-34.953-62.456-3.922-121.726 12.11-172.141 19.891-28.26 4.355-60.078 8.321-93.024 5.934-31.369-2.273-59.299-7.243-85.43-12.317-47.618-9.254-100.87-23.239-164.056-21.679C137.904 47.025 79.575 64.965 1 66.29" stroke="url(#paint20_linear)" stroke-miterlimit="10"/><path opacity=".4" d="M1440 69.279c-57.29-.113-116.29-4.976-172.98-1.323-74.79 4.817-140.9 16.44-214.48 22.236-129.183 10.173-207.857-25.553-321.857-33.248-61.376-4.148-117.087 10.993-166.582 18.535-28.14 4.287-58.568 7.69-91.045 5.224-31.788-2.421-60.427-7.209-87.609-12.118-49.144-8.876-104.426-22.032-167.881-20.455C139.392 50.069 80.334 67.926 1 69.279" stroke="url(#paint21_linear)" stroke-miterlimit="10"/><path opacity=".4" d="M1440 71.804c-57.86-.232-116.99-5.879-174.39-2.085-72.5 4.79-135.91 16.58-207.22 22.374-126.441 10.277-214.852-23.941-327.007-32.258-60.281-4.47-112.206 10.116-160.833 17.607-28.041 4.32-56.962 7.214-88.941 4.633-32.228-2.613-61.609-7.358-89.87-12.209-50.726-8.72-108.048-21.355-171.825-19.722C140.967 52.169 81.127 70.397 1 71.814" stroke="url(#paint22_linear)" stroke-miterlimit="10"/><path opacity=".4" d="M1440 74.372c-58.42-.34-117.72-6.507-175.88-2.757-70.25 4.532-131.04 15.951-200.05 21.466-123.753 9.891-221.615-21.248-331.928-29.783-59.189-4.58-107.216 8.789-155.012 15.902-27.921 4.156-55.431 6.406-86.88 3.818-32.678-2.691-62.826-7.169-92.146-11.75-52.313-8.178-111.652-19.735-175.828-18.114C142.502 55.169 81.924 72.942 1 74.371" stroke="url(#paint23_linear)" stroke-miterlimit="10"/><path opacity=".4" d="M1440 76.956c-58.96-.461-118.45-7.416-177.28-3.545-68.09 4.482-126.32 16.074-193.12 21.563-121.305 9.966-228.237-19.594-336.759-28.745-58.108-4.902-102.226 7.908-149.242 15.002-27.8 4.193-53.962 5.918-84.809 3.215-33.126-2.899-64.034-7.34-94.402-11.862-53.851-8.021-115.167-19.093-179.78-17.413C144.036 57.274 82.711 75.466 1 76.95" stroke="url(#paint24_linear)" stroke-miterlimit="10"/><path opacity=".4" d="M1440 79.55c-59.55-.58-119.19-8.322-178.74-4.335-66.04 4.422-121.81 16.188-186.54 21.645-118.979 10.03-234.472-17.912-341.179-27.7-57.141-5.241-97.314 7.05-143.682 14.112-27.711 4.218-52.505 5.443-82.834 2.618-33.557-3.113-65.215-7.535-96.574-11.995-55.333-7.867-118.539-18.453-183.605-16.703C145.511 59.382 83.464 77.996 1 79.55" stroke="url(#paint25_linear)" stroke-miterlimit="10"/><path opacity=".4" d="M1440 82.156c-60.1-.656-119.92-8.805-180.13-4.888-64.16 4.171-117.62 15.615-180.41 20.797-60.9 5.029-125.702-.648-182.593-6.714-54.862-5.852-107.015-13.527-162.697-18.834-56.42-5.378-92.405 6.013-138.424 12.704-61.107 8.88-123.694-2.382-179.624-9.684-56.671-7.39-121.656-17.07-187.15-15.332C146.918 62.381 84.192 80.611 1 82.16" stroke="url(#paint26_linear)" stroke-miterlimit="10"/><path opacity=".4" d="M1440 84.713c-60.67-.744-120.49-9.59-181.48-5.584-62.44 4.106-113.78 15.717-174.88 20.862-60.35 5.09-126.858-.438-184.019-6.078-55.973-5.524-109.247-12.82-164.92-18.559-55.673-5.74-88.191 5.259-133.621 11.955-59.72 8.8-124.917-3.493-179.88-10.386-57.862-7.255-124.498-16.487-190.353-14.698C148.152 64.475 84.804 83.106 1 84.713" stroke="url(#paint27_linear)" stroke-miterlimit="10"/><path opacity=".4" d="M1440 86.63c-61.24-.797-121.01-10.029-182.71-6.045-60.95 3.933-110.4 15.404-169.88 20.391-59.89 5.007-127.915-.233-185.337-5.346-56.961-5.075-111.305-11.853-166.888-17.873-26.221-2.84-45.439-2.956-70.792.706-20.606 2.977-38.034 7.3-58.61 10.3-27.452 4.004-49.317 3.893-78.068.915-34.547-3.582-68.204-7.701-102.101-11.704-58.831-6.926-126.914-15.52-193.071-13.736C149.28 66.486 85.403 85.023 1 86.63" stroke="url(#paint28_linear)" stroke-miterlimit="10"/><path opacity=".4" d="M1440 89.048c-61.81-.805-121.4-10.582-183.82-6.542-59.74 3.869-107.51 15.506-165.78 20.419-59.59 5.022-128.86-.054-186.512-4.833-57.652-4.778-113.004-11.274-168.408-17.717-25.603-2.977-44.32-3.399-69.454.284-19.926 2.921-36.555 7.232-56.432 10.174-27.302 4.043-48.827 3.614-77.078.505-34.717-3.82-68.895-7.975-103.432-11.908-59.569-6.781-128.983-14.985-195.239-13.176C150.12 68.54 85.814 87.39 1 89.024" stroke="url(#paint29_linear)" stroke-miterlimit="10"/><path opacity=".4" d="M1440 91.347c-62.38-.791-121.63-11-184.75-6.912-58.85 3.818-105.12 15.653-162.59 20.465-59.49 4.988-129.514.098-187.523-4.381-58.477-4.512-114.307-10.795-169.478-17.655-25.082-3.116-43.588-3.772-68.53-.055-19.387 2.886-35.345 7.21-54.671 10.123-27.17 4.094-48.675 3.43-76.494.174-34.766-4.065-69.341-8.27-104.405-12.155-59.957-6.647-130.526-14.499-196.728-12.686C150.782 70.568 86.169 89.702 1 91.347" stroke="url(#paint30_linear)" stroke-miterlimit="10"/><path opacity=".4" d="M1440 93.906c-62.96-.703-121.7-10.935-185.51-6.923-58.25 3.662-103.52 15.294-160.3 19.948-59.31 4.858-130.249.175-188.408-3.935-59.08-4.176-115.16-10.158-170.072-17.235-24.673-3.182-43.28-3.951-68.093-.29-18.987 2.803-34.446 7.038-53.403 9.867-27.071 4.04-48.876 3.277-76.367-.056-34.696-4.205-69.531-8.35-104.987-12.088-60.138-6.34-131.529-13.68-197.462-11.932C151.146 73.492 86.371 92.318 1 93.906" stroke="url(#paint31_linear)" stroke-miterlimit="10"/><path opacity=".4" d="M1440 95.95c-63.28-.632-121.61-10.994-185.81-6.938-58.05 3.666-103.05 15.309-159.65 19.944-59.25 4.851-130.509.064-188.688-3.966-59.289-4.107-115.19-10.054-170.172-17.176-24.583-3.188-43.45-3.852-68.093-.207-18.857 2.789-34.216 6.994-53.073 9.791-26.981 4.001-49.186 3.257-76.417-.178-34.546-4.356-69.422-8.54-105.027-12.248-59.848-6.235-132.168-13.505-197.593-11.688C151.346 75.615 86.151 94.157 1 95.942" stroke="url(#paint32_linear)" stroke-miterlimit="10"/><path opacity=".4" d="M1440 98.012c-63.41-.604-121.58-11.098-185.93-6.97-57.95 3.72-103.18 15.334-159.82 19.968-59.25 4.848-130.348-.179-188.437-4.26-59.097-4.152-114.757-10.125-170.118-16.95-52.402-6.459-78.374 3.474-121.532 9.668-26.981 3.872-49.326 3.167-76.306-.302-34.396-4.422-69.211-8.62-104.806-12.308-59.497-6.162-132.755-13.51-197.708-11.528C151.573 77.89 85.58 95.783 1 97.972" stroke="url(#paint33_linear)" stroke-miterlimit="10"/><path opacity=".4" d="M1439 100.103c-63.56-.588-121.54-11.259-186.06-7.056-57.91 3.776-103.29 15.374-159.92 20.008-59.2 4.855-130.048-.413-188.007-4.545-58.828-4.194-114.241-10.196-169.883-16.737-51.929-6.106-78.811 3.742-121.972 9.711-26.961 3.738-49.49 3.047-76.214-.459-34.212-4.488-68.904-8.693-104.464-12.35-59.217-6.094-133.155-13.433-197.525-11.297C151.661 80.14 84.903 97.416 1 99.976" stroke="url(#paint34_linear)" stroke-miterlimit="10"/><path opacity=".4" d="M1439 102.211c-63.82-.58-121.76-11.488-186.55-7.208-57.88 3.824-103.56 15.452-160.27 20.102-59.24 4.842-129.908-.634-187.797-4.828-58.588-4.24-113.918-10.279-169.798-16.546-51.593-5.78-79.413 3.986-122.712 9.757-27.051 3.603-49.765 2.902-76.306-.651-34.045-4.56-68.691-8.775-104.215-12.396-59.108-6.031-133.544-13.29-197.519-11.012C150.893 82.38 83.32 99.076 0 101.992" stroke="url(#paint35_linear)" stroke-miterlimit="10"/><path opacity=".4" d="M1439 104.13c-64.1-.553-121.92-11.148-187.04-7.02-57.84 3.664-103.8 14.744-160.56 19.136-59.22 4.584-129.528-.812-187.398-4.84-58.269-4.06-113.431-9.82-169.543-15.495-51.204-5.18-80.003 3.983-123.504 9.245-27.14 3.284-50.035 2.586-76.407-.828-33.779-4.417-68.443-8.347-103.837-11.773-59.06-5.652-133.708-12.39-197.313-10.094C150.995 85.421 82.593 100.701 0 103.777" stroke="url(#paint36_linear)" stroke-miterlimit="10"/><path opacity=".4" d="M1439 106.286c-64.39-.565-122.19-11.48-187.62-7.269-57.79 3.713-104.06 14.877-160.89 19.27-59.21 4.577-129.207-1.02-186.966-5.115-57.958-4.102-112.969-9.904-169.208-15.323-50.824-4.9-80.663 4.181-124.422 9.228-27.271 3.148-50.334 2.394-76.555-1.076-33.576-4.481-68.113-8.42-103.426-11.795-59.087-5.591-133.725-12.098-196.989-9.691C151.052 87.629 81.871 102.38 0 105.766" stroke="url(#paint37_linear)" stroke-miterlimit="10"/><path opacity=".4" d="M1439 107.861c-64.72-.566-122.51-11.529-188.32-7.368-57.75 3.652-104.35 14.609-161.19 18.88-59.19 4.445-128.821-1.196-186.531-5.239-57.531-4.021-112.523-9.708-168.824-14.721-50.466-4.496-81.404 4.238-125.464 8.925-27.421 2.917-50.666 2.11-76.778-1.341-33.347-4.419-67.729-8.253-102.929-11.477-59.189-5.362-133.597-11.41-196.594-8.958C151.066 89.726 81.134 103.55 0 107.13" stroke="url(#paint38_linear)" stroke-miterlimit="10"/><path opacity=".4" d="M1439 109.448c-65.08-.579-122.92-11.636-189.11-7.5-57.71 3.584-104.64 14.356-161.55 18.508-59.15 4.312-128.397-1.364-185.978-5.357-57.13-3.964-112.061-9.516-168.382-14.139-50.115-4.112-82.213 4.285-126.603 8.608-27.59 2.679-51.013 1.81-77.045-1.607-33.127-4.363-67.366-8.09-102.459-11.156-59.379-5.15-133.368-10.681-196.134-8.188C151.025 91.831 80.374 104.744 0 108.505" stroke="url(#paint39_linear)" stroke-miterlimit="10"/><path opacity=".4" d="M1439 112.048c-65.47-.595-123.3-11.784-189.98-7.696-57.67 3.538-104.98 14.153-161.95 18.185-59.09 4.18-127.913-1.527-185.415-5.479-56.73-3.9-111.613-9.326-167.885-13.568-49.776-3.758-83.103 4.314-127.843 8.274-27.781 2.457-51.385 1.493-77.357-1.879-32.895-4.307-66.972-7.929-101.931-10.835-59.609-4.926-132.999-9.898-195.587-7.369C150.937 94.903 79.616 106.956 0 110.881" stroke="url(#paint40_linear)" stroke-miterlimit="10"/><path opacity=".4" d="M1439 113.686c-65.88-.62-123.76-11.956-190.87-7.91-57.7 3.467-105.37 13.936-162.42 17.841-59.03 4.042-127.366-1.682-184.866-5.589-56.311-3.831-111.153-9.119-167.363-12.979-49.436-3.398-84.062 4.326-129.171 7.906-27.981 2.22-51.754 1.158-77.706-2.209-32.655-4.246-66.562-7.754-101.369-10.487-59.839-4.69-132.489-9.066-194.935-6.498C150.815 97.012 78.855 108.165 0 112.238" stroke="url(#paint41_linear)" stroke-miterlimit="10"/><path opacity=".4" d="M1439 115.324c-66.29-.642-124.24-12.164-191.94-8.158-57.61 3.412-105.69 13.745-162.79 17.529-58.95 3.908-126.825-1.842-184.195-5.696-55.902-3.764-110.703-8.912-166.795-12.402-49.125-3.06-85.12 4.339-130.578 7.529-28.182 1.982-52.145.814-78.107-2.553-32.408-4.189-66.132-7.582-100.769-10.14-60.229-4.448-131.979-8.164-194.326-5.585-78.865 3.255-151.394 13.54-229.5 17.757" stroke="url(#paint42_linear)" stroke-miterlimit="10"/><path opacity=".4" d="M1439 117.022c-66.76-.686-124.83-12.406-193.01-8.447-57.59 3.342-106.1 13.546-163.23 17.201-58.91 3.762-126.275-1.999-183.565-5.817-55.481-3.697-110.243-8.687-166.184-11.805-48.836-2.732-86.25 4.321-132.049 7.106-28.39 1.735-52.533.431-78.535-2.913-32.162-4.127-65.7-7.398-100.151-9.77-60.597-4.187-131.348-7.212-193.615-4.61C150.415 101.232 77.366 110.606 0 114.954" stroke="url(#paint43_linear)" stroke-miterlimit="10"/><path opacity=".4" d="M1439 118.731c-67.24-.729-125.41-12.686-194.15-8.773-57.55 3.277-106.44 13.37-163.68 16.895-58.83 3.622-125.674-2.157-182.874-5.93-55.082-3.631-109.774-8.461-165.535-11.208-48.586-2.395-87.449 4.302-133.597 6.696-28.59 1.483-52.904.036-78.995-3.314-31.913-4.065-65.256-7.212-99.501-9.389-60.958-3.91-130.63-6.208-192.867-3.59C150.165 103.38 76.657 111.852 0 116.334" stroke="url(#paint44_linear)" stroke-miterlimit="10"/><path opacity=".4" d="M1439 120.086c-67.71-.721-126.03-12.055-195.3-8.469-57.56 2.98-106.86 12.246-164.17 15.392-58.75 3.223-125.063-2.15-182.223-5.609-54.692-3.312-109.304-7.629-164.885-9.832-48.377-1.917-88.72 3.962-135.197 5.795-28.8 1.138-53.283-.35-79.475-3.449-31.663-3.719-64.81-6.521-98.841-8.354-61.367-3.353-129.85-4.774-192.067-2.334C149.896 106.249 75.947 113.245 0 117.524" stroke="url(#paint45_linear)" stroke-miterlimit="10"/><path opacity=".4" d="M1439 121.841c-68.2-.766-126.68-12.288-196.52-8.782-57.57 2.9-107.27 12.032-164.66 15.03-58.66 3.059-124.445-2.29-181.539-5.688-54.325-3.235-108.839-7.355-164.184-9.201-48.209-1.607-90.021 3.899-136.801 5.328-28.982.887-53.656-.75-79.949-3.834-31.419-3.644-64.368-6.307-98.167-7.935-61.759-3.041-129.036-3.718-191.256-1.276C149.533 108.479 75.291 114.557 0 118.934" stroke="url(#paint46_linear)" stroke-miterlimit="10"/><path opacity=".4" d="M1439 123.336c-68.7-.849-127.34-13.129-197.74-9.526-57.55 2.948-107.69 12.35-165.13 15.317-58.57 3.034-123.794-2.544-180.873-6.031-53.96-3.31-108.351-7.389-163.461-8.942-48.115-1.357-91.352 4-138.489 5.064-29.188.66-53.96-1.219-80.501-4.43-31.174-3.728-63.919-6.364-97.469-7.844C274.44 100.521 136.371 111.357 0 119.907" stroke="url(#paint47_linear)" stroke-miterlimit="10"/><path opacity=".4" d="M1439 124.493c-69.21-.854-128.02-12.648-199-9.327-57.56 2.695-108.12 11.424-165.64 14.085-58.48 2.705-123.151-2.543-180.111-5.765-53.652-3.044-107.885-6.675-162.747-7.771-48.107-.969-92.705 3.677-140.193 4.281-29.359.368-54.342-1.576-81.033-4.588-30.818-3.501-63.546-5.733-96.773-6.967-137.314-5.103-280.536 4.37-413.503 12.456" stroke="url(#paint48_linear)" stroke-miterlimit="10"/><path opacity=".4" d="M1439 126.136c-69.72-.939-128.71-13.372-200.27-10.015-57.56 2.708-108.55 11.588-166.14 14.182-58.38 2.627-122.49-2.784-179.39-6.039-53.364-3.06-107.406-6.587-162.018-7.358-48.196-.682-94.054 3.716-141.902 3.9-29.529.113-54.671-2.078-81.573-5.187-30.619-3.539-63.126-5.671-96.073-6.731-62.766-2.017-126.412-.299-188.659 2.169C148.287 114.018 73.489 117.268 0 122.036" stroke="url(#paint49_linear)" stroke-miterlimit="10"/><path opacity=".4" d="M1439 127.259c-69.63-.916-128.54-12.712-200.03-9.807-57.32 2.34-108.42 10.422-165.56 12.873-57.76 2.476-120.581-2.439-176.981-5.408-54.521-2.858-109.751-6.053-165.561-6.453-49.545-.356-97.821 3.579-147.255 3.119-29.838-.278-54.711-2.815-82.061-5.633-28.41-2.927-58.409-4.603-88.747-5.396-64.573-1.687-128.617.801-192.422 3.148C146.735 116.41 72.428 118.495 0 123.023" stroke="url(#paint50_linear)" stroke-miterlimit="10"/><path opacity=".4" d="M1439 129.017c-70.11-.991-129.26-13.255-201.28-10.375-57.34 2.295-108.84 10.407-166.08 12.749-57.64 2.348-119.961-2.647-176.282-5.609-54.262-2.856-109.284-5.895-164.806-5.895-49.835 0-99.181 3.518-149.026 2.62-29.879-.535-54.961-3.302-82.522-6.145-28.221-2.911-58.02-4.456-88.1-5.068-64.785-1.315-127.721 2.069-191.516 4.422-73.17 2.699-147.468 3.849-219.388 8.576" stroke="url(#paint51_linear)" stroke-miterlimit="10"/><path opacity=".4" d="M1439 129.912c-70.64-1.014-129.92-13.098-202.54-10.392-57.37 2.138-109.28 9.845-166.59 11.957-57.51 2.124-119.357-2.725-175.65-5.526-53.964-2.69-108.778-5.394-164.012-5.011-50.197.348-100.514 3.272-150.781 1.986-29.919-.768-55.203-3.616-82.945-6.336-27.981-2.743-57.641-4.076-87.442-4.471-64.957-.867-126.857 3.227-190.634 5.465-72.712 2.552-146.903 2.693-218.406 7.372" stroke="url(#paint52_linear)" stroke-miterlimit="10"/><path opacity=".4" d="M1439 130.713c-71.13-1.073-130.65-13.54-203.79-10.888-57.37 2.083-109.68 9.754-167.08 11.721-57.4 1.967-118.74-2.927-174.882-5.692-53.834-2.654-108.387-5.16-163.32-4.375-50.636.725-101.812 3.179-152.497 1.45-29.98-1.021-55.443-4.092-83.444-6.81-28.001-2.717-57.281-3.886-86.802-4.09-64.956-.453-126.035 4.521-189.742 6.746-72.291 2.524-146.42 1.667-217.443 6.524" stroke="url(#paint53_linear)" stroke-miterlimit="10"/><path opacity=".4" d="M1439 132.523c-71.62-1.148-131.35-13.929-205.01-11.351-57.41 2.019-110.09 9.597-167.57 11.433-57.24 1.827-118.202-3.127-174.245-5.85-53.674-2.605-107.928-4.891-162.592-3.699-51.135 1.118-103.071 3.076-154.206.902-29.891-1.272-55.653-4.567-83.854-7.273-27.682-2.654-56.962-3.676-86.163-3.685-64.957-.021-125.257 5.823-188.875 8.03-71.952 2.497-145.902.604-216.485 5.632" stroke="url(#paint54_linear)" stroke-miterlimit="10"/><path opacity=".4" d="M1439 133c-72.1-1.124-132.01-13.358-206.2-11.005-57.43 1.814-110.49 8.814-168.05 10.37-57.18 1.556-117.525-3.11-173.576-5.605-53.564-2.374-107.548-4.301-161.891-2.8-51.685 1.426-104.288 2.77-155.893.321-29.88-1.412-55.863-4.697-84.273-7.206-27.552-2.432-56.581-3.228-85.511-3.051-64.857.39-124.526 6.649-188.053 8.694-71.542 2.303-145.3-.461-215.553 4.408" stroke="url(#paint55_linear)" stroke-miterlimit="10"/><path opacity=".4" d="M1439 134c-72.55-1.194-132.66-13.821-207.34-11.515-57.45 1.778-110.92 8.724-168.5 10.168-57.06 1.429-116.913-3.347-172.933-5.809-53.462-2.341-107.173-4.069-161.203-2.16-52.263 1.845-105.515 2.701-157.477-.194-29.849-1.662-56.05-5.189-84.709-7.709-27.38-2.392-56.259-3.052-84.939-2.687-64.683.816-123.84 7.929-187.255 9.981C143.446 126.38 69.909 122.562 0 127.653" stroke="url(#paint56_linear)" stroke-miterlimit="10"/><path opacity=".4" d="M1439 135c-72.95-1.257-133.29-14.264-208.44-12-57.49 1.734-111.26 8.622-168.96 9.935-56.96 1.293-116.383-3.583-172.313-6.013-53.394-2.324-106.836-3.825-160.548-1.503-52.873 2.283-106.606 2.636-159.019-.707-29.789-1.902-56.24-5.673-85.09-8.189-27.241-2.377-55.961-2.868-84.341-2.319-64.455 1.247-123.204 9.193-186.499 11.264-70.951 2.313-144.189-2.59-213.79 2.74" stroke="url(#paint57_linear)" stroke-miterlimit="10"/><path opacity=".4" d="M1439 136c-73.4-1.255-133.91-14.009-209.48-11.891-57.54 1.609-111.63 8.12-169.4 9.242-56.88 1.105-115.836-3.645-171.717-5.938-53.343-2.189-106.526-3.408-159.939-.795-53.413 2.614-107.675 2.46-160.499-1.156-29.719-2.036-56.43-5.826-85.44-8.267-26.982-2.275-55.742-2.56-83.772-1.853-64.195 1.589-122.615 9.952-185.781 11.944-70.641 2.227-143.67-3.517-212.972 1.817" stroke="url(#paint58_linear)" stroke-miterlimit="10"/><path opacity=".4" d="M1439 137c-73.81-1.308-134.44-14.41-210.47-12.332-57.52 1.564-111.93 8.009-169.78 9.005-56.74.978-115.322-3.885-171.146-6.158-53.315-2.162-106.249-3.17-159.353-.151-54.105 3.072-108.689 2.432-161.894-1.622-29.66-2.253-56.604-6.266-85.785-8.722-26.871-2.262-55.483-2.391-83.225-1.523-30.27.948-59.78 3.12-88.841 5.531-31.359 2.596-63.628 6.557-96.296 7.606-70.404 2.262-143.185-4.572-212.21 1.032" stroke="url(#paint59_linear)" stroke-miterlimit="10"/><path opacity=".4" d="M1439 137c-74.17-1.298-134.91-14.176-211.38-12.215-57.57 1.477-112.27 7.596-170.19 8.425-56.65.821-114.808-3.958-170.581-6.122-53.315-2.064-106.04-2.815-158.834.464-54.694 3.399-109.638 2.321-163.232-1.981-29.53-2.376-56.702-6.413-86.032-8.777-26.762-2.156-55.244-2.141-82.715-1.148-30.21 1.087-59.55 3.393-88.442 5.897-31.128 2.697-63.447 6.767-96.105 7.799-70.184 2.214-142.735-5.397-211.489.264" stroke="url(#paint60_linear)" stroke-miterlimit="10"/><path opacity=".4" d="M1439 138c-74.5-1.348-135.41-14.589-212.2-12.644-57.62 1.462-112.58 7.527-170.54 8.253-56.567.709-114.338-4.232-170.069-6.387-53.324-2.058-105.858-2.611-158.342 1.079-55.321 3.876-110.513 2.338-164.487-2.396-29.419-2.578-56.79-6.831-86.271-9.221-26.651-2.158-54.962-2.007-82.233-.861-30.139 1.268-59.329 3.804-88.069 6.503-30.919 2.905-63.277 7.248-95.934 8.318-69.952 2.293-142.332-6.433-210.855-.439" stroke="url(#paint61_linear)" stroke-miterlimit="10"/><path opacity=".4" d="M1439 138c-74.81-1.321-135.82-14.385-212.95-12.524-57.68 1.393-112.92 7.173-170.94 7.767-56.506.582-113.917-4.332-169.589-6.401-53.344-1.98-105.727-2.321-157.892 1.605-55.891 4.204-111.223 2.302-165.576-2.644-29.319-2.671-56.87-6.947-86.47-9.267-26.562-2.081-54.773-1.816-81.785-.574-30.098 1.384-59.129 4.027-87.739 6.8-30.749 2.983-63.127 7.384-95.823 8.457-69.812 2.295-142.013-7.162-210.236-1.057" stroke="url(#paint62_linear)" stroke-miterlimit="10"/><path opacity=".4" d="M1439 139c-75.1-1.354-136.17-14.821-213.59-12.944-57.7 1.397-113.19 7.161-171.25 7.675-56.453.49-113.483-4.633-169.155-6.723-53.373-2.003-105.657-2.166-157.52 2.166-56.471 4.719-111.833 2.402-166.584-2.978-29.19-2.87-56.901-7.351-86.611-9.712-26.481-2.107-54.551-1.733-81.373-.352-30.059 1.551-58.959 4.406-87.449 7.365-30.609 3.181-62.956 7.805-95.744 8.935-69.661 2.423-141.771-8.177-209.724-1.647" stroke="url(#paint63_linear)" stroke-miterlimit="10"/><path opacity=".4" d="M1439 139c-74.73-1.33-135.6-14.567-212.58-12.852-60.82 1.355-119.62 7.474-181 7.348-52.472-.106-105.127-4.697-156.961-6.671-55.072-2.098-107.786-2.039-161.119 2.451-59.139 4.966-114.552 2.354-171.552-3.55-25.553-2.645-49.896-6.254-75.639-8.732-27.24-2.621-57.15-2.366-85.181-.91-31.808 1.65-62.257 4.79-92.256 7.984-30.24 3.23-62.387 7.778-94.995 8.843-68.953 2.238-140.663-8.812-207.717-2.148" stroke="url(#paint64_linear)" stroke-miterlimit="10"/><path opacity=".4" d="M1439 140c-74.94-1.349-135.81-15.053-212.99-13.285-60.85 1.396-119.92 7.541-181.27 7.335-52.44-.177-104.823-5.03-156.627-7.064-55.112-2.162-107.815-1.948-160.888 2.97-59.738 5.539-114.86 2.54-172.331-3.832-25.432-2.819-49.845-6.563-75.657-9.114-27.181-2.698-56.961-2.381-84.831-.799-31.788 1.804-62.117 5.172-92.026 8.544-30.199 3.405-62.337 8.135-95.024 9.285-68.822 2.402-140.612-9.813-207.356-2.628" stroke="url(#paint65_linear)" stroke-miterlimit="10"/><path opacity=".4" d="M1439 140c-75.09-1.313-135.91-14.948-213.31-13.172-60.86 1.396-120.06 7.344-181.5 7.076-52.409-.228-104.543-5.182-156.327-7.209-55.141-2.166-107.925-1.822-160.658 3.335-60.318 5.896-115 2.68-172.96-3.888-25.373-2.872-49.845-6.613-75.678-9.166-27.16-2.682-56.68-2.344-84.531-.706-64.345 3.79-121.995 15.654-186.96 18.048C138.373 136.85 66.394 123.952 0 131.415" stroke="url(#paint66_linear)" stroke-miterlimit="10"/><path opacity=".4" d="M1439 140c-75.22-1.277-136.01-14.903-213.51-13.096-60.87 1.423-120.27 7.215-181.68 6.906-52.421-.27-104.327-5.362-156.092-7.412-55.163-2.183-108.128-1.743-160.563 3.658-60.85 6.268-114.923 2.887-173.434-3.9-25.164-2.912-49.697-6.771-75.59-9.208-27.502-2.584-56.133-2.374-84.284-.674-64.456 3.894-121.788 15.691-186.985 18.24C138.247 137.204 65.956 123.61 0 131.416" stroke="url(#paint67_linear)" stroke-miterlimit="10"/><path opacity=".4" d="M1439 140c-75.29-1.246-135.97-15.028-213.55-13.144-60.86 1.479-120.34 7.207-181.86 6.871-52.436-.286-104.139-5.624-155.891-7.732-55.16-2.248-108.402-1.731-160.525 3.971-61.315 6.714-114.626 3.194-173.694-3.891-53.961-6.468-98.419-13.83-159.525-10.04-64.623 4.011-121.682 15.773-187.104 18.541C138.32 137.478 65.653 123.071 0 131.332" stroke="url(#paint68_linear)" stroke-miterlimit="10"/><defs><linearGradient id="paint0_linear" x1="720" y1="-2" x2="720" y2="140" gradientUnits="userSpaceOnUse"><stop stop-color="#554E40" stop-opacity=".63"/><stop offset="1" stop-color="#707070" stop-opacity="0"/></linearGradient><linearGradient id="paint1_linear" x1="720.499" y1="4" x2="720.499" y2="2" gradientUnits="userSpaceOnUse"><stop offset=".141" stop-color="#E9D1A2" stop-opacity=".433"/><stop offset=".802" stop-color="#E2B155" stop-opacity=".26"/></linearGradient><linearGradient id="paint2_linear" x1="720.499" y1="9" x2="720.499" y2="6" gradientUnits="userSpaceOnUse"><stop offset=".141" stop-color="#E9D1A2" stop-opacity=".433"/><stop offset=".802" stop-color="#E2B155" stop-opacity=".26"/></linearGradient><linearGradient id="paint3_linear" x1="720.499" y1="14" x2="720.499" y2="8" gradientUnits="userSpaceOnUse"><stop offset=".141" stop-color="#E9D1A2" stop-opacity=".433"/><stop offset=".802" stop-color="#E2B155" stop-opacity=".26"/></linearGradient><linearGradient id="paint4_linear" x1="720.499" y1="19" x2="720.499" y2="11" gradientUnits="userSpaceOnUse"><stop offset=".141" stop-color="#E9D1A2" stop-opacity=".433"/><stop offset=".802" stop-color="#E2B155" stop-opacity=".26"/></linearGradient><linearGradient id="paint5_linear" x1="720.499" y1="25" x2="720.499" y2="13" gradientUnits="userSpaceOnUse"><stop offset=".141" stop-color="#E9D1A2" stop-opacity=".433"/><stop offset=".802" stop-color="#E2B155" stop-opacity=".26"/></linearGradient><linearGradient id="paint6_linear" x1="720.499" y1="31" x2="720.499" y2="14" gradientUnits="userSpaceOnUse"><stop offset=".141" stop-color="#E9D1A2" stop-opacity=".433"/><stop offset=".802" stop-color="#E2B155" stop-opacity=".26"/></linearGradient><linearGradient id="paint7_linear" x1="720.499" y1="37" x2="720.499" y2="15" gradientUnits="userSpaceOnUse"><stop offset=".141" stop-color="#E9D1A2" stop-opacity=".433"/><stop offset=".802" stop-color="#E2B155" stop-opacity=".26"/></linearGradient><linearGradient id="paint8_linear" x1="720.499" y1="43" x2="720.499" y2="16" gradientUnits="userSpaceOnUse"><stop offset=".141" stop-color="#E9D1A2" stop-opacity=".433"/><stop offset=".802" stop-color="#E2B155" stop-opacity=".26"/></linearGradient><linearGradient id="paint9_linear" x1="720.501" y1="49" x2="720.501" y2="18" gradientUnits="userSpaceOnUse"><stop offset=".141" stop-color="#E9D1A2" stop-opacity=".433"/><stop offset=".802" stop-color="#E2B155" stop-opacity=".26"/></linearGradient><linearGradient id="paint10_linear" x1="720.5" y1="55" x2="720.5" y2="19" gradientUnits="userSpaceOnUse"><stop offset=".141" stop-color="#E9D1A2" stop-opacity=".433"/><stop offset=".802" stop-color="#E2B155" stop-opacity=".26"/></linearGradient><linearGradient id="paint11_linear" x1="720.5" y1="60" x2="720.5" y2="21" gradientUnits="userSpaceOnUse"><stop offset=".141" stop-color="#E9D1A2" stop-opacity=".433"/><stop offset=".802" stop-color="#E2B155" stop-opacity=".26"/></linearGradient><linearGradient id="paint12_linear" x1="720.501" y1="65" x2="720.501" y2="23" gradientUnits="userSpaceOnUse"><stop offset=".141" stop-color="#E9D1A2" stop-opacity=".433"/><stop offset=".802" stop-color="#E2B155" stop-opacity=".26"/></linearGradient><linearGradient id="paint13_linear" x1="720.5" y1="69" x2="720.5" y2="25" gradientUnits="userSpaceOnUse"><stop offset=".141" stop-color="#E9D1A2" stop-opacity=".433"/><stop offset=".802" stop-color="#E2B155" stop-opacity=".26"/></linearGradient><linearGradient id="paint14_linear" x1="720.501" y1="72" x2="720.501" y2="28" gradientUnits="userSpaceOnUse"><stop offset=".141" stop-color="#E9D1A2" stop-opacity=".433"/><stop offset=".802" stop-color="#E2B155" stop-opacity=".26"/></linearGradient><linearGradient id="paint15_linear" x1="720.501" y1="76" x2="720.501" y2="31" gradientUnits="userSpaceOnUse"><stop offset=".141" stop-color="#E9D1A2" stop-opacity=".433"/><stop offset=".802" stop-color="#E2B155" stop-opacity=".26"/></linearGradient><linearGradient id="paint16_linear" x1="720.5" y1="80" x2="720.5" y2="34" gradientUnits="userSpaceOnUse"><stop offset=".141" stop-color="#E9D1A2" stop-opacity=".433"/><stop offset=".802" stop-color="#E2B155" stop-opacity=".26"/></linearGradient><linearGradient id="paint17_linear" x1="720.501" y1="83" x2="720.501" y2="37" gradientUnits="userSpaceOnUse"><stop offset=".141" stop-color="#E9D1A2" stop-opacity=".433"/><stop offset=".802" stop-color="#E2B155" stop-opacity=".26"/></linearGradient><linearGradient id="paint18_linear" x1="720.5" y1="85" x2="720.5" y2="40" gradientUnits="userSpaceOnUse"><stop offset=".141" stop-color="#E9D1A2" stop-opacity=".433"/><stop offset=".802" stop-color="#E2B155" stop-opacity=".26"/></linearGradient><linearGradient id="paint19_linear" x1="720.501" y1="88" x2="720.501" y2="43" gradientUnits="userSpaceOnUse"><stop offset=".141" stop-color="#E9D1A2" stop-opacity=".433"/><stop offset=".802" stop-color="#E2B155" stop-opacity=".26"/></linearGradient><linearGradient id="paint20_linear" x1="720.5" y1="90" x2="720.5" y2="45" gradientUnits="userSpaceOnUse"><stop offset=".141" stop-color="#E9D1A2" stop-opacity=".433"/><stop offset=".802" stop-color="#E2B155" stop-opacity=".26"/></linearGradient><linearGradient id="paint21_linear" x1="720.5" y1="92" x2="720.5" y2="48" gradientUnits="userSpaceOnUse"><stop offset=".141" stop-color="#E9D1A2" stop-opacity=".433"/><stop offset=".802" stop-color="#E2B155" stop-opacity=".26"/></linearGradient><linearGradient id="paint22_linear" x1="720.499" y1="94" x2="720.499" y2="50" gradientUnits="userSpaceOnUse"><stop offset=".141" stop-color="#E9D1A2" stop-opacity=".433"/><stop offset=".802" stop-color="#E2B155" stop-opacity=".26"/></linearGradient><linearGradient id="paint23_linear" x1="720.5" y1="95" x2="720.5" y2="53" gradientUnits="userSpaceOnUse"><stop offset=".141" stop-color="#E9D1A2" stop-opacity=".433"/><stop offset=".802" stop-color="#E2B155" stop-opacity=".26"/></linearGradient><linearGradient id="paint24_linear" x1="720.5" y1="97" x2="720.5" y2="55" gradientUnits="userSpaceOnUse"><stop offset=".141" stop-color="#E9D1A2" stop-opacity=".433"/><stop offset=".802" stop-color="#E2B155" stop-opacity=".26"/></linearGradient><linearGradient id="paint25_linear" x1="720.5" y1="99" x2="720.5" y2="57" gradientUnits="userSpaceOnUse"><stop offset=".141" stop-color="#E9D1A2" stop-opacity=".433"/><stop offset=".802" stop-color="#E2B155" stop-opacity=".26"/></linearGradient><linearGradient id="paint26_linear" x1="720.5" y1="100" x2="720.5" y2="60" gradientUnits="userSpaceOnUse"><stop offset=".141" stop-color="#E9D1A2" stop-opacity=".433"/><stop offset=".802" stop-color="#E2B155" stop-opacity=".26"/></linearGradient><linearGradient id="paint27_linear" x1="720.5" y1="102" x2="720.5" y2="62" gradientUnits="userSpaceOnUse"><stop offset=".141" stop-color="#E9D1A2" stop-opacity=".433"/><stop offset=".802" stop-color="#E2B155" stop-opacity=".26"/></linearGradient><linearGradient id="paint28_linear" x1="720.5" y1="103" x2="720.5" y2="64" gradientUnits="userSpaceOnUse"><stop offset=".141" stop-color="#E9D1A2" stop-opacity=".433"/><stop offset=".802" stop-color="#E2B155" stop-opacity=".26"/></linearGradient><linearGradient id="paint29_linear" x1="720.5" y1="105" x2="720.5" y2="66" gradientUnits="userSpaceOnUse"><stop offset=".141" stop-color="#E9D1A2" stop-opacity=".433"/><stop offset=".802" stop-color="#E2B155" stop-opacity=".26"/></linearGradient><linearGradient id="paint30_linear" x1="720.5" y1="107" x2="720.5" y2="68" gradientUnits="userSpaceOnUse"><stop offset=".141" stop-color="#E9D1A2" stop-opacity=".433"/><stop offset=".802" stop-color="#E2B155" stop-opacity=".26"/></linearGradient><linearGradient id="paint31_linear" x1="720.5" y1="109" x2="720.5" y2="71" gradientUnits="userSpaceOnUse"><stop offset=".141" stop-color="#E9D1A2" stop-opacity=".433"/><stop offset=".802" stop-color="#E2B155" stop-opacity=".26"/></linearGradient><linearGradient id="paint32_linear" x1="720.5" y1="111" x2="720.5" y2="73" gradientUnits="userSpaceOnUse"><stop offset=".141" stop-color="#E9D1A2" stop-opacity=".433"/><stop offset=".802" stop-color="#E2B155" stop-opacity=".26"/></linearGradient><linearGradient id="paint33_linear" x1="720.501" y1="113" x2="720.501" y2="75" gradientUnits="userSpaceOnUse"><stop offset=".141" stop-color="#E9D1A2" stop-opacity=".433"/><stop offset=".802" stop-color="#E2B155" stop-opacity=".26"/></linearGradient><linearGradient id="paint34_linear" x1="720" y1="115" x2="720" y2="77" gradientUnits="userSpaceOnUse"><stop offset=".141" stop-color="#E9D1A2" stop-opacity=".433"/><stop offset=".802" stop-color="#E2B155" stop-opacity=".26"/></linearGradient><linearGradient id="paint35_linear" x1="719.499" y1="116.999" x2="719.499" y2="79" gradientUnits="userSpaceOnUse"><stop offset=".141" stop-color="#E9D1A2" stop-opacity=".433"/><stop offset=".802" stop-color="#E2B155" stop-opacity=".26"/></linearGradient><linearGradient id="paint36_linear" x1="719.499" y1="117.999" x2="719.499" y2="82" gradientUnits="userSpaceOnUse"><stop offset=".141" stop-color="#E9D1A2" stop-opacity=".433"/><stop offset=".802" stop-color="#E2B155" stop-opacity=".26"/></linearGradient><linearGradient id="paint37_linear" x1="719.501" y1="120" x2="719.501" y2="84" gradientUnits="userSpaceOnUse"><stop offset=".141" stop-color="#E9D1A2" stop-opacity=".433"/><stop offset=".802" stop-color="#E2B155" stop-opacity=".26"/></linearGradient><linearGradient id="paint38_linear" x1="719.5" y1="121" x2="719.5" y2="86" gradientUnits="userSpaceOnUse"><stop offset=".141" stop-color="#E9D1A2" stop-opacity=".433"/><stop offset=".802" stop-color="#E2B155" stop-opacity=".26"/></linearGradient><linearGradient id="paint39_linear" x1="719.5" y1="122" x2="719.5" y2="88" gradientUnits="userSpaceOnUse"><stop offset=".141" stop-color="#E9D1A2" stop-opacity=".433"/><stop offset=".802" stop-color="#E2B155" stop-opacity=".26"/></linearGradient><linearGradient id="paint40_linear" x1="719.499" y1="124.001" x2="719.499" y2="91" gradientUnits="userSpaceOnUse"><stop offset=".141" stop-color="#E9D1A2" stop-opacity=".433"/><stop offset=".802" stop-color="#E2B155" stop-opacity=".26"/></linearGradient><linearGradient id="paint41_linear" x1="719.5" y1="125" x2="719.5" y2="93" gradientUnits="userSpaceOnUse"><stop offset=".141" stop-color="#E9D1A2" stop-opacity=".433"/><stop offset=".802" stop-color="#E2B155" stop-opacity=".26"/></linearGradient><linearGradient id="paint42_linear" x1="719.5" y1="126" x2="719.5" y2="95" gradientUnits="userSpaceOnUse"><stop offset=".141" stop-color="#E9D1A2" stop-opacity=".433"/><stop offset=".802" stop-color="#E2B155" stop-opacity=".26"/></linearGradient><linearGradient id="paint43_linear" x1="719.5" y1="126.999" x2="719.5" y2="97" gradientUnits="userSpaceOnUse"><stop offset=".141" stop-color="#E9D1A2" stop-opacity=".433"/><stop offset=".802" stop-color="#E2B155" stop-opacity=".26"/></linearGradient><linearGradient id="paint44_linear" x1="719.5" y1="128" x2="719.5" y2="99" gradientUnits="userSpaceOnUse"><stop offset=".141" stop-color="#E9D1A2" stop-opacity=".433"/><stop offset=".802" stop-color="#E2B155" stop-opacity=".26"/></linearGradient><linearGradient id="paint45_linear" x1="719.5" y1="128" x2="719.5" y2="102" gradientUnits="userSpaceOnUse"><stop offset=".141" stop-color="#E9D1A2" stop-opacity=".433"/><stop offset=".802" stop-color="#E2B155" stop-opacity=".26"/></linearGradient><linearGradient id="paint46_linear" x1="719.5" y1="129" x2="719.5" y2="104" gradientUnits="userSpaceOnUse"><stop offset=".141" stop-color="#E9D1A2" stop-opacity=".433"/><stop offset=".802" stop-color="#E2B155" stop-opacity=".26"/></linearGradient><linearGradient id="paint47_linear" x1="719.501" y1="130.001" x2="719.501" y2="105" gradientUnits="userSpaceOnUse"><stop offset=".141" stop-color="#E9D1A2" stop-opacity=".433"/><stop offset=".802" stop-color="#E2B155" stop-opacity=".26"/></linearGradient><linearGradient id="paint48_linear" x1="719.5" y1="130" x2="719.5" y2="107" gradientUnits="userSpaceOnUse"><stop offset=".141" stop-color="#E9D1A2" stop-opacity=".433"/><stop offset=".802" stop-color="#E2B155" stop-opacity=".26"/></linearGradient><linearGradient id="paint49_linear" x1="719.5" y1="130.999" x2="719.5" y2="108" gradientUnits="userSpaceOnUse"><stop offset=".141" stop-color="#E9D1A2" stop-opacity=".433"/><stop offset=".802" stop-color="#E2B155" stop-opacity=".26"/></linearGradient><linearGradient id="paint50_linear" x1="719.501" y1="131" x2="719.501" y2="110" gradientUnits="userSpaceOnUse"><stop offset=".141" stop-color="#E9D1A2" stop-opacity=".433"/><stop offset=".802" stop-color="#E2B155" stop-opacity=".26"/></linearGradient><linearGradient id="paint51_linear" x1="719.5" y1="132" x2="719.5" y2="111" gradientUnits="userSpaceOnUse"><stop offset=".141" stop-color="#E9D1A2" stop-opacity=".433"/><stop offset=".802" stop-color="#E2B155" stop-opacity=".26"/></linearGradient><linearGradient id="paint52_linear" x1="719.5" y1="131.999" x2="719.5" y2="112.001" gradientUnits="userSpaceOnUse"><stop offset=".141" stop-color="#E9D1A2" stop-opacity=".433"/><stop offset=".802" stop-color="#E2B155" stop-opacity=".26"/></linearGradient><linearGradient id="paint53_linear" x1="719.5" y1="132.001" x2="719.5" y2="112.001" gradientUnits="userSpaceOnUse"><stop offset=".141" stop-color="#E9D1A2" stop-opacity=".433"/><stop offset=".802" stop-color="#E2B155" stop-opacity=".26"/></linearGradient><linearGradient id="paint54_linear" x1="719.501" y1="132.999" x2="719.501" y2="113" gradientUnits="userSpaceOnUse"><stop offset=".141" stop-color="#E9D1A2" stop-opacity=".433"/><stop offset=".802" stop-color="#E2B155" stop-opacity=".26"/></linearGradient><linearGradient id="paint55_linear" x1="719.5" y1="133" x2="719.5" y2="113.999" gradientUnits="userSpaceOnUse"><stop offset=".141" stop-color="#E9D1A2" stop-opacity=".433"/><stop offset=".802" stop-color="#E2B155" stop-opacity=".26"/></linearGradient><linearGradient id="paint56_linear" x1="719.5" y1="134" x2="719.5" y2="114" gradientUnits="userSpaceOnUse"><stop offset=".141" stop-color="#E9D1A2" stop-opacity=".433"/><stop offset=".802" stop-color="#E2B155" stop-opacity=".26"/></linearGradient><linearGradient id="paint57_linear" x1="719.5" y1="135" x2="719.5" y2="114" gradientUnits="userSpaceOnUse"><stop offset=".141" stop-color="#E9D1A2" stop-opacity=".433"/><stop offset=".802" stop-color="#E2B155" stop-opacity=".26"/></linearGradient><linearGradient id="paint58_linear" x1="719.501" y1="136" x2="719.501" y2="115" gradientUnits="userSpaceOnUse"><stop offset=".141" stop-color="#E9D1A2" stop-opacity=".433"/><stop offset=".802" stop-color="#E2B155" stop-opacity=".26"/></linearGradient><linearGradient id="paint59_linear" x1="719.501" y1="137" x2="719.501" y2="115" gradientUnits="userSpaceOnUse"><stop offset=".141" stop-color="#E9D1A2" stop-opacity=".433"/><stop offset=".802" stop-color="#E2B155" stop-opacity=".26"/></linearGradient><linearGradient id="paint60_linear" x1="719.5" y1="137" x2="719.5" y2="114.999" gradientUnits="userSpaceOnUse"><stop offset=".141" stop-color="#E9D1A2" stop-opacity=".433"/><stop offset=".802" stop-color="#E2B155" stop-opacity=".26"/></linearGradient><linearGradient id="paint61_linear" x1="719.5" y1="138" x2="719.5" y2="115" gradientUnits="userSpaceOnUse"><stop offset=".141" stop-color="#E9D1A2" stop-opacity=".433"/><stop offset=".802" stop-color="#E2B155" stop-opacity=".26"/></linearGradient><linearGradient id="paint62_linear" x1="719.5" y1="138" x2="719.5" y2="115" gradientUnits="userSpaceOnUse"><stop offset=".141" stop-color="#E9D1A2" stop-opacity=".433"/><stop offset=".802" stop-color="#E2B155" stop-opacity=".26"/></linearGradient><linearGradient id="paint63_linear" x1="719.5" y1="139" x2="719.5" y2="115" gradientUnits="userSpaceOnUse"><stop offset=".141" stop-color="#E9D1A2" stop-opacity=".433"/><stop offset=".802" stop-color="#E2B155" stop-opacity=".26"/></linearGradient><linearGradient id="paint64_linear" x1="719.5" y1="139" x2="719.5" y2="115" gradientUnits="userSpaceOnUse"><stop offset=".141" stop-color="#E9D1A2" stop-opacity=".433"/><stop offset=".802" stop-color="#E2B155" stop-opacity=".26"/></linearGradient><linearGradient id="paint65_linear" x1="719.5" y1="140" x2="719.5" y2="114.999" gradientUnits="userSpaceOnUse"><stop offset=".141" stop-color="#E9D1A2" stop-opacity=".433"/><stop offset=".802" stop-color="#E2B155" stop-opacity=".26"/></linearGradient><linearGradient id="paint66_linear" x1="719.5" y1="140" x2="719.5" y2="115" gradientUnits="userSpaceOnUse"><stop offset=".141" stop-color="#E9D1A2" stop-opacity=".433"/><stop offset=".802" stop-color="#E2B155" stop-opacity=".26"/></linearGradient><linearGradient id="paint67_linear" x1="719.5" y1="140" x2="719.5" y2="115" gradientUnits="userSpaceOnUse"><stop offset=".141" stop-color="#E9D1A2" stop-opacity=".433"/><stop offset=".802" stop-color="#E2B155" stop-opacity=".26"/></linearGradient><linearGradient id="paint68_linear" x1="719.5" y1="140" x2="719.5" y2="115" gradientUnits="userSpaceOnUse"><stop offset=".141" stop-color="#E6B14A" stop-opacity=".433"/><stop offset=".802" stop-color="#E2B155" stop-opacity=".26"/></linearGradient></defs></svg>