<svg width="39" height="39" fill="none" xmlns="http://www.w3.org/2000/svg"><path d="M34.547 9.467a12.73 12.73 0 01-3.656.982 6.332 6.332 0 002.792-3.499 12.531 12.531 0 01-4.028 1.534 6.332 6.332 0 00-4.638-2.007 6.346 6.346 0 00-6.347 6.351c0 .491.06.983.156 1.456A18.04 18.04 0 015.737 7.639a6.303 6.303 0 00-.863 3.205 6.351 6.351 0 002.829 5.29 6.403 6.403 0 01-2.87-.808v.078a6.349 6.349 0 005.089 6.232 6.724 6.724 0 01-1.672.216c-.413 0-.804-.041-1.199-.097a6.359 6.359 0 005.934 4.404 12.722 12.722 0 01-7.88 2.713 12.97 12.97 0 01-1.534-.078 17.975 17.975 0 009.75 2.848c11.673 0 18.061-9.671 18.061-18.066 0-.275 0-.55-.018-.826a13.673 13.673 0 003.183-3.283z" fill="#D6C098"/></svg>