<svg width="39" height="39" fill="none" xmlns="http://www.w3.org/2000/svg"><path d="M33 4.17H5.6a1.19 1.19 0 00-1.19 1.19v27.4a1.19 1.19 0 001.191 1.19H33a1.19 1.19 0 001.192-1.19V5.36A1.19 1.19 0 0033 4.17zM13.243 29.545h-4.42V15.333h4.42v14.213zM11.036 13.39a2.561 2.561 0 110-5.123 2.561 2.561 0 010 5.123zm18.75 16.156h-4.414v-6.913c0-1.649-.03-3.767-2.297-3.767-2.297 0-2.65 1.794-2.65 3.648v7.032h-4.412V15.333h4.236v1.943h.06c.588-1.116 2.029-2.296 4.18-2.296 4.475 0 5.298 2.944 5.298 6.771v7.795z" fill="#D6C098"/></svg>