<svg width="40" height="40" fill="none" xmlns="http://www.w3.org/2000/svg"><path d="M37.336 8H2.664A2.669 2.669 0 000 10.667a2.669 2.669 0 002.664 2.666h34.672A2.669 2.669 0 0040 10.667 2.668 2.668 0 0037.336 8zm0 4H2.664a1.333 1.333 0 010-2.667h34.672a1.334 1.334 0 010 2.667zm0 5.333H2.664A2.669 2.669 0 000 20a2.669 2.669 0 002.664 2.667h34.672A2.669 2.669 0 0040 20a2.668 2.668 0 00-2.664-2.667zm0 4H2.664a1.333 1.333 0 010-2.666h34.672a1.333 1.333 0 010 2.666zm0 5.334H2.664A2.669 2.669 0 000 29.333 2.669 2.669 0 002.664 32h34.672A2.669 2.669 0 0040 29.333a2.668 2.668 0 00-2.664-2.666zm0 4H2.664a1.334 1.334 0 010-2.667h34.672a1.334 1.334 0 010 2.667z" fill="#FFC14C"/></svg>