<svg width="1440" height="126" fill="none" xmlns="http://www.w3.org/2000/svg"><g opacity=".4" stroke-miterlimit="10"><path opacity=".4" d="M1618 0H1.168" stroke="url(#paint0_linear)"/><path opacity=".4" d="M1618 3.506c-272.91-.026-545.68.601-818.523 1.31-118.051.309-236.91.208-354.95-.443-147.761-.813-295.588-.047-443.315-.867" stroke="url(#paint1_linear)"/><path opacity=".4" d="M1618 6.96c-77.33 0-154.67-.125-232-.063-69.09.054-138.03 1.23-207.11 1.432-128.67.377-257.319-.061-385.98.384-114.2.396-229.579 1.445-343.7-.155-66.515-.943-132.345-1.372-198.915-1.76-83.087-.486-166.073.831-249.127.162" stroke="url(#paint2_linear)"/><path opacity=".4" d="M1618 10.367c-76.21 0-152.64-.268-228.83.022-71.6.273-142.78 2.189-214.33 2.681-128.92.889-256.828-1.65-385.613-1.197-113.324.391-225.043 3.568-338.49.726-66.312-1.661-130.57-2.962-197.366-3.341-84.21-.471-168.004 1.821-252.203 1.11" stroke="url(#paint3_linear)"/><path opacity=".4" d="M1618 13.709c-74.84 0-150.22-.429-225 .162-74.78.592-148.49 3.313-223.05 4.192-67.77.8-134.58.585-201.996-1.154-60.418-1.56-119.106-2.686-180.018-2.517-53.389.151-103.41 1.852-156.136 3.438-60.34 1.817-122.465.969-182.243-1.345-65.796-2.55-127.852-4.989-195.041-5.267-84.749-.353-168.543 3.101-253.348 2.49" stroke="url(#paint4_linear)"/><path opacity=".4" d="M1618 17.003c-73.22 0-147.54-.578-220.64.346-78.1.985-154.89 4.552-232.82 5.89-66.91 1.165-134.27.367-200.134-2.37-58.801-2.408-115.648-4.56-175.752-4.46-55.657.092-106.014 3.049-160.043 5.44-61.328 2.715-122.015 1.685-182.41-1.607-64.73-3.534-124.485-7.342-192.134-7.443-84.895-.13-167.858 4.6-252.899 4.201" stroke="url(#paint5_linear)"/><path opacity=".4" d="M1618 20.245c-71.49.014-144.73-.707-215.97.554-81.78 1.435-161.68 5.862-243.17 7.712-68.38 1.55-131.57.108-197.519-3.787-56.466-3.336-111.158-6.677-170.385-6.684-58.565 0-110.664 4.441-166.241 7.684-63.316 3.692-121.701 2.617-183.567-1.843-62.967-4.538-120.78-9.896-188.799-9.779-84.771.16-166.174 6.252-251.181 6.143" stroke="url(#paint6_linear)"/><path opacity=".4" d="M1618 23.435c-69.68.021-141.82-.78-211.08.77-85.55 1.914-168.43 7.197-253.65 9.581-69.34 1.94-129.52-.134-194.41-5.323-53.535-4.28-106.116-8.92-164.378-9.067-61.574-.155-117.085 5.945-174.034 10.052-65.762 4.743-121.913 3.735-185.463-2.045-60.52-5.504-116.952-12.57-185.263-12.175-84.468.49-163.726 7.981-248.53 8.207" stroke="url(#paint7_linear)"/><path opacity=".4" d="M1618 26.574c-67.89.028-138.91-.825-206.3.982-89.2 2.392-175.08 8.504-263.86 11.421-70.74 2.326-127.51-.337-191.023-6.892-50.234-5.184-100.692-11.17-158.146-11.487-64.583-.35-124.553 7.573-182.814 12.444-30.518 2.538-62.686 4.915-95.954 4.368-32.562-.537-63.394-3.414-91.868-6.597-57.398-6.402-113.314-15.215-181.613-14.54-84.097.831-160.706 9.716-245.264 10.294" stroke="url(#paint8_linear)"/><path opacity=".4" d="M1617.94 29.658c-66.23.035-136.1-.839-201.64 1.178-92.61 2.842-181.18 9.743-273.24 13.165-72.36 2.69-125.85-.512-187.645-8.417-46.854-5.994-95.202-13.32-152.139-13.817-67.368-.587-132.49 9.201-191.864 14.74-31.101 2.904-65.403 5.965-100.142 5.29-32.562-.63-63.068-4.08-90.296-7.657-54.288-7.135-109.63-17.727-178.098-16.782-83.739 1.16-157.394 11.395-241.728 12.3" stroke="url(#paint9_linear)"/><path opacity=".4" d="M1617.93 32.688c-64.66.043-133.49-.831-197.36 1.334-95.62 3.245-186.57 10.874-281.5 14.753-36.13 1.475-70.39 2.328-105.79-.26-28.85-2.108-54.222-5.81-78.7-9.552-43.788-6.69-90.014-15.268-146.816-15.94-69.838-.827-140.194 10.735-200.532 16.84-31.641 3.202-68.054 6.911-104.117 6.127-32.708-.707-62.81-4.682-88.87-8.608-51.401-7.738-106.082-19.986-174.921-18.8C155.889 20.021 85.287 31.523 1.1 32.7" stroke="url(#paint10_linear)"/><path opacity=".4" d="M1617.92 35.67c-63.3.044-131.19-.826-193.61 1.439-98.03 3.558-190.7 11.843-288.02 16.086-36.27 1.581-70.42 2.561-105.65-.374-28.57-2.397-52.926-6.508-76.213-10.618-41.218-7.264-85.512-16.92-142.595-17.733-36.48-.52-73.162 3.473-104.668 6.854-34.953 3.751-68.557 8.026-103.499 11.782-32.112 3.45-70.288 7.681-107.565 6.797-32.942-.78-62.573-5.16-87.701-9.377-49.044-8.247-102.692-21.88-172.193-20.5-83.289 1.65-150.937 14.298-235.114 15.653" stroke="url(#paint11_linear)"/><path opacity=".4" d="M1617.91 38.596c-62.17.045-129.35-.827-190.55 1.48-99.77 3.758-193.52 12.608-292.47 17.115-36.09 1.65-70.51 2.703-105.37-.443-28.54-2.575-52.166-7.04-74.611-11.432-39.5-7.726-82.121-18.184-139.9-19.086-37.479-.58-75.227 3.747-107.228 7.323-36.12 4.041-70.736 8.64-106.856 12.687-32.561 3.65-71.859 8.213-110.135 7.283-33.291-.81-62.418-5.465-86.861-9.925-47.528-8.669-99.535-23.28-170.148-21.807-83.29 1.736-148.356 15.4-232.7 16.795" stroke="url(#paint12_linear)"/><path opacity=".4" d="M1617.89 41.47c-61.29.038-128.06-.85-188.36 1.438-100.62 3.817-194.63 13.131-294.33 17.761-35.61 1.65-70.66 2.724-105.03-.443-28.78-2.65-52.076-7.356-74.105-11.934-38.871-8.092-80.235-18.968-139.227-19.845-38.31-.57-76.159 3.8-108.608 7.54-36.884 4.242-72.14 9.077-109.013 13.323-32.976 3.798-72.442 8.435-111.505 7.511-33.684-.796-62.316-5.534-86.455-10.186-47.158-9.083-96.684-24.064-168.948-22.606C148.806 25.714 85.705 40.22 1.013 41.466" stroke="url(#paint13_linear)"/><path opacity=".4" d="M1617.87 44.297c-61.06.08-127.61-.918-187.66 1.414-99.93 3.89-192.74 13.483-291.65 18.221-35.51 1.7-70.54 2.717-104.89-.412-29.19-2.665-52.948-7.427-75.304-12.062-39.589-8.209-81.391-19.225-141.158-20.252-38.579-.662-76.204 3.655-108.799 7.453-36.94 4.307-72.129 9.236-109.057 13.546-33.134 3.87-72.399 8.443-111.753 7.453-33.908-.853-62.371-5.6-86.556-10.304-47.348-9.21-95.932-23.994-168.768-22.62-83.739 1.574-146.188 16.475-231.23 17.563" stroke="url(#paint14_linear)"/><path opacity=".4" d="M1617.86 47.062c-61.32.146-127.67-1.115-187.93 1.38-98.16 4.065-188.87 13.815-285.99 18.721-35.93 1.817-70.04 2.762-104.88-.389-29.72-2.683-54.318-7.396-77.493-11.99-40.903-8.12-84.468-19.247-144.235-20.649-38.343-.9-76.103 3.429-108.417 7.225-36.491 4.286-71.151 9.22-107.631 13.51-33.067 3.89-72.331 8.429-111.63 7.253-33.807-1.01-62.684-5.827-87.207-10.478-47.596-9.025-97.583-23.53-169.543-22.196-83.94 1.557-146.592 16.543-231.835 17.613" stroke="url(#paint15_linear)"/><path opacity=".4" d="M1617.84 49.779c-61.67.174-127.84-1.438-188.47 1.204-96.16 4.19-184.51 14.067-279.58 19.085-36.23 1.918-69.54 2.774-104.78-.337-30.18-2.664-55.768-7.254-79.806-11.814-42.274-8.011-87.847-19.097-147.558-20.839-37.996-1.11-75.464 3.13-107.487 6.909-35.872 4.241-69.804 9.145-105.654 13.383-32.966 3.898-71.86 8.306-110.977 6.963-33.842-1.164-63.237-6.001-88.309-10.603-48.224-8.836-99.85-22.978-171.261-21.663-84.311 1.55-147.31 16.632-232.924 17.697" stroke="url(#paint16_linear)"/><path opacity=".4" d="M1617.82 52.444c-62.1.167-128.24-1.871-189.29.904-93.95 4.267-179.73 14.246-272.58 19.352-36.37 2-69.05 2.752-104.58-.268-30.72-2.611-57.262-7.07-82.234-11.546-44.036-7.867-91.205-18.794-151.083-20.855-37.547-1.291-74.352 2.764-106.06 6.517-35.087 4.157-68.155 9.018-103.219 13.179-32.842 3.9-70.984 8.089-109.866 6.597-33.998-1.307-63.999-6.126-89.823-10.664-49.19-8.64-102.658-22.35-173.687-21.042C150.57 36.181 87.088 51.364.958 52.437" stroke="url(#paint17_linear)"/><path opacity=".4" d="M1617.81 55.057c-62.61.132-128.72-2.397-190.33.5-91.59 4.304-174.65 14.372-265.1 19.507-36.35 2.069-68.58 2.712-104.29-.177-31.27-2.53-58.742-6.833-84.735-11.173-46.035-7.689-94.64-18.353-154.744-20.712-72.532-2.849-145.829 11.977-204.608 18.966-32.717 3.892-69.827 7.792-108.372 6.159-34.268-1.454-64.898-6.225-91.609-10.695-50.437-8.438-105.903-21.657-176.751-20.342C151.814 38.673 87.725 53.968.978 55.057" stroke="url(#paint18_linear)"/><path opacity=".4" d="M1617.78 57.615c-63.15.073-129.28-2.997-191.52 0-89.15 4.308-169.33 14.423-257.25 19.574-36.24 2.12-68.16 2.649-103.97-.073-31.84-2.425-60.27-6.536-87.284-10.74-48.033-7.47-98.088-17.778-158.495-20.429-71.432-3.129-141.573 11.268-199.263 18.144-31.898 3.796-69.086 7.622-106.575 5.666-34.807-1.814-65.472-6.213-93.698-10.69-51.885-8.223-109.484-20.907-180.333-19.578C153.206 41.103 88.432 56.513.954 57.632" stroke="url(#paint19_linear)"/><path opacity=".4" d="M1617.76 60.125c-63.75 0-129.94-3.66-192.89-.551-86.6 4.276-163.84 14.434-249.17 19.556-148.22 8.905-225.529-23.967-355.718-30.259-70.175-3.395-136.769 10.483-193.415 17.22-31.753 3.77-67.503 7.203-104.521 5.137-35.245-1.968-66.627-6.27-95.988-10.662-53.502-8.012-113.335-20.118-184.331-18.768-86.982 1.65-152.52 17.18-240.806 18.327" stroke="url(#paint20_linear)"/><path opacity=".4" d="M1617.74 62.58c-64.37-.099-130.67-4.359-194.36-1.16-84.03 4.221-158.32 14.402-240.99 19.48-145.15 8.912-233.546-22.384-361.636-29.126-68.962-3.633-131.558 9.63-187.17 16.237-31.618 3.756-65.808 6.737-102.299 4.577-35.716-2.121-67.895-6.315-98.436-10.615-55.218-7.776-117.332-19.3-188.63-17.92C156.383 45.752 90.025 61.395.886 62.58" stroke="url(#paint21_linear)"/><path opacity=".4" d="M1617.72 64.983c-65.01-.2-131.44-5.082-195.94-1.802-81.45 4.142-152.7 14.335-232.81 19.345-142.07 8.885-241.405-20.7-367.417-27.891-67.728-3.865-126.068 8.746-180.703 15.223-31.505 3.735-63.999 6.237-99.929 4.006-36.21-2.26-69.221-6.362-100.974-10.556-56.993-7.54-121.397-18.464-193.053-17.052C158.193 48.006 90.959 63.767.934 64.993" stroke="url(#paint22_linear)"/><path opacity=".4" d="M1617.7 67.335c-65.65-.304-132.27-5.81-197.62-2.463-78.93 4.049-147.24 14.246-224.77 19.171-139.05 8.834-249.003-18.975-372.949-26.598-66.503-4.09-120.465 7.85-174.168 14.202-31.371 3.71-62.281 5.72-97.617 3.41-36.715-2.404-70.59-6.403-103.532-10.493-58.779-7.305-125.451-17.625-197.557-16.178C159.854 50.186 91.79 66.058.865 67.335" stroke="url(#paint23_linear)"/><path opacity=".4" d="M1617.67 69.632c-66.25-.405-133.09-6.522-199.19-3.117-76.51 3.942-141.94 14.138-216.99 18.965-136.3 8.766-256.45-17.233-378.387-25.282-65.29-4.312-114.862 6.955-167.69 13.195-31.236 3.687-60.631 5.205-95.292 2.827-37.221-2.55-71.949-6.456-106.071-10.433-60.508-7.055-129.402-16.793-202.002-15.316C161.516 52.321 92.611 68.322.799 69.628" stroke="url(#paint24_linear)"/><path opacity=".4" d="M1617.65 71.88c-66.91-.502-133.91-7.205-200.83-3.753-74.19 3.829-136.86 14.017-209.58 18.742-133.68 8.685-263.447-15.51-383.34-23.985-64.202-4.538-109.338 6.105-161.436 12.22-31.135 3.652-58.992 4.712-93.069 2.266-37.703-2.695-73.273-6.524-108.507-10.386-62.17-6.812-133.187-15.978-206.292-14.463C163.211 54.418 93.497 70.535.844 71.881" stroke="url(#paint25_linear)"/><path opacity=".4" d="M1617.63 74.074c-67.53-.585-134.74-7.84-202.39-4.352-72.09 3.713-132.16 13.902-202.71 18.515-68.43 4.477-141.23-.577-205.16-5.978-61.636-5.21-120.235-12.043-182.797-16.767-63.394-4.788-103.826 5.353-155.531 11.31-68.658 7.905-138.98-2.12-201.822-8.621-63.675-6.579-136.69-15.198-210.278-13.65C164.748 56.468 94.27 72.698.797 74.076" stroke="url(#paint26_linear)"/><path opacity=".4" d="M1617.6 76.218c-68.16-.653-135.37-8.41-203.89-4.896-70.16 3.6-127.85 13.782-196.49 18.294-67.81 4.463-142.53-.384-206.76-5.33-62.886-4.844-122.742-11.242-185.293-16.275-62.551-5.033-99.087 4.611-150.13 10.483-67.098 7.717-140.35-3.063-202.104-9.107-65.01-6.362-139.878-14.458-213.87-12.889C166.151 58.471 94.977 74.81.819 76.219" stroke="url(#paint27_linear)"/><path opacity=".4" d="M1617.58 78.308c-68.8-.707-135.96-8.897-205.28-5.363-68.48 3.49-124.04 13.667-190.87 18.092-67.29 4.441-143.72-.208-208.24-4.743-63.998-4.503-125.056-10.516-187.507-15.858-29.461-2.519-51.053-2.623-79.538.627-23.152 2.641-42.734 6.477-65.852 9.137-30.843 3.554-55.41 3.455-87.714.813-38.815-3.178-76.631-6.833-114.716-10.384-66.1-6.145-142.595-13.77-216.925-12.187C167.386 60.437 95.618 76.883.786 78.309" stroke="url(#paint28_linear)"/><path opacity=".4" d="M1617.56 80.349c-69.44-.707-136.4-9.288-206.53-5.742-67.12 3.395-120.79 13.61-186.26 17.921-66.95 4.41-144.78-.047-209.56-4.24-64.771-4.195-126.962-9.897-189.211-15.552-28.766-2.613-49.796-2.983-78.035.25-22.387 2.563-41.071 6.347-63.404 8.93-30.675 3.548-54.859 3.171-86.601.443-39.006-3.353-77.406-7-116.21-10.453-66.929-5.952-144.919-13.152-219.361-11.564C168.319 62.347 96.068 78.892.776 80.328" stroke="url(#paint29_linear)"/><path opacity=".4" d="M1617.54 82.333c-70.1-.688-136.67-9.567-207.59-6.011-66.12 3.32-118.11 13.612-182.69 17.797-66.84 4.338-145.52.085-210.7-3.81-65.705-3.924-128.436-9.388-190.426-15.354-28.183-2.71-48.976-3.28-77.002-.047-21.783 2.51-39.713 6.27-61.429 8.803-30.528 3.56-54.691 2.983-85.949.15-39.063-3.534-77.912-7.19-117.31-10.57-67.368-5.78-146.66-12.608-221.046-11.031C168.96 64.261 96.36 80.901.663 82.333" stroke="url(#paint30_linear)"/><path opacity=".4" d="M1617.51 84.267c-70.73-.624-136.73-9.717-208.43-6.152-65.44 3.254-116.31 13.59-180.11 17.726-66.64 4.317-146.34.156-211.69-3.496-66.382-3.712-129.393-9.027-191.09-15.316-27.722-2.828-48.629-3.511-76.508-.257-21.333 2.49-38.703 6.253-60.002 8.768-30.417 3.59-54.917 2.912-85.805-.05-38.984-3.737-78.124-7.42-117.961-10.742-67.57-5.634-147.783-12.156-221.865-10.603C169.386 66.126 96.606 82.855.685 84.267" stroke="url(#paint31_linear)"/><path opacity=".4" d="M1617.48 86.152c-71.09-.56-136.63-9.753-208.78-6.155-65.21 3.252-115.77 13.58-179.37 17.691-66.58 4.303-146.64.057-212.01-3.518-66.612-3.642-129.421-8.918-191.198-15.235-27.62-2.828-48.819-3.417-76.508-.184-21.187 2.474-38.444 6.204-59.631 8.685-30.316 3.549-55.265 2.889-85.861-.158-38.815-3.864-78.001-7.575-118.006-10.865-67.244-5.53-148.501-11.979-222.011-10.367C169.577 68.115 96.325 84.56.652 86.145" stroke="url(#paint32_linear)"/><path opacity=".4" d="M1617.46 88.006c-71.25-.532-136.6-9.785-208.91-6.145-65.12 3.28-115.94 13.52-179.58 17.606-66.57 4.275-146.46-.158-211.72-3.756-66.406-3.661-128.946-8.928-191.15-14.946-58.879-5.695-88.061 3.064-136.554 8.525-30.316 3.415-55.422 2.793-85.737-.266-38.647-3.9-77.765-7.601-117.76-10.853-66.851-5.433-149.164-11.913-222.146-10.165C169.779 70.263 95.629 86.041.595 87.971" stroke="url(#paint33_linear)"/><path opacity=".4" d="M1617.44 89.833c-71.47-.514-136.66-9.835-209.2-6.164-65.11 3.299-116.14 13.43-179.81 17.479-66.56 4.241-146.22-.361-211.39-3.97-66.142-3.665-128.446-8.907-191.008-14.621-58.387-5.335-88.612 3.268-137.14 8.482-30.315 3.266-55.645 2.663-85.692-.4-38.467-3.921-77.473-7.595-117.455-10.79-66.582-5.323-149.715-11.734-222.09-9.868C170.002 72.394 94.943 87.486.605 89.722" stroke="url(#paint34_linear)"/><path opacity=".4" d="M1617.42 91.626c-71.72-.5-136.81-9.897-209.61-6.21-65.04 3.295-116.37 13.311-180.09 17.317-66.56 4.171-145.96-.546-211-4.159-65.832-3.652-128-8.855-190.787-14.253-57.971-4.979-89.229 3.433-137.88 8.405-30.395 3.103-55.916 2.5-85.737-.56-38.254-3.929-77.182-7.56-117.096-10.68C418.805 76.292 335.168 70.038 263.286 72 170.094 74.543 94.17 88.925.551 91.437" stroke="url(#paint35_linear)"/><path opacity=".4" d="M1617.39 93.389c-72.02-.495-136.98-9.965-210.16-6.275-64.98 3.275-116.62 13.178-180.4 17.104-66.54 4.097-145.53-.726-210.55-4.326-65.472-3.629-127.45-8.777-190.496-13.85-57.532-4.63-89.891 3.56-138.767 8.263-30.494 2.936-56.218 2.312-85.849-.74-37.954-3.948-76.902-7.46-116.669-10.523-66.359-5.052-150.232-11.074-221.698-9.022C170.215 76.666 93.36 90.323.561 93.073" stroke="url(#paint36_linear)"/><path opacity=".4" d="M1617.36 95.118c-72.34-.495-137.29-10.047-210.81-6.362-64.94 3.25-116.93 13.021-180.78 16.866-66.52 4.006-145.18-.893-210.07-4.477-65.125-3.59-126.935-8.668-190.126-13.412-57.106-4.288-90.633 3.66-139.8 8.078-30.642 2.754-56.556 2.094-86.018-.943-37.726-3.921-76.532-7.368-116.21-10.323-66.39-4.894-150.253-10.589-221.337-8.482C170.218 78.789 92.486 91.699.495 94.663" stroke="url(#paint37_linear)"/><path opacity=".4" d="M1617.34 96.81c-72.72-.498-137.65-10.132-211.59-6.475-64.89 3.209-117.25 12.839-181.12 16.592-66.5 3.907-144.73-1.051-209.58-4.604-64.635-3.534-126.423-8.532-189.681-12.938-56.702-3.952-91.464 3.725-140.967 7.844-30.81 2.564-56.927 1.854-86.266-1.178-37.468-3.884-76.099-7.254-115.648-10.087C415.985 81.25 332.382 75.935 261.6 78.09 170.249 80.871 91.676 93.021.516 96.166" stroke="url(#paint38_linear)"/><path opacity=".4" d="M1617.31 98.468c-73.12-.509-138.11-10.235-212.47-6.597-64.85 3.153-117.58 12.629-181.52 16.282-66.46 3.793-144.26-1.2-208.96-4.713-64.192-3.487-125.912-8.372-189.192-12.439-56.309-3.617-92.373 3.77-142.248 7.573-31 2.357-57.318 1.593-86.567-1.413-37.221-3.838-75.691-7.118-115.121-9.814-66.717-4.531-149.849-9.397-220.372-7.203C170.171 82.97 90.79 94.33.483 97.639" stroke="url(#paint39_linear)"/><path opacity=".4" d="M1617.29 100.089c-73.56-.522-138.54-10.343-213.45-6.755-64.8 3.106-117.95 12.422-181.96 15.961-66.4 3.669-143.72-1.34-208.33-4.809-63.74-3.423-125.404-8.185-188.63-11.908-55.926-3.299-93.372 3.786-143.64 7.262-31.213 2.156-57.734 1.31-86.915-1.65-36.96-3.78-75.248-6.959-114.526-9.51-66.975-4.323-149.433-8.687-219.755-6.467C170.07 85.04 89.936 95.62.483 99.065" stroke="url(#paint40_linear)"/><path opacity=".4" d="M1617.27 101.671c-74.02-.542-139.06-10.458-214.46-6.918-64.83 3.032-118.4 12.189-182.49 15.605-66.32 3.535-143.11-1.472-207.71-4.889-63.274-3.351-124.893-7.976-188.05-11.353-55.545-2.97-94.45 3.784-145.133 6.916-31.439 1.942-58.15 1.013-87.309-1.932-36.691-3.714-74.788-6.782-113.897-9.173-67.234-4.102-148.861-7.929-219.024-5.684-89.308 2.845-170.16 12.6-258.76 16.162" stroke="url(#paint41_linear)"/><path opacity=".4" d="M1617.25 103.204c-74.48-.558-139.6-10.567-215.66-7.087-64.73 2.964-118.75 11.941-182.91 15.228-66.24 3.396-142.5-1.6-206.96-4.948-62.809-3.27-124.383-7.743-187.407-10.775-55.196-2.658-95.639 3.77-146.715 6.541-31.664 1.722-58.588.707-87.758-2.217-36.414-3.64-74.306-6.588-113.223-8.81-67.672-3.865-148.288-7.093-218.34-4.852C169.666 89.112 88.173 98.046.415 101.711" stroke="url(#paint42_linear)"/><path opacity=".4" d="M1617.22 104.712c-75-.591-140.25-10.697-216.86-7.283-64.71 2.882-119.21 11.68-183.4 14.831-66.19 3.244-141.88-1.723-206.25-5.015-62.337-3.188-123.866-7.49-186.72-10.179-54.872-2.356-96.91 3.726-148.367 6.127-31.899 1.496-59.026.372-88.241-2.512-36.137-3.558-73.819-6.379-112.527-8.424-68.087-3.61-147.581-6.218-217.543-3.975C169.397 91.098 87.321 99.18.394 102.93" stroke="url(#paint43_linear)"/><path opacity=".4" d="M1617.2 106.171c-75.55-.622-140.91-10.824-218.14-7.486-64.67 2.797-119.59 11.409-183.91 14.416-66.1 3.091-141.2-1.84-205.47-5.059-61.892-3.099-123.342-7.22-185.994-9.564-54.591-2.043-98.256 3.671-150.108 5.714-32.122 1.265-59.441.03-88.757-2.828-35.855-3.469-73.319-6.153-111.797-8.01-68.491-3.337-146.772-5.298-216.7-3.064C169.093 93.073 86.5 100.302.371 104.126" stroke="url(#paint44_linear)"/><path opacity=".4" d="M1617.18 107.585c-76.08-.655-141.61-10.954-219.44-7.696-64.67 2.708-120.06 11.129-184.45 13.987-66.02 2.929-140.52-1.953-204.75-5.097-61.448-3.009-122.809-6.932-185.259-8.934-54.355-1.742-99.683 3.6-151.904 5.266-32.359 1.034-59.867-.318-89.296-3.134-35.577-3.38-72.82-5.926-111.056-7.592-68.951-3.047-145.897-4.338-215.802-2.12C168.767 95.011 85.68 101.368.347 105.256" stroke="url(#paint45_linear)"/><path opacity=".4" d="M1617.16 108.954c-76.63-.691-142.33-11.075-220.8-7.915-64.68 2.613-120.52 10.844-185 13.546-65.91 2.757-139.82-2.064-203.96-5.127-61.039-2.915-122.286-6.628-184.467-8.292-54.165-1.45-101.142 3.514-153.7 4.802-32.562.799-60.283-.676-89.825-3.456-35.3-3.284-72.318-5.684-110.292-7.152-69.389-2.74-144.976-3.35-214.882-1.15-85.827 2.7-169.239 8.179-253.83 12.124" stroke="url(#paint46_linear)"/><path opacity=".4" d="M1617.13 110.273c-77.19-.725-143.08-11.215-222.18-8.138-64.66 2.519-121 10.551-185.54 13.086-65.81 2.592-139.1-2.174-203.24-5.153-60.626-2.827-121.74-6.312-183.663-7.639-54.063-1.159-102.645 3.417-155.609 4.326-32.796.564-60.63-1.041-90.453-3.784-35.027-3.185-71.82-5.437-109.517-6.701-158.315-5.488-313.452 3.77-466.68 11.074" stroke="url(#paint47_linear)"/><path opacity=".4" d="M1617.11 111.551c-77.76-.766-143.84-11.348-223.6-8.368-64.66 2.418-121.47 10.25-186.1 12.637-65.7 2.427-138.37-2.281-202.37-5.172-60.282-2.731-121.217-5.989-182.859-6.972-54.052-.87-104.161 3.299-157.517 3.841-32.988.33-61.058-1.414-91.048-4.117-34.626-3.141-71.399-5.144-108.732-6.25C310.601 92.57 149.68 101.07.281 108.324" stroke="url(#paint48_linear)"/><path opacity=".4" d="M1617.09 112.776c-78.34-.806-144.62-11.48-225.03-8.598-64.66 2.325-121.96 9.948-186.67 12.175-65.59 2.255-137.62-2.39-201.55-5.184-59.962-2.627-120.682-5.655-182.044-6.317-54.151-.585-105.677 3.19-159.437 3.348-33.179.097-61.428-1.784-91.654-4.453-34.403-3.038-70.928-4.868-107.946-5.778-70.523-1.732-142.034-.257-211.974 1.862-83.917 2.542-167.958 5.332-250.53 9.425" stroke="url(#paint49_linear)"/><path opacity=".4" d="M1617.07 113.951c-78.24-.831-144.43-11.524-224.76-8.89-64.4 2.121-121.82 9.447-186.02 11.669-64.9 2.245-135.49-2.211-198.86-4.902-61.258-2.591-123.315-5.487-186.023-5.85-55.669-.323-109.911 3.244-165.456 2.827-33.526-.252-61.473-2.551-92.204-5.106-31.921-2.653-65.628-4.173-99.716-4.892-72.555-1.529-144.515.726-216.206 2.854-82.751 2.455-166.243 4.345-247.623 8.45" stroke="url(#paint50_linear)"/><path opacity=".4" d="M1617.05 115.075c-78.77-.871-145.23-11.654-226.15-9.121-64.42 2.017-122.3 9.15-186.6 11.209-64.76 2.064-134.79-2.328-198.07-4.932-60.969-2.511-122.79-5.183-185.174-5.183-55.993 0-111.437 3.093-167.442 2.304-33.572-.471-61.754-2.903-92.721-5.403-31.708-2.559-65.19-3.918-98.987-4.456-72.79-1.157-143.505 1.819-215.183 3.888-82.212 2.373-165.692 3.384-246.5 7.54" stroke="url(#paint51_linear)"/><path opacity=".4" d="M1617.03 116.145c-79.37-.912-145.97-11.781-227.57-9.347-64.45 1.923-122.77 8.855-187.16 10.754-64.62 1.911-134.1-2.451-197.35-4.97-60.633-2.419-122.218-4.851-184.276-4.507-56.398.313-112.931 2.943-169.408 1.786-33.616-.69-62.023-3.252-93.192-5.698-31.438-2.467-64.763-3.666-98.245-4.022-72.982-.78-142.529 2.903-214.185 4.916-81.695 2.295-165.052 2.422-245.388 6.63" stroke="url(#paint52_linear)"/><path opacity=".4" d="M1617.01 117.161c-79.92-.943-146.79-11.904-228.97-9.572-64.46 1.831-123.23 8.575-187.72 10.304-64.49 1.73-133.41-2.573-196.49-5.004-60.488-2.333-121.782-4.536-183.502-3.846-56.892.637-114.391 2.795-171.339 1.275-33.684-.898-62.293-3.598-93.754-5.987-31.461-2.389-64.358-3.417-97.526-3.596-72.982-.398-141.607 3.975-213.186 5.931-81.223 2.219-164.512 1.465-244.31 5.735" stroke="url(#paint53_linear)"/><path opacity=".4" d="M1617 118.122c-80.47-.99-147.58-12.017-230.34-9.793-64.5 1.742-123.69 8.28-188.27 9.864-64.32 1.576-132.81-2.698-195.77-5.047-60.309-2.248-121.266-4.22-182.683-3.191-57.453.964-115.806 2.653-173.259.778-33.583-1.098-62.529-3.94-94.214-6.275-31.102-2.29-63.999-3.171-96.808-3.179-72.982-.018-140.732 5.024-212.209 6.928-80.842 2.154-163.928.521-243.232 4.859" stroke="url(#paint54_linear)"/><path opacity=".4" d="M1616.99 119.024c-81.01-1.022-148.32-12.141-231.68-10.002-64.53 1.649-124.15 8.011-188.81 9.425-64.25 1.414-132.05-2.827-195.03-5.094-60.182-2.158-120.836-3.909-181.894-2.545-58.071 1.296-117.175 2.517-175.156.292-33.572-1.284-62.765-4.269-94.686-6.55-30.956-2.21-63.572-2.934-96.077-2.773-72.871.355-139.913 6.043-211.289 7.902-80.382 2.093-163.255-.419-242.188 4.006" stroke="url(#paint55_linear)"/><path opacity=".4" d="M1616.96 119.87c-81.51-1.058-149.06-12.252-232.97-10.207-64.55 1.576-124.63 7.733-189.32 9.013-64.12 1.267-131.37-2.967-194.31-5.149-60.072-2.076-120.423-3.607-181.132-1.915-58.722 1.635-118.557 2.394-176.942-.172-33.538-1.473-62.978-4.6-95.18-6.834-30.764-2.12-63.213-2.705-95.438-2.382-72.678.724-139.148 7.029-210.402 8.848-79.999 2.043-162.625-1.341-241.176 3.172" stroke="url(#paint56_linear)"/><path opacity=".4" d="M1616.95 120.657c-81.96-1.09-149.75-12.365-234.2-10.402-64.59 1.503-125.01 7.474-189.84 8.612-64 1.121-130.76-3.106-193.607-5.212-59.992-2.015-120.039-3.316-180.39-1.303-59.407 1.979-119.78 2.285-178.671-.613-33.47-1.649-63.191-4.918-95.606-7.099-30.607-2.06-62.877-2.486-94.764-2.01-72.421 1.081-138.43 7.969-209.548 9.764-79.719 2.005-162.009-2.245-240.211 2.375" stroke="url(#paint57_linear)"/><path opacity=".4" d="M1616.94 121.381c-82.47-1.117-150.45-12.467-235.37-10.582-64.65 1.432-125.42 7.226-190.33 8.225-63.9.983-130.15-3.244-192.937-5.285-59.934-1.948-119.69-3.032-179.703-.707-60.015 2.326-120.983 2.189-180.334-1.029-33.392-1.812-63.404-5.184-95.999-7.357-30.316-2.024-62.63-2.278-94.124-1.649-72.129 1.414-137.767 8.857-208.74 10.629-79.371 1.982-161.424-3.129-239.29 1.617" stroke="url(#paint58_linear)"/><path opacity=".4" d="M1616.87 122.055c-82.92-1.141-151.05-12.566-236.47-10.754-64.63 1.364-125.76 6.984-190.75 7.853-63.75.853-129.57-3.388-192.29-5.37-59.902-1.885-119.376-2.764-179.04-.132-60.79 2.679-122.116 2.121-181.894-1.414-33.325-1.965-63.597-5.464-96.383-7.606-30.191-1.972-62.338-2.085-93.507-1.328-34.009.827-67.165 2.721-99.817 4.823-35.232 2.264-71.488 5.718-108.192 6.633-79.102 1.972-160.874-3.987-238.426.9" stroke="url(#paint59_linear)"/><path opacity=".4" d="M1616.88 122.644c-83.33-1.159-151.58-12.658-237.5-10.907-64.68 1.319-126.14 6.783-191.21 7.523-63.65.733-129-3.534-191.663-5.466-59.902-1.843-119.141-2.514-178.458.414-61.451 3.035-123.182 2.072-183.398-1.769-33.179-2.121-63.708-5.726-96.662-7.837-30.068-1.925-62.068-1.911-92.934-1.025-33.942.971-66.907 3.03-99.368 5.266-34.974 2.408-71.287 6.042-107.979 6.963-78.855 1.977-160.37-4.819-237.618.236" stroke="url(#paint60_linear)"/><path opacity=".4" d="M1616.88 123.179c-83.72-1.178-152.15-12.745-238.43-11.046-64.73 1.277-126.48 6.576-191.61 7.21-63.56.619-128.47-3.697-191.085-5.58-59.913-1.798-118.938-2.281-177.908.943-62.158 3.386-124.17 2.042-184.813-2.093-33.055-2.252-63.808-5.968-96.931-8.056-29.945-1.885-61.754-1.753-92.395-.752-33.863 1.108-66.661 3.323-98.952 5.681-34.739 2.538-71.096 6.332-107.789 7.267-78.596 2.003-159.92-5.62-236.91-.384" stroke="url(#paint61_linear)"/><path opacity=".4" d="M1616.88 123.647c-84.06-1.178-152.61-12.825-239.26-11.166-64.81 1.242-126.88 6.395-192.07 6.925-63.49.519-128-3.862-190.547-5.707-59.936-1.765-118.792-2.069-177.403 1.431-62.798 3.748-124.968 2.052-186.037-2.357-32.942-2.382-63.898-6.194-97.155-8.263-29.845-1.855-61.541-1.619-91.891-.511-33.818 1.234-66.436 3.59-98.581 6.062-34.549 2.66-70.928 6.584-107.665 7.54-78.438 2.046-159.56-6.385-236.214-.942" stroke="url(#paint62_linear)"/><path opacity=".4" d="M1616.87 124.048c-84.38-1.178-152.99-12.898-239.99-11.265-64.82 1.216-127.17 6.232-192.4 6.68-63.43.426-127.51-4.032-190.064-5.851-59.968-1.743-118.713-1.885-176.986 1.885-63.45 4.107-125.653 2.09-187.171-2.592-32.797-2.497-63.933-6.397-97.314-8.452-29.753-1.833-61.292-1.508-91.428-.306-33.775 1.35-66.246 3.834-98.256 6.409-34.392 2.769-70.737 6.793-107.577 7.776-78.27 2.109-159.29-7.116-235.641-1.433" stroke="url(#paint63_linear)"/><path opacity=".4" d="M1616.88 124.383c-83.97-1.178-152.36-12.898-238.85-11.379-68.34 1.2-134.41 6.617-203.37 6.506-58.96-.094-118.12-4.159-176.356-5.907-61.878-1.857-121.106-1.805-181.029 2.17-66.447 4.397-128.707 2.085-192.751-3.143-28.711-2.342-56.061-5.537-84.985-7.731-30.607-2.321-64.213-2.095-95.707-.806-35.739 1.461-69.951 4.241-103.657 7.069-33.977 2.86-70.097 6.887-106.734 7.83-77.473 1.981-158.044-7.802-233.384-1.902" stroke="url(#paint64_linear)"/><path opacity=".4" d="M1616.87 124.646c-84.2-1.161-152.59-12.959-239.31-11.437-68.37 1.202-134.74 6.492-203.67 6.315-58.92-.153-117.78-4.331-175.982-6.082-61.922-1.861-121.138-1.677-180.77 2.557-67.121 4.769-129.055 2.187-193.627-3.299-28.576-2.427-56.005-5.65-85.008-7.846-30.539-2.323-63.999-2.05-95.313-.688-35.717 1.553-69.794 4.453-103.399 7.356-33.931 2.931-70.041 7.003-106.767 7.993-77.328 2.068-157.99-8.448-232.981-2.262" stroke="url(#paint65_linear)"/><path opacity=".4" d="M1616.87 124.835c-84.37-1.143-152.7-13.011-239.67-11.465-68.38 1.215-134.9 6.392-203.92 6.159-58.89-.198-117.47-4.51-175.653-6.275-61.955-1.885-121.262-1.586-180.512 2.903-67.772 5.132-129.212 2.333-194.334-3.384-28.508-2.5-56.005-5.756-85.03-7.978-30.517-2.335-63.684-2.04-94.977-.615-72.298 3.299-137.071 13.626-210.065 15.709-77.193 2.204-158.067-9.022-232.666-2.526" stroke="url(#paint66_linear)"/><path opacity=".4" d="M1616.88 124.955c-84.51-1.119-152.82-13.058-239.89-11.475-68.39 1.247-135.13 6.322-204.13 6.051-58.9-.236-117.22-4.698-175.376-6.494-61.979-1.913-121.487-1.527-180.401 3.205-68.367 5.492-129.121 2.53-194.861-3.417-28.273-2.552-55.837-5.933-84.929-8.068-30.899-2.264-63.068-2.08-94.697-.591-72.42 3.412-136.835 13.749-210.087 15.982-77.092 2.357-158.314-9.554-232.419-2.714" stroke="url(#paint67_linear)"/><path opacity=".4" d="M1616.87 125c-84.59-1.086-152.78-13.096-239.94-11.454-68.39 1.289-135.22 6.28-204.35 5.987-58.91-.249-117-4.901-175.153-6.738-61.978-1.959-121.802-1.508-180.367 3.461-68.895 5.851-128.795 2.783-195.165-3.391-60.63-5.636-110.584-12.052-179.244-8.749-72.61 3.495-136.722 13.745-210.231 16.157-77.002 2.529-158.652-10.026-232.42-2.827" stroke="url(#paint68_linear)"/></g><defs><linearGradient id="paint0_linear" x1="-nan" y1="-nan" x2="-nan" y2="-nan" gradientUnits="userSpaceOnUse"><stop offset=".141" stop-color="#E9D1A2" stop-opacity=".433"/><stop offset=".802" stop-color="#E2B155" stop-opacity=".26"/></linearGradient><linearGradient id="paint1_linear" x1="809.604" y1="4.984" x2="809.604" y2="3.505" gradientUnits="userSpaceOnUse"><stop offset=".141" stop-color="#E9D1A2" stop-opacity=".433"/><stop offset=".802" stop-color="#E2B155" stop-opacity=".26"/></linearGradient><linearGradient id="paint2_linear" x1="809.583" y1="9.418" x2="809.583" y2="6.688" gradientUnits="userSpaceOnUse"><stop offset=".141" stop-color="#E9D1A2" stop-opacity=".433"/><stop offset=".802" stop-color="#E2B155" stop-opacity=".26"/></linearGradient><linearGradient id="paint3_linear" x1="809.583" y1="13.769" x2="809.583" y2="9.193" gradientUnits="userSpaceOnUse"><stop offset=".141" stop-color="#E9D1A2" stop-opacity=".433"/><stop offset=".802" stop-color="#E2B155" stop-opacity=".26"/></linearGradient><linearGradient id="paint4_linear" x1="809.583" y1="18.813" x2="809.583" y2="11.193" gradientUnits="userSpaceOnUse"><stop offset=".141" stop-color="#E9D1A2" stop-opacity=".433"/><stop offset=".802" stop-color="#E2B155" stop-opacity=".26"/></linearGradient><linearGradient id="paint5_linear" x1="809.583" y1="23.758" x2="809.583" y2="12.796" gradientUnits="userSpaceOnUse"><stop offset=".141" stop-color="#E9D1A2" stop-opacity=".433"/><stop offset=".802" stop-color="#E2B155" stop-opacity=".26"/></linearGradient><linearGradient id="paint6_linear" x1="809.583" y1="29.123" x2="809.583" y2="14.101" gradientUnits="userSpaceOnUse"><stop offset=".141" stop-color="#E9D1A2" stop-opacity=".433"/><stop offset=".802" stop-color="#E2B155" stop-opacity=".26"/></linearGradient><linearGradient id="paint7_linear" x1="809.595" y1="34.502" x2="809.595" y2="15.212" gradientUnits="userSpaceOnUse"><stop offset=".141" stop-color="#E9D1A2" stop-opacity=".433"/><stop offset=".802" stop-color="#E2B155" stop-opacity=".26"/></linearGradient><linearGradient id="paint8_linear" x1="809.578" y1="39.805" x2="809.578" y2="16.236" gradientUnits="userSpaceOnUse"><stop offset=".141" stop-color="#E9D1A2" stop-opacity=".433"/><stop offset=".802" stop-color="#E2B155" stop-opacity=".26"/></linearGradient><linearGradient id="paint9_linear" x1="809.547" y1="44.937" x2="809.547" y2="17.299" gradientUnits="userSpaceOnUse"><stop offset=".141" stop-color="#E9D1A2" stop-opacity=".433"/><stop offset=".802" stop-color="#E2B155" stop-opacity=".26"/></linearGradient><linearGradient id="paint10_linear" x1="809.515" y1="50.176" x2="809.515" y2="18.501" gradientUnits="userSpaceOnUse"><stop offset=".141" stop-color="#E9D1A2" stop-opacity=".433"/><stop offset=".802" stop-color="#E2B155" stop-opacity=".26"/></linearGradient><linearGradient id="paint11_linear" x1="809.507" y1="54.709" x2="809.507" y2="19.929" gradientUnits="userSpaceOnUse"><stop offset=".141" stop-color="#E9D1A2" stop-opacity=".433"/><stop offset=".802" stop-color="#E2B155" stop-opacity=".26"/></linearGradient><linearGradient id="paint12_linear" x1="809.496" y1="58.775" x2="809.496" y2="21.688" gradientUnits="userSpaceOnUse"><stop offset=".141" stop-color="#E9D1A2" stop-opacity=".433"/><stop offset=".802" stop-color="#E2B155" stop-opacity=".26"/></linearGradient><linearGradient id="paint13_linear" x1="809.45" y1="62.261" x2="809.45" y2="23.93" gradientUnits="userSpaceOnUse"><stop offset=".141" stop-color="#E9D1A2" stop-opacity=".433"/><stop offset=".802" stop-color="#E2B155" stop-opacity=".26"/></linearGradient><linearGradient id="paint14_linear" x1="809.461" y1="65.544" x2="809.461" y2="26.645" gradientUnits="userSpaceOnUse"><stop offset=".141" stop-color="#E9D1A2" stop-opacity=".433"/><stop offset=".802" stop-color="#E2B155" stop-opacity=".26"/></linearGradient><linearGradient id="paint15_linear" x1="809.467" y1="68.837" x2="809.467" y2="29.363" gradientUnits="userSpaceOnUse"><stop offset=".141" stop-color="#E9D1A2" stop-opacity=".433"/><stop offset=".802" stop-color="#E2B155" stop-opacity=".26"/></linearGradient><linearGradient id="paint16_linear" x1="809.438" y1="71.79" x2="809.438" y2="31.981" gradientUnits="userSpaceOnUse"><stop offset=".141" stop-color="#E9D1A2" stop-opacity=".433"/><stop offset=".802" stop-color="#E2B155" stop-opacity=".26"/></linearGradient><linearGradient id="paint17_linear" x1="809.391" y1="74.453" x2="809.391" y2="34.531" gradientUnits="userSpaceOnUse"><stop offset=".141" stop-color="#E9D1A2" stop-opacity=".433"/><stop offset=".802" stop-color="#E2B155" stop-opacity=".26"/></linearGradient><linearGradient id="paint18_linear" x1="809.393" y1="76.838" x2="809.393" y2="36.999" gradientUnits="userSpaceOnUse"><stop offset=".141" stop-color="#E9D1A2" stop-opacity=".433"/><stop offset=".802" stop-color="#E2B155" stop-opacity=".26"/></linearGradient><linearGradient id="paint19_linear" x1="809.37" y1="78.972" x2="809.37" y2="39.392" gradientUnits="userSpaceOnUse"><stop offset=".141" stop-color="#E9D1A2" stop-opacity=".433"/><stop offset=".802" stop-color="#E2B155" stop-opacity=".26"/></linearGradient><linearGradient id="paint20_linear" x1="809.342" y1="80.65" x2="809.342" y2="41.694" gradientUnits="userSpaceOnUse"><stop offset=".141" stop-color="#E9D1A2" stop-opacity=".433"/><stop offset=".802" stop-color="#E2B155" stop-opacity=".26"/></linearGradient><linearGradient id="paint21_linear" x1="809.313" y1="82.484" x2="809.313" y2="43.939" gradientUnits="userSpaceOnUse"><stop offset=".141" stop-color="#E9D1A2" stop-opacity=".433"/><stop offset=".802" stop-color="#E2B155" stop-opacity=".26"/></linearGradient><linearGradient id="paint22_linear" x1="809.325" y1="84.174" x2="809.325" y2="46.131" gradientUnits="userSpaceOnUse"><stop offset=".141" stop-color="#E9D1A2" stop-opacity=".433"/><stop offset=".802" stop-color="#E2B155" stop-opacity=".26"/></linearGradient><linearGradient id="paint23_linear" x1="809.281" y1="85.757" x2="809.281" y2="48.248" gradientUnits="userSpaceOnUse"><stop offset=".141" stop-color="#E9D1A2" stop-opacity=".433"/><stop offset=".802" stop-color="#E2B155" stop-opacity=".26"/></linearGradient><linearGradient id="paint24_linear" x1="809.237" y1="87.263" x2="809.237" y2="50.321" gradientUnits="userSpaceOnUse"><stop offset=".141" stop-color="#E9D1A2" stop-opacity=".433"/><stop offset=".802" stop-color="#E2B155" stop-opacity=".26"/></linearGradient><linearGradient id="paint25_linear" x1="809.248" y1="88.722" x2="809.248" y2="52.355" gradientUnits="userSpaceOnUse"><stop offset=".141" stop-color="#E9D1A2" stop-opacity=".433"/><stop offset=".802" stop-color="#E2B155" stop-opacity=".26"/></linearGradient><linearGradient id="paint26_linear" x1="809.212" y1="89.96" x2="809.212" y2="54.348" gradientUnits="userSpaceOnUse"><stop offset=".141" stop-color="#E9D1A2" stop-opacity=".433"/><stop offset=".802" stop-color="#E2B155" stop-opacity=".26"/></linearGradient><linearGradient id="paint27_linear" x1="809.212" y1="91.377" x2="809.212" y2="56.301" gradientUnits="userSpaceOnUse"><stop offset=".141" stop-color="#E9D1A2" stop-opacity=".433"/><stop offset=".802" stop-color="#E2B155" stop-opacity=".26"/></linearGradient><linearGradient id="paint28_linear" x1="809.184" y1="92.832" x2="809.184" y2="58.231" gradientUnits="userSpaceOnUse"><stop offset=".141" stop-color="#E9D1A2" stop-opacity=".433"/><stop offset=".802" stop-color="#E2B155" stop-opacity=".26"/></linearGradient><linearGradient id="paint29_linear" x1="809.168" y1="94.35" x2="809.168" y2="60.119" gradientUnits="userSpaceOnUse"><stop offset=".141" stop-color="#E9D1A2" stop-opacity=".433"/><stop offset=".802" stop-color="#E2B155" stop-opacity=".26"/></linearGradient><linearGradient id="paint30_linear" x1="809.1" y1="95.945" x2="809.1" y2="62.029" gradientUnits="userSpaceOnUse"><stop offset=".141" stop-color="#E9D1A2" stop-opacity=".433"/><stop offset=".802" stop-color="#E2B155" stop-opacity=".26"/></linearGradient><linearGradient id="paint31_linear" x1="809.1" y1="97.68" x2="809.1" y2="63.912" gradientUnits="userSpaceOnUse"><stop offset=".141" stop-color="#E9D1A2" stop-opacity=".433"/><stop offset=".802" stop-color="#E2B155" stop-opacity=".26"/></linearGradient><linearGradient id="paint32_linear" x1="809.066" y1="99.501" x2="809.066" y2="65.794" gradientUnits="userSpaceOnUse"><stop offset=".141" stop-color="#E9D1A2" stop-opacity=".433"/><stop offset=".802" stop-color="#E2B155" stop-opacity=".26"/></linearGradient><linearGradient id="paint33_linear" x1="809.029" y1="101.222" x2="809.029" y2="67.715" gradientUnits="userSpaceOnUse"><stop offset=".141" stop-color="#E9D1A2" stop-opacity=".433"/><stop offset=".802" stop-color="#E2B155" stop-opacity=".26"/></linearGradient><linearGradient id="paint34_linear" x1="809.021" y1="102.847" x2="809.021" y2="69.651" gradientUnits="userSpaceOnUse"><stop offset=".141" stop-color="#E9D1A2" stop-opacity=".433"/><stop offset=".802" stop-color="#E2B155" stop-opacity=".26"/></linearGradient><linearGradient id="paint35_linear" x1="808.982" y1="104.365" x2="808.982" y2="71.631" gradientUnits="userSpaceOnUse"><stop offset=".141" stop-color="#E9D1A2" stop-opacity=".433"/><stop offset=".802" stop-color="#E2B155" stop-opacity=".26"/></linearGradient><linearGradient id="paint36_linear" x1="808.975" y1="105.785" x2="808.975" y2="73.608" gradientUnits="userSpaceOnUse"><stop offset=".141" stop-color="#E9D1A2" stop-opacity=".433"/><stop offset=".802" stop-color="#E2B155" stop-opacity=".26"/></linearGradient><linearGradient id="paint37_linear" x1="808.928" y1="107.121" x2="808.928" y2="75.612" gradientUnits="userSpaceOnUse"><stop offset=".141" stop-color="#E9D1A2" stop-opacity=".433"/><stop offset=".802" stop-color="#E2B155" stop-opacity=".26"/></linearGradient><linearGradient id="paint38_linear" x1="808.926" y1="108.357" x2="808.926" y2="77.597" gradientUnits="userSpaceOnUse"><stop offset=".141" stop-color="#E9D1A2" stop-opacity=".433"/><stop offset=".802" stop-color="#E2B155" stop-opacity=".26"/></linearGradient><linearGradient id="paint39_linear" x1="808.899" y1="109.511" x2="808.899" y2="79.601" gradientUnits="userSpaceOnUse"><stop offset=".141" stop-color="#E9D1A2" stop-opacity=".433"/><stop offset=".802" stop-color="#E2B155" stop-opacity=".26"/></linearGradient><linearGradient id="paint40_linear" x1="808.886" y1="110.58" x2="808.886" y2="81.615" gradientUnits="userSpaceOnUse"><stop offset=".141" stop-color="#E9D1A2" stop-opacity=".433"/><stop offset=".802" stop-color="#E2B155" stop-opacity=".26"/></linearGradient><linearGradient id="paint41_linear" x1="808.852" y1="111.567" x2="808.852" y2="83.578" gradientUnits="userSpaceOnUse"><stop offset=".141" stop-color="#E9D1A2" stop-opacity=".433"/><stop offset=".802" stop-color="#E2B155" stop-opacity=".26"/></linearGradient><linearGradient id="paint42_linear" x1="808.83" y1="112.479" x2="808.83" y2="85.547" gradientUnits="userSpaceOnUse"><stop offset=".141" stop-color="#E9D1A2" stop-opacity=".433"/><stop offset=".802" stop-color="#E2B155" stop-opacity=".26"/></linearGradient><linearGradient id="paint43_linear" x1="808.809" y1="113.315" x2="808.809" y2="87.449" gradientUnits="userSpaceOnUse"><stop offset=".141" stop-color="#E9D1A2" stop-opacity=".433"/><stop offset=".802" stop-color="#E2B155" stop-opacity=".26"/></linearGradient><linearGradient id="paint44_linear" x1="808.787" y1="114.08" x2="808.787" y2="89.336" gradientUnits="userSpaceOnUse"><stop offset=".141" stop-color="#E9D1A2" stop-opacity=".433"/><stop offset=".802" stop-color="#E2B155" stop-opacity=".26"/></linearGradient><linearGradient id="paint45_linear" x1="808.763" y1="114.777" x2="808.763" y2="91.15" gradientUnits="userSpaceOnUse"><stop offset=".141" stop-color="#E9D1A2" stop-opacity=".433"/><stop offset=".802" stop-color="#E2B155" stop-opacity=".26"/></linearGradient><linearGradient id="paint46_linear" x1="808.78" y1="115.406" x2="808.78" y2="92.874" gradientUnits="userSpaceOnUse"><stop offset=".141" stop-color="#E9D1A2" stop-opacity=".433"/><stop offset=".802" stop-color="#E2B155" stop-opacity=".26"/></linearGradient><linearGradient id="paint47_linear" x1="808.692" y1="115.967" x2="808.692" y2="94.609" gradientUnits="userSpaceOnUse"><stop offset=".141" stop-color="#E9D1A2" stop-opacity=".433"/><stop offset=".802" stop-color="#E2B155" stop-opacity=".26"/></linearGradient><linearGradient id="paint48_linear" x1="808.696" y1="116.492" x2="808.696" y2="95.856" gradientUnits="userSpaceOnUse"><stop offset=".141" stop-color="#E9D1A2" stop-opacity=".433"/><stop offset=".802" stop-color="#E2B155" stop-opacity=".26"/></linearGradient><linearGradient id="paint49_linear" x1="808.671" y1="116.951" x2="808.671" y2="97.207" gradientUnits="userSpaceOnUse"><stop offset=".141" stop-color="#E9D1A2" stop-opacity=".433"/><stop offset=".802" stop-color="#E2B155" stop-opacity=".26"/></linearGradient><linearGradient id="paint50_linear" x1="808.635" y1="117.342" x2="808.635" y2="98.305" gradientUnits="userSpaceOnUse"><stop offset=".141" stop-color="#E9D1A2" stop-opacity=".433"/><stop offset=".802" stop-color="#E2B155" stop-opacity=".26"/></linearGradient><linearGradient id="paint51_linear" x1="808.638" y1="117.698" x2="808.638" y2="99.234" gradientUnits="userSpaceOnUse"><stop offset=".141" stop-color="#E9D1A2" stop-opacity=".433"/><stop offset=".802" stop-color="#E2B155" stop-opacity=".26"/></linearGradient><linearGradient id="paint52_linear" x1="808.643" y1="118.022" x2="808.643" y2="100.035" gradientUnits="userSpaceOnUse"><stop offset=".141" stop-color="#E9D1A2" stop-opacity=".433"/><stop offset=".802" stop-color="#E2B155" stop-opacity=".26"/></linearGradient><linearGradient id="paint53_linear" x1="808.612" y1="118.293" x2="808.612" y2="100.71" gradientUnits="userSpaceOnUse"><stop offset=".141" stop-color="#E9D1A2" stop-opacity=".433"/><stop offset=".802" stop-color="#E2B155" stop-opacity=".26"/></linearGradient><linearGradient id="paint54_linear" x1="808.608" y1="118.533" x2="808.608" y2="101.279" gradientUnits="userSpaceOnUse"><stop offset=".141" stop-color="#E9D1A2" stop-opacity=".433"/><stop offset=".802" stop-color="#E2B155" stop-opacity=".26"/></linearGradient><linearGradient id="paint55_linear" x1="808.584" y1="119.024" x2="808.584" y2="101.755" gradientUnits="userSpaceOnUse"><stop offset=".141" stop-color="#E9D1A2" stop-opacity=".433"/><stop offset=".802" stop-color="#E2B155" stop-opacity=".26"/></linearGradient><linearGradient id="paint56_linear" x1="808.527" y1="119.87" x2="808.527" y2="102.141" gradientUnits="userSpaceOnUse"><stop offset=".141" stop-color="#E9D1A2" stop-opacity=".433"/><stop offset=".802" stop-color="#E2B155" stop-opacity=".26"/></linearGradient><linearGradient id="paint57_linear" x1="808.533" y1="120.657" x2="808.533" y2="102.453" gradientUnits="userSpaceOnUse"><stop offset=".141" stop-color="#E9D1A2" stop-opacity=".433"/><stop offset=".802" stop-color="#E2B155" stop-opacity=".26"/></linearGradient><linearGradient id="paint58_linear" x1="808.529" y1="121.381" x2="808.529" y2="102.693" gradientUnits="userSpaceOnUse"><stop offset=".141" stop-color="#E9D1A2" stop-opacity=".433"/><stop offset=".802" stop-color="#E2B155" stop-opacity=".26"/></linearGradient><linearGradient id="paint59_linear" x1="808.489" y1="122.055" x2="808.489" y2="102.871" gradientUnits="userSpaceOnUse"><stop offset=".141" stop-color="#E9D1A2" stop-opacity=".433"/><stop offset=".802" stop-color="#E2B155" stop-opacity=".26"/></linearGradient><linearGradient id="paint60_linear" x1="808.483" y1="122.644" x2="808.483" y2="103" gradientUnits="userSpaceOnUse"><stop offset=".141" stop-color="#E9D1A2" stop-opacity=".433"/><stop offset=".802" stop-color="#E2B155" stop-opacity=".26"/></linearGradient><linearGradient id="paint61_linear" x1="808.466" y1="123.179" x2="808.466" y2="103.086" gradientUnits="userSpaceOnUse"><stop offset=".141" stop-color="#E9D1A2" stop-opacity=".433"/><stop offset=".802" stop-color="#E2B155" stop-opacity=".26"/></linearGradient><linearGradient id="paint62_linear" x1="808.466" y1="123.647" x2="808.466" y2="103.141" gradientUnits="userSpaceOnUse"><stop offset=".141" stop-color="#E9D1A2" stop-opacity=".433"/><stop offset=".802" stop-color="#E2B155" stop-opacity=".26"/></linearGradient><linearGradient id="paint63_linear" x1="808.458" y1="124.048" x2="808.458" y2="103.162" gradientUnits="userSpaceOnUse"><stop offset=".141" stop-color="#E9D1A2" stop-opacity=".433"/><stop offset=".802" stop-color="#E2B155" stop-opacity=".26"/></linearGradient><linearGradient id="paint64_linear" x1="808.466" y1="124.383" x2="808.466" y2="103.133" gradientUnits="userSpaceOnUse"><stop offset=".141" stop-color="#E9D1A2" stop-opacity=".433"/><stop offset=".802" stop-color="#E2B155" stop-opacity=".26"/></linearGradient><linearGradient id="paint65_linear" x1="808.458" y1="124.646" x2="808.458" y2="103.123" gradientUnits="userSpaceOnUse"><stop offset=".141" stop-color="#E9D1A2" stop-opacity=".433"/><stop offset=".802" stop-color="#E2B155" stop-opacity=".26"/></linearGradient><linearGradient id="paint66_linear" x1="808.458" y1="124.835" x2="808.458" y2="103.075" gradientUnits="userSpaceOnUse"><stop offset=".141" stop-color="#E9D1A2" stop-opacity=".433"/><stop offset=".802" stop-color="#E2B155" stop-opacity=".26"/></linearGradient><linearGradient id="paint67_linear" x1="808.483" y1="124.955" x2="808.483" y2="103.05" gradientUnits="userSpaceOnUse"><stop offset=".141" stop-color="#E9D1A2" stop-opacity=".433"/><stop offset=".802" stop-color="#E2B155" stop-opacity=".26"/></linearGradient><linearGradient id="paint68_linear" x1="808.437" y1="125" x2="808.437" y2="103.214" gradientUnits="userSpaceOnUse"><stop offset=".141" stop-color="#E9D1A2" stop-opacity=".433"/><stop offset=".802" stop-color="#E2B155" stop-opacity=".26"/></linearGradient></defs></svg>