<svg width="375" height="80" fill="none" xmlns="http://www.w3.org/2000/svg"><g clip-path="url(#clip0)"><path fill="url(#paint0_linear)" d="M0 0h375v80H0z"/><g opacity=".4" stroke-miterlimit="10"><path opacity=".4" d="M375 0H.271" stroke="url(#paint1_linear)"/><path opacity=".4" d="M375 2.244c-63.252-.016-126.471.385-189.707.839-27.36.197-54.908.132-82.266-.284C68.781 2.28 34.52 2.77.281 2.244" stroke="url(#paint2_linear)"/><path opacity=".4" d="M375 4.454c-17.921 0-35.848-.08-53.769-.04-16.014.034-31.991.787-48.002.916-29.821.242-59.638-.039-89.458.246-26.468.254-53.209.925-79.658-.1C88.697 4.875 73.439 4.6 58.011 4.35c-19.257-.31-38.49.533-57.74.104" stroke="url(#paint3_linear)"/><path opacity=".4" d="M375 6.636c-17.663 0-35.376-.172-53.034.013-16.595.175-33.093 1.401-49.675 1.716-29.88.569-59.525-1.055-89.373-.766-26.265.25-52.158 2.283-78.452.465C89.098 7 74.205 6.168 58.724 5.925 39.206 5.624 19.785 7.091.27 6.635" stroke="url(#paint4_linear)"/><path opacity=".4" d="M375 8.773c-17.345 0-34.816-.274-52.148.104-17.33.379-34.415 2.12-51.695 2.683-15.706.511-31.192.374-46.816-.739-14.003-.998-27.605-1.719-41.723-1.61-12.374.096-23.967 1.185-36.187 2.2-13.985 1.163-28.383.62-42.238-.861-15.25-1.632-29.632-3.193-45.204-3.37C39.347 6.952 19.926 9.163.27 8.772" stroke="url(#paint5_linear)"/><path opacity=".4" d="M375 10.881c-16.97 0-34.196-.37-51.137.222-18.101.63-35.897 2.913-53.959 3.77-15.508.745-31.12.234-46.386-1.517-13.628-1.541-26.803-2.918-40.733-2.855-12.9.059-24.571 1.952-37.093 3.482-14.214 1.737-28.279 1.078-42.277-1.028-15.002-2.262-28.851-4.7-44.53-4.764C39.209 8.108 19.98 11.135.27 10.88" stroke="url(#paint6_linear)"/><path opacity=".4" d="M375 12.957c-16.569.009-33.544-.453-50.056.354-18.953.918-37.471 3.752-56.356 4.936-15.849.992-30.494.069-45.78-2.424-13.087-2.135-25.763-4.273-39.49-4.278-13.573 0-25.648 2.843-38.529 4.918-14.675 2.363-28.206 1.675-42.545-1.18C87.65 12.38 74.251 8.95 58.487 9.025c-19.648.103-38.514 4-58.216 3.931" stroke="url(#paint7_linear)"/><path opacity=".4" d="M375 14.998c-16.15.014-32.869-.499-48.922.493-19.827 1.225-39.035 4.606-58.788 6.132-16.071 1.241-30.019-.086-45.058-3.407-12.407-2.74-24.594-5.71-38.097-5.803-14.271-.1-27.137 3.805-40.335 6.434-15.242 3.035-28.256 2.39-42.985-1.31-14.026-3.522-27.105-8.045-42.938-7.791-19.577.313-37.946 5.107-57.601 5.252" stroke="url(#paint8_linear)"/><path opacity=".4" d="M375 17.007c-15.735.018-32.194-.528-47.814.63-20.673 1.53-40.578 5.441-61.155 7.308-16.393 1.489-29.55-.215-44.272-4.41-11.642-3.318-23.337-7.15-36.653-7.352-14.968-.225-28.867 4.847-42.37 7.964-7.073 1.624-14.529 3.145-22.239 2.796-7.547-.344-14.693-2.186-21.292-4.223-13.303-4.097-26.263-9.737-42.092-9.306-19.491.533-37.247 6.22-56.844 6.589" stroke="url(#paint9_linear)"/><path opacity=".4" d="M374.987 18.98c-15.352.024-31.545-.536-46.736.755-21.462 1.819-41.99 6.236-63.327 8.425-16.769 1.722-29.167-.327-43.49-5.386-10.859-3.837-22.064-8.525-35.261-8.843-15.613-.376-30.707 5.888-44.467 9.434-7.209 1.858-15.159 3.817-23.21 3.385-7.547-.404-14.617-2.612-20.928-4.9-12.582-4.567-25.409-11.346-41.277-10.74-19.408.741-36.48 7.292-56.025 7.87" stroke="url(#paint10_linear)"/><path opacity=".4" d="M374.984 20.92c-14.987.028-30.938-.532-45.743.854-22.161 2.077-43.241 6.96-65.24 9.442-8.376.944-16.316 1.49-24.521-.166-6.685-1.35-12.566-3.719-18.239-6.114-10.149-4.28-20.863-9.772-34.027-10.201-16.187-.53-32.493 6.87-46.477 10.777-7.334 2.05-15.773 4.423-24.131 3.921-7.581-.452-14.558-2.996-20.597-5.509-11.914-4.952-24.587-12.79-40.542-12.032-19.337.921-35.7 8.284-55.212 9.036" stroke="url(#paint11_linear)"/><path opacity=".4" d="M374.982 22.828c-14.672.029-30.407-.528-44.873.922-22.721 2.277-44.199 7.579-66.754 10.295-8.406 1.012-16.322 1.639-24.486-.24-6.622-1.534-12.267-4.165-17.664-6.795-9.553-4.65-19.819-10.83-33.049-11.35-8.455-.333-16.957 2.223-24.258 4.387-8.101 2.401-15.89 5.137-23.988 7.54-7.443 2.208-16.291 4.917-24.93 4.351-7.635-.5-14.503-3.302-20.327-6.002-11.366-5.278-23.8-14.003-39.908-13.12C35.44 13.872 19.762 21.967.253 22.834" stroke="url(#paint12_linear)"/><path opacity=".4" d="M374.979 24.701c-14.408.029-29.979-.529-44.163.947-23.123 2.406-44.852 8.07-67.784 10.955-8.367 1.055-16.343 1.73-24.423-.284-6.615-1.648-12.09-4.506-17.292-7.317-9.155-4.944-19.033-11.637-32.424-12.215-8.687-.37-17.436 2.398-24.852 4.687-8.372 2.587-16.395 5.53-24.766 8.12-7.547 2.335-16.655 5.256-25.526 4.66-7.716-.518-14.466-3.496-20.131-6.351-11.016-5.548-23.07-14.9-39.435-13.957C34.879 15.058 19.799 23.803.25 24.696" stroke="url(#paint13_linear)"/><path opacity=".4" d="M374.974 26.54c-14.206.025-29.68-.543-43.656.92-23.321 2.444-45.109 8.405-68.216 11.368-8.252 1.056-16.377 1.743-24.342-.283-6.67-1.697-12.07-4.708-17.175-7.638-9.01-5.179-18.596-12.14-32.269-12.7-8.879-.366-17.651 2.431-25.172 4.825-8.548 2.714-16.719 5.809-25.265 8.526-7.643 2.431-16.79 5.399-25.843 4.808-7.807-.51-14.443-3.543-20.038-6.52-10.93-5.813-22.408-15.4-39.157-14.467C34.488 16.457 19.863 25.74.234 26.538" stroke="url(#paint14_linear)"/><path opacity=".4" d="M374.971 28.35c-14.153.052-29.578-.588-43.494.905-23.162 2.49-44.672 8.63-67.596 11.662-8.23 1.087-16.349 1.738-24.309-.264-6.766-1.706-12.273-4.753-17.454-7.72-9.175-5.254-18.864-12.304-32.716-12.961-8.941-.424-17.662 2.339-25.216 4.77-8.561 2.756-16.717 5.911-25.276 8.67-7.679 2.476-16.779 5.403-25.9 4.77-7.859-.547-14.456-3.585-20.062-6.595C81.975 25.692 70.715 16.23 53.834 17.11 34.426 18.117 19.952 27.654.242 28.35" stroke="url(#paint15_linear)"/><path opacity=".4" d="M374.968 30.12c-14.213.093-29.59-.714-43.556.883-22.75 2.601-43.775 8.841-66.283 11.981-8.327 1.163-16.233 1.768-24.308-.249-6.888-1.717-12.59-4.733-17.961-7.674-9.48-5.197-19.577-12.317-33.429-13.215-8.887-.576-17.638 2.195-25.128 4.624-8.457 2.743-16.49 5.9-24.945 8.647-7.664 2.49-16.764 5.394-25.872 4.642-7.836-.647-14.528-3.73-20.212-6.706-11.031-5.776-22.617-15.06-39.294-14.206-19.455.997-33.976 10.588-53.732 11.272" stroke="url(#paint16_linear)"/><path opacity=".4" d="M374.963 31.858c-14.293.112-29.63-.92-43.681.771-22.286 2.681-42.764 9.003-64.798 12.215-8.397 1.227-16.118 1.775-24.284-.216-6.995-1.705-12.926-4.643-18.497-7.56-9.798-5.128-20.36-12.223-34.199-13.338-8.806-.71-17.49 2.003-24.912 4.422-8.314 2.714-16.178 5.852-24.487 8.565-7.641 2.495-16.655 5.316-25.721 4.456-7.844-.744-14.656-3.84-20.467-6.785C82.74 28.732 70.775 19.68 54.224 20.523 34.684 21.515 20.082 31.168.24 31.849" stroke="url(#paint17_linear)"/><path opacity=".4" d="M374.959 33.564c-14.393.107-29.722-1.197-43.872.579-21.776 2.731-41.657 9.117-63.174 12.385-8.43 1.28-16.006 1.762-24.239-.172-7.12-1.67-13.272-4.524-19.06-7.389-10.206-5.035-21.138-12.028-35.016-13.347-8.702-.827-17.232 1.769-24.581 4.17-8.132 2.661-15.796 5.772-23.923 8.435-7.612 2.496-16.452 5.177-25.463 4.223-7.88-.837-14.833-3.921-20.818-6.826-11.401-5.53-23.793-14.303-40.255-13.466-19.66 1-34.374 10.717-54.336 11.404" stroke="url(#paint18_linear)"/><path opacity=".4" d="M374.955 35.237c-14.51.084-29.833-1.534-44.111.32-21.228 2.754-40.479 9.198-61.441 12.484-8.425 1.324-15.896 1.736-24.171-.113-7.248-1.62-13.616-4.373-19.64-7.151-10.669-4.92-21.934-11.746-35.865-13.255-16.81-1.824-33.798 7.665-47.421 12.138-7.583 2.49-16.184 4.987-25.117 3.942-7.942-.93-15.041-3.985-21.232-6.845-11.69-5.4-24.545-13.86-40.965-13.019C35.186 24.751 20.332 34.54.227 35.237" stroke="url(#paint19_linear)"/><path opacity=".4" d="M374.95 36.874c-14.637.047-29.963-1.918-44.39 0-20.66 2.757-39.243 9.23-59.622 12.527-8.399 1.357-15.796 1.695-24.095-.047-7.38-1.551-13.969-4.183-20.23-6.873-11.133-4.78-22.734-11.378-36.734-13.075-16.556-2.002-32.812 7.212-46.183 11.612-7.393 2.43-16.012 4.878-24.701 3.627-8.067-1.162-15.174-3.977-21.716-6.842-12.025-5.263-25.375-13.38-41.795-12.53C35.509 26.306 20.496 36.168.222 36.885" stroke="url(#paint20_linear)"/><path opacity=".4" d="M374.945 38.48c-14.776 0-30.118-2.342-44.706-.353-20.071 2.737-37.974 9.238-57.751 12.517-34.35 5.698-52.269-15.34-82.443-19.366-16.264-2.173-31.699 6.709-44.827 11.02-7.359 2.413-15.645 4.61-24.225 3.288-8.168-1.26-15.442-4.013-22.247-6.824-12.4-5.127-26.267-12.875-42.722-12.011C35.864 27.806 20.675 37.746.214 38.48" stroke="url(#paint21_linear)"/><path opacity=".4" d="M374.939 40.051c-14.919-.063-30.284-2.79-45.047-.742-19.474 2.701-36.692 9.218-55.854 12.467-33.639 5.704-54.127-14.326-83.814-18.64-15.983-2.326-30.491 6.163-43.38 10.391-7.328 2.404-15.252 4.312-23.71 2.93-8.278-1.358-15.736-4.042-22.814-6.794-12.798-4.977-27.194-12.353-43.718-11.469C36.244 29.281 20.865 39.293.205 40.051" stroke="url(#paint22_linear)"/><path opacity=".4" d="M374.935 41.59c-15.068-.129-30.464-3.254-45.412-1.155-18.878 2.652-35.392 9.175-53.959 12.381-32.927 5.687-55.949-13.248-85.155-17.85-15.697-2.473-29.218 5.598-41.881 9.743-7.302 2.39-14.833 3.992-23.16 2.564-8.392-1.446-16.043-4.072-23.402-6.756C88.756 35.691 73.83 28.7 57.222 29.603 36.664 30.724 21.082 40.811.216 41.595" stroke="url(#paint23_linear)"/><path opacity=".4" d="M374.93 43.094c-15.214-.194-30.655-3.718-45.8-1.576-18.294 2.591-34.126 9.118-52.096 12.27-32.226 5.653-57.711-12.144-86.437-17.023-15.414-2.618-27.92 5.023-40.367 9.089-7.271 2.375-14.435 3.661-22.624 2.182-8.51-1.538-16.361-4.097-23.996-6.715-13.623-4.675-29.075-11.28-45.787-10.354C37.05 32.119 21.274 42.277.201 43.094" stroke="url(#paint24_linear)"/><path opacity=".4" d="M374.924 44.565c-15.354-.26-30.847-4.174-46.167-1.995-17.731 2.523-32.895 9.048-50.29 12.138-31.591 5.61-59.438-11.03-87.699-16.181-15.132-2.76-26.621 4.451-38.865 8.445-7.239 2.36-14.052 3.33-22.085 1.81-8.627-1.632-16.676-4.133-24.584-6.678-14.024-4.515-29.991-10.748-46.818-9.802-20.982 1.184-36.952 11.424-58.23 12.26" stroke="url(#paint25_linear)"/><path opacity=".4" d="M374.919 46.003c-15.508-.32-31.037-4.611-46.545-2.402-17.197 2.45-31.72 8.971-48.576 11.995-30.983 5.558-61.058-9.926-88.845-15.35-14.88-2.905-25.341 3.907-37.415 7.82-7.217 2.338-13.673 3.016-21.571 1.451-8.738-1.725-16.982-4.176-25.148-6.647-14.41-4.36-30.869-10.226-47.812-9.257-21.18 1.214-37.338 11.53-58.812 12.39" stroke="url(#paint26_linear)"/><path opacity=".4" d="M374.914 47.407c-15.652-.374-31.228-5.017-46.908-2.785-16.707 2.376-30.631 8.897-46.98 11.85-15.86 2.865-32.734-.37-47.549-3.826-14.287-3.334-27.868-7.708-42.368-10.731-14.693-3.064-24.063 3.426-36.047 7.238-15.913 5.06-32.211-1.357-46.776-5.517-14.758-4.21-31.68-9.727-48.736-8.736C38.183 36.14 21.85 46.526.185 47.409" stroke="url(#paint27_linear)"/><path opacity=".4" d="M374.908 48.78c-15.797-.418-31.375-5.383-47.256-3.134-16.262 2.304-29.63 8.82-45.54 11.708-15.716 2.856-33.034-.246-47.919-3.411-14.576-3.1-28.449-7.195-42.946-10.416-14.497-3.221-22.965 2.951-34.795 6.71-15.551 4.938-32.529-1.961-46.841-5.83-15.067-4.07-32.42-9.252-49.569-8.248C38.51 37.421 22.012 47.878.19 48.779" stroke="url(#paint28_linear)"/><path opacity=".4" d="M374.903 50.117c-15.946-.452-31.511-5.694-47.577-3.432-15.873 2.233-28.749 8.746-44.239 11.578-15.594 2.843-33.309-.132-48.262-3.035-14.833-2.882-28.984-6.73-43.458-10.15-6.828-1.611-11.833-1.678-18.435.402-5.366 1.69-9.904 4.146-15.262 5.848-7.149 2.274-12.842 2.21-20.329.52-8.996-2.034-17.761-4.373-26.588-6.645-15.32-3.934-33.049-8.813-50.276-7.8C38.795 38.679 22.16 49.205.182 50.117" stroke="url(#paint29_linear)"/><path opacity=".4" d="M374.899 51.424c-16.095-.453-31.614-5.945-47.867-3.675-15.558 2.173-27.996 8.71-43.171 11.47-15.516 2.821-33.554-.03-48.567-2.715-15.013-2.684-29.427-6.333-43.854-9.953-6.667-1.672-11.541-1.909-18.086.16-5.188 1.64-9.519 4.063-14.695 5.715-7.109 2.272-12.714 2.03-20.071.284-9.04-2.146-17.94-4.48-26.934-6.69-15.512-3.809-33.587-8.417-50.84-7.4C39.01 39.902 22.265 50.491.18 51.41" stroke="url(#paint30_linear)"/><path opacity=".4" d="M374.893 52.693c-16.246-.44-31.676-6.123-48.112-3.847-15.325 2.124-27.375 8.712-42.341 11.39-15.493 2.776-33.728.054-48.834-2.439-15.229-2.51-29.768-6.008-44.135-9.826-6.532-1.734-11.351-2.1-17.846-.03-5.049 1.606-9.205 4.013-14.238 5.634-7.075 2.278-12.675 1.909-19.92.096-9.053-2.262-18.057-4.602-27.189-6.765-15.613-3.699-33.99-8.069-51.23-7.06C39.158 41.128 22.332 51.777.153 52.693" stroke="url(#paint31_linear)"/><path opacity=".4" d="M374.888 53.931c-16.394-.4-31.691-6.219-48.31-3.937-15.166 2.082-26.956 8.698-41.742 11.345-15.446 2.762-33.918.099-49.063-2.238-15.385-2.376-29.989-5.778-44.289-9.803-6.425-1.81-11.27-2.247-17.732-.164-4.944 1.594-8.97 4.002-13.906 5.611-7.05 2.299-12.728 1.864-19.887-.031-9.035-2.392-18.106-4.749-27.339-6.875-15.661-3.606-34.252-7.78-51.422-6.786C39.258 42.32 22.39 53.028.16 53.93" stroke="url(#paint32_linear)"/><path opacity=".4" d="M374.88 55.137c-16.478-.359-31.668-6.241-48.388-3.939-15.115 2.081-26.834 8.691-41.573 11.322-15.43 2.754-33.986.037-49.136-2.251-15.44-2.331-29.997-5.708-44.315-9.75-6.401-1.81-11.314-2.187-17.732-.118-4.91 1.583-8.91 3.97-13.82 5.558-7.027 2.271-12.809 1.849-19.9-.101-8.996-2.473-18.078-4.848-27.35-6.953-15.585-3.54-34.418-7.667-51.455-6.636C39.302 43.593 22.325 54.12.15 55.133" stroke="url(#paint33_linear)"/><path opacity=".4" d="M374.875 56.324c-16.514-.34-31.66-6.263-48.419-3.933-15.091 2.1-26.87 8.653-41.62 11.268-15.43 2.736-33.944-.101-49.071-2.404-15.39-2.343-29.885-5.714-44.302-9.565-13.646-3.645-20.409 1.96-31.648 5.456-7.027 2.185-12.845 1.787-19.871-.17-8.958-2.496-18.024-4.865-27.293-6.946-15.494-3.478-34.572-7.625-51.487-6.506-21.814 1.445-39 11.542-61.026 12.777" stroke="url(#paint34_linear)"/><path opacity=".4" d="M374.87 57.493c-16.564-.328-31.674-6.294-48.485-3.945-15.091 2.112-26.917 8.596-41.674 11.187-15.428 2.714-33.89-.23-48.993-2.541-15.33-2.345-29.77-5.7-44.27-9.357-13.532-3.415-20.538 2.091-31.785 5.428-7.026 2.09-12.897 1.704-19.861-.256-8.915-2.51-17.955-4.86-27.222-6.905-15.431-3.407-34.699-7.51-51.473-6.316C39.401 46.333 22.005 55.991.141 57.423" stroke="url(#paint35_linear)"/><path opacity=".4" d="M374.865 58.64c-16.621-.32-31.707-6.333-48.581-3.973-15.073 2.108-26.969 8.518-41.737 11.082-15.428 2.67-33.829-.35-48.904-2.661-15.258-2.338-29.666-5.668-44.218-9.123-13.436-3.186-20.681 2.198-31.956 5.38-7.045 1.986-12.96 1.6-19.871-.36-8.866-2.513-17.889-4.837-27.14-6.834-15.392-3.325-34.777-7.327-51.437-6.07C39.423 47.706 21.826 56.911.128 58.52" stroke="url(#paint36_linear)"/><path opacity=".4" d="M374.859 59.768c-16.691-.316-31.749-6.377-48.708-4.016-15.06 2.097-27.03 8.435-41.811 10.947-15.422 2.622-33.73-.464-48.8-2.769-15.173-2.322-29.538-5.617-44.15-8.864-13.334-2.963-20.834 2.279-32.162 5.289-7.067 1.879-13.029 1.48-19.897-.474a397.249 397.249 0 00-27.04-6.734c-15.38-3.234-34.819-7.088-51.382-5.775C39.45 49.066 21.638 57.806.129 59.566" stroke="url(#paint37_linear)"/><path opacity=".4" d="M374.851 60.876c-16.766-.317-31.818-6.43-48.859-4.072-15.049 2.08-27.099 8.334-41.899 10.794-15.417 2.564-33.646-.571-48.687-2.865-15.094-2.298-29.419-5.548-44.065-8.583-13.235-2.745-21.005 2.342-32.401 5.17-7.102 1.762-13.108 1.34-19.936-.604a361.618 361.618 0 00-26.934-6.607c-15.387-3.132-34.823-6.777-51.298-5.429C39.45 50.425 21.435 58.688.115 60.585" stroke="url(#paint38_linear)"/><path opacity=".4" d="M374.846 61.958c-16.853-.318-31.902-6.485-49.039-4.144-15.039 2.054-27.175 8.217-41.977 10.619-15.412 2.5-33.545-.673-48.573-2.947-14.982-2.262-29.302-5.46-43.963-8.28-13.142-2.529-21.198 2.384-32.672 5.02-7.14 1.641-13.194 1.187-19.993-.754a330.612 330.612 0 00-26.804-6.456C96.412 52 77.035 48.598 60.63 49.978 39.459 51.758 21.248 59.533.12 61.546" stroke="url(#paint39_linear)"/><path opacity=".4" d="M374.841 63.02c-16.947-.326-32.009-6.551-49.245-4.223-15.029 2.018-27.251 8.083-42.071 10.42-15.401 2.428-33.435-.767-48.43-3.015-14.877-2.232-29.182-5.358-43.848-7.961-13.05-2.315-21.409 2.413-32.968 4.847-7.185 1.508-13.285 1.019-20.064-.905a302.23 302.23 0 00-26.681-6.281c-15.463-2.9-34.73-6.014-51.075-4.61-21.019 1.81-39.417 9.08-60.347 11.197" stroke="url(#paint40_linear)"/><path opacity=".4" d="M374.836 64.057c-17.049-.334-32.109-6.62-49.472-4.323-15.018 1.987-27.337 7.95-42.173 10.215-15.388 2.348-33.309-.858-48.283-3.078-14.773-2.19-29.065-5.239-43.718-7.621-12.962-2.111-21.641 2.423-33.291 4.648-7.235 1.38-13.381.838-20.145-1.056a278.91 278.91 0 00-26.543-6.087c-15.522-2.767-34.634-5.56-50.932-4.139-20.862 1.81-39.435 8.58-60.167 10.785" stroke="url(#paint41_linear)"/><path opacity=".4" d="M374.83 65.07c-17.155-.348-32.228-6.694-49.704-4.429-15.026 1.941-27.441 7.801-42.295 9.988-15.372 2.262-33.168-.942-48.142-3.13-14.664-2.144-28.945-5.104-43.583-7.265-12.873-1.901-21.89 2.422-33.637 4.426-7.286 1.243-13.477.648-20.235-1.236-8.504-2.377-17.334-4.34-26.398-5.871-15.582-2.625-34.501-5.075-50.763-3.637-20.698 1.82-39.437 8.063-59.972 10.343" stroke="url(#paint42_linear)"/><path opacity=".4" d="M374.825 66.05c-17.262-.356-32.353-6.762-49.983-4.535-15.002 1.897-27.521 7.642-42.391 9.746-15.352 2.174-33.027-1.024-47.967-3.167-14.557-2.093-28.828-4.955-43.435-6.896-12.793-1.7-22.166 2.413-34.004 4.187-7.338 1.102-13.579.452-20.339-1.42-8.44-2.329-17.222-4.216-26.242-5.638-15.684-2.473-34.368-4.54-50.604-3.105-20.537 1.81-39.424 7.528-59.764 9.873" stroke="url(#paint43_linear)"/><path opacity=".4" d="M374.82 67.016c-17.384-.379-32.507-6.846-50.261-4.661-14.998 1.844-27.629 7.475-42.506 9.492-15.342 2.076-32.884-1.103-47.803-3.21-14.448-2.04-28.708-4.794-43.276-6.514-12.717-1.508-22.46 2.384-34.386 3.92-7.394.958-13.681.239-20.452-1.607-8.375-2.277-17.109-4.082-26.08-5.391-15.78-2.31-34.204-3.98-50.42-2.544-20.375 1.802-39.398 6.974-59.545 9.374" stroke="url(#paint44_linear)"/><path opacity=".4" d="M374.815 67.95c-17.51-.398-32.658-6.928-50.559-4.791-14.987 1.79-27.717 7.301-42.623 9.226-15.32 1.978-32.727-1.178-47.623-3.238-14.343-1.983-28.586-4.62-43.106-6.12-12.653-1.308-22.773 2.349-34.79 3.656-7.445.81-13.777.02-20.571-1.81-8.311-2.22-16.993-3.938-25.911-5.127-15.874-2.135-34.017-3.39-50.225-1.96-20.217 1.78-39.359 6.407-59.32 8.854" stroke="url(#paint45_linear)"/><path opacity=".4" d="M374.809 68.855c-17.632-.42-32.819-7.011-50.858-4.926-14.989 1.733-27.826 7.123-42.751 8.952-15.299 1.874-32.567-1.25-47.452-3.262-14.243-1.926-28.464-4.437-42.938-5.718-12.598-1.115-23.103 2.304-35.207 3.37-7.499.662-13.875-.203-20.695-2.005-8.246-2.163-16.878-3.793-25.74-4.86-15.98-1.95-33.814-2.776-50.016-1.357-20.037 1.759-39.294 5.827-59.071 8.316" stroke="url(#paint46_linear)"/><path opacity=".4" d="M374.804 69.73c-17.76-.442-32.986-7.087-51.174-5.065-14.989 1.672-27.933 6.94-42.876 8.67-15.276 1.764-32.405-1.322-47.272-3.282-14.146-1.865-28.342-4.242-42.753-5.307-12.554-.927-23.441 2.25-35.623 3.074-7.546.51-13.971-.433-20.818-2.212-8.182-2.102-16.761-3.638-25.562-4.577-16.082-1.754-33.601-2.145-49.803-.736C39.031 62.023 19.7 65.529.093 68.054" stroke="url(#paint47_linear)"/><path opacity=".4" d="M374.798 70.574c-17.89-.464-33.161-7.177-51.494-5.208-14.987 1.612-28.045 6.753-43.003 8.375-15.253 1.659-32.239-1.391-47.103-3.298-14.052-1.81-28.217-4.04-42.568-4.889-12.53-.742-23.79 2.187-36.065 2.769-7.602.36-14.053-.666-20.964-2.422-8.119-2.038-16.646-3.48-25.383-4.288C71.526 58.1 35.57 64.025.057 68.7" stroke="url(#paint48_linear)"/><path opacity=".4" d="M374.794 71.393c-18.023-.49-33.338-7.263-51.822-5.356-14.987 1.548-28.155 6.56-43.134 8.088-15.227 1.553-32.069-1.46-46.902-3.31-13.972-1.748-28.094-3.833-42.381-4.462-12.527-.557-24.141 2.111-36.507 2.458-7.646.211-14.151-.905-21.102-2.635-8.025-2.01-16.548-3.292-25.201-4-35.758-2.93-73.054 2.51-107.68 7.152" stroke="url(#paint49_linear)"/><path opacity=".4" d="M374.787 72.177c-18.155-.516-33.518-7.348-52.153-5.503-14.987 1.488-28.267 6.367-43.264 7.792-15.201 1.443-31.897-1.53-46.714-3.318-13.896-1.681-27.969-3.62-42.191-4.043-12.551-.374-24.492 2.042-36.952 2.143-7.69.062-14.237-1.142-21.243-2.85-7.973-1.944-16.438-3.116-25.018-3.698-16.345-1.108-32.92-.164-49.129 1.191C38.673 65.52 19.196 67.305.06 69.924" stroke="url(#paint50_linear)"/><path opacity=".4" d="M374.783 72.928c-18.132-.531-33.474-7.375-52.091-5.69-14.927 1.358-28.233 6.047-43.113 7.469-15.042 1.437-31.402-1.415-46.089-3.137-14.198-1.658-28.581-3.512-43.115-3.744-12.902-.207-25.474 2.076-38.347 1.809-7.771-.161-14.248-1.633-21.37-3.268-7.398-1.698-15.211-2.67-23.111-3.13-16.816-.979-33.494.464-50.11 1.826-19.179 1.571-38.53 2.78-57.39 5.408" stroke="url(#paint51_linear)"/><path opacity=".4" d="M374.78 73.648c-18.257-.557-33.661-7.459-52.414-5.837-14.932 1.29-28.345 5.856-43.249 7.173-15.01 1.321-31.24-1.49-45.906-3.156-14.131-1.607-28.459-3.317-42.917-3.317-12.978 0-25.828 1.98-38.808 1.474-7.781-.301-14.312-1.858-21.49-3.457-7.348-1.638-15.108-2.508-22.941-2.852-16.871-.74-33.26 1.164-49.873 2.488C38.128 67.683 18.78 68.33.052 70.99" stroke="url(#paint52_linear)"/><path opacity=".4" d="M374.775 74.332c-18.396-.583-33.831-7.54-52.743-5.982-14.937 1.23-28.454 5.667-43.379 6.883-14.976 1.223-31.081-1.569-45.739-3.181-14.053-1.548-28.326-3.105-42.709-2.885-13.071.2-26.174 1.884-39.263 1.144-7.792-.442-14.375-2.082-21.599-3.647-7.287-1.58-15.01-2.346-22.77-2.574-16.915-.5-33.034 1.858-49.641 3.146-18.935 1.469-38.254 1.55-56.873 4.243" stroke="url(#paint53_linear)"/><path opacity=".4" d="M374.77 74.983c-18.523-.603-34.021-7.618-53.068-6.126-14.94 1.172-28.562 5.488-43.507 6.595-14.948 1.107-30.921-1.647-45.541-3.203-14.018-1.493-28.224-2.903-42.529-2.461-13.186.407-26.512 1.789-39.711.816-7.807-.575-14.437-2.303-21.729-3.832s-14.916-2.187-22.604-2.301c-16.915-.255-32.82 2.544-49.41 3.795-18.824 1.42-38.128.938-56.622 3.67" stroke="url(#paint54_linear)"/><path opacity=".4" d="M374.768 75.598c-18.651-.634-34.204-7.691-53.386-6.268-14.948 1.115-28.666 5.3-43.635 6.313-14.906 1.009-30.78-1.727-45.374-3.23-13.976-1.439-28.104-2.7-42.339-2.042-13.316.617-26.84 1.698-40.156.498-7.783-.703-14.492-2.522-21.835-4.016-7.209-1.466-14.833-2.03-22.437-2.035-16.915-.011-32.617 3.216-49.184 4.434-18.736 1.379-37.993.334-56.373 3.11" stroke="url(#paint55_linear)"/><path opacity=".4" d="M374.765 76.176c-18.776-.654-34.376-7.77-53.696-6.402-14.956 1.056-28.773 5.127-43.76 6.032-14.891.905-30.605-1.809-45.201-3.26-13.949-1.38-28.006-2.502-42.158-1.629-13.459.83-27.157 1.611-40.595.187-7.781-.822-14.547-2.732-21.945-4.192-7.175-1.414-14.734-1.878-22.268-1.774-16.889.227-32.427 3.867-48.97 5.057-18.63 1.34-37.837-.268-56.131 2.564" stroke="url(#paint56_linear)"/><path opacity=".4" d="M374.76 76.717c-18.893-.677-34.547-7.841-53.996-6.533-14.961 1.01-28.884 4.95-43.879 5.769-14.859.81-30.446-1.9-45.034-3.296-13.923-1.328-27.91-2.308-41.98-1.225-13.61 1.046-27.478 1.532-41.01-.11-7.773-.943-14.596-2.944-22.059-4.374-7.131-1.357-14.651-1.731-22.12-1.525-16.844.464-32.25 4.499-48.764 5.663-18.541 1.308-37.691-.858-55.897 2.03" stroke="url(#paint57_linear)"/><path opacity=".4" d="M374.758 77.22c-18.998-.697-34.709-7.913-54.28-6.657-14.971.962-28.973 4.784-43.999 5.512-14.834.718-30.308-1.988-44.873-3.336-13.904-1.29-27.821-2.122-41.808-.834-13.769 1.267-27.761 1.463-41.41-.392-7.758-1.055-14.646-3.147-22.159-4.543-7.093-1.319-14.573-1.591-21.963-1.287-16.785.692-32.084 5.1-48.566 6.25-18.477 1.283-37.549-1.437-55.674 1.52" stroke="url(#paint58_linear)"/><path opacity=".4" d="M374.755 77.684c-19.115-.715-34.87-7.979-54.551-6.772-14.984.916-29.069 4.624-44.114 5.264-14.809.629-30.163-2.076-44.715-3.383-13.891-1.246-27.741-1.94-41.65-.452-13.909 1.489-28.04 1.4-41.795-.659-7.739-1.16-14.695-3.317-22.25-4.708-7.026-1.296-14.515-1.458-21.815-1.056-16.717.905-31.93 5.669-48.379 6.803-18.395 1.269-37.413-2.003-55.46 1.035" stroke="url(#paint59_linear)"/><path opacity=".4" d="M374.739 78.115c-19.219-.73-35.008-8.042-54.806-6.882-14.979.873-29.148 4.47-44.21 5.026-14.776.546-30.031-2.169-44.567-3.437-13.884-1.207-27.668-1.77-41.496-.085-14.089 1.715-28.302 1.358-42.157-.905-7.724-1.257-14.74-3.497-22.339-4.867-6.997-1.263-14.447-1.335-21.671-.85-7.883.529-15.567 1.741-23.135 3.086-8.165 1.45-16.568 3.66-25.075 4.246-18.333 1.262-37.286-2.552-55.26.575" stroke="url(#paint60_linear)"/><path opacity=".4" d="M374.739 78.492c-19.312-.742-35.131-8.101-55.043-6.98-14.992.844-29.236 4.34-44.317 4.814-14.753.47-29.897-2.262-44.421-3.498-13.883-1.18-27.613-1.61-41.361.265-14.242 1.942-28.549 1.326-42.505-1.132-7.69-1.358-14.766-3.665-22.403-5.016-6.969-1.232-14.386-1.223-21.54-.656-7.866.621-15.506 1.94-23.03 3.37-8.106 1.541-16.522 3.867-25.026 4.456-18.276 1.266-37.168-3.084-55.072.151" stroke="url(#paint61_linear)"/><path opacity=".4" d="M374.739 78.835c-19.402-.754-35.262-8.157-55.26-7.07-15.002.817-29.314 4.209-44.408 4.614-14.731.397-29.775-2.366-44.288-3.57-13.886-1.151-27.566-1.46-41.233.603-14.406 2.167-28.779 1.307-42.834-1.34-7.661-1.44-14.788-3.82-22.465-5.156-6.94-1.206-14.313-1.121-21.414-.48-7.849.708-15.45 2.126-22.934 3.635-8.052 1.624-16.478 4.053-24.982 4.65-18.216 1.283-37.064-3.596-54.908-.245" stroke="url(#paint62_linear)"/><path opacity=".4" d="M374.739 79.134c-19.482-.754-35.368-8.208-55.453-7.146-15.02.795-29.405 4.093-44.515 4.432-14.715.332-29.665-2.472-44.162-3.652-13.891-1.13-27.532-1.325-41.116.915-14.555 2.4-28.964 1.314-43.117-1.508-7.635-1.525-14.81-3.964-22.518-5.288-6.917-1.188-14.263-1.037-21.297-.327-7.838.79-15.398 2.297-22.848 3.88-8.007 1.702-16.439 4.213-24.953 4.825-18.18 1.31-36.981-4.087-54.747-.603" stroke="url(#paint63_linear)"/><path opacity=".4" d="M374.739 79.391c-19.558-.754-35.46-8.255-55.622-7.21-15.024.779-29.474 3.989-44.594 4.276-14.701.272-29.552-2.58-44.05-3.745-13.899-1.115-27.514-1.206-41.019 1.206-14.706 2.629-29.123 1.338-43.381-1.659-7.601-1.597-14.817-4.094-22.554-5.409-6.896-1.173-14.205-.965-21.19-.196-7.828.864-15.354 2.454-22.772 4.102-7.971 1.772-16.395 4.348-24.933 4.977-18.14 1.35-36.919-4.554-54.614-.917" stroke="url(#paint64_linear)"/><path opacity=".4" d="M374.739 79.605c-19.462-.754-35.311-8.255-55.356-7.282-15.839.768-31.152 4.234-47.134 4.163-13.665-.06-27.377-2.661-40.875-3.78-14.341-1.189-28.068-1.155-41.957 1.389-15.4 2.814-29.83 1.334-44.673-2.012-6.654-1.499-12.993-3.543-19.697-4.948-7.094-1.485-14.882-1.34-22.182-.516-8.283.936-16.212 2.715-24.024 4.525-7.875 1.83-16.246 4.407-24.737 5.01-17.956 1.269-36.63-4.992-54.091-1.216" stroke="url(#paint65_linear)"/><path opacity=".4" d="M374.739 79.773c-19.516-.743-35.366-8.293-55.466-7.32-15.844.77-31.227 4.156-47.205 4.042-13.654-.098-27.295-2.772-40.785-3.892-14.352-1.191-28.076-1.073-41.897 1.636-15.557 3.052-29.911 1.4-44.877-2.111-6.622-1.553-12.98-3.616-19.702-5.022-7.078-1.486-14.833-1.312-22.09-.44-8.278.994-16.176 2.85-23.965 4.708-7.864 1.876-16.233 4.482-24.745 5.116C36.085 77.813 17.39 71.083.01 75.042" stroke="url(#paint66_linear)"/><path opacity=".4" d="M374.739 79.894c-19.556-.731-35.392-8.327-55.549-7.337-15.847.777-31.264 4.09-47.262 3.941-13.649-.126-27.225-2.886-40.711-4.016-14.359-1.206-28.104-1.015-41.836 1.858-15.708 3.285-29.947 1.493-45.041-2.166-6.607-1.6-12.98-3.683-19.707-5.105-7.073-1.495-14.76-1.306-22.013-.394-16.756 2.111-31.768 8.72-48.686 10.054C36.044 78.139 17.3 70.955.01 75.112" stroke="url(#paint67_linear)"/><path opacity=".4" d="M374.739 79.971c-19.586-.716-35.417-8.357-55.598-7.344-15.85.798-31.319 4.046-47.309 3.873-13.651-.151-27.168-3.007-40.647-4.156-14.365-1.225-28.157-.978-41.811 2.05-15.846 3.516-29.927 1.62-45.163-2.186-6.553-1.633-12.941-3.797-19.684-5.164-7.161-1.449-14.617-1.33-21.947-.378-16.785 2.184-31.714 8.8-48.692 10.229C36.021 78.403 17.196 70.78.021 75.158" stroke="url(#paint68_linear)"/><path opacity=".4" d="M374.739 80c-19.607-.695-35.41-8.382-55.611-7.33-15.85.824-31.34 4.018-47.361 3.83-13.654-.158-27.119-3.136-40.596-4.311-14.364-1.254-28.229-.965-41.803 2.215-15.967 3.744-29.851 1.78-45.233-2.17-14.052-3.608-25.63-7.714-41.543-5.6-16.829 2.237-31.688 8.797-48.725 10.34-17.846 1.62-36.77-6.416-53.867-1.809" stroke="url(#paint69_linear)"/></g></g><defs><linearGradient id="paint0_linear" x1="187" y1="53" x2="187" y2="80" gradientUnits="userSpaceOnUse"><stop stop-color="#0D0D0D"/><stop offset=".552" stop-color="#0D0D0D"/><stop offset="1" stop-color="#0D0D0D" stop-opacity="0"/></linearGradient><linearGradient id="paint1_linear" x1="-nan" y1="-nan" x2="-nan" y2="-nan" gradientUnits="userSpaceOnUse"><stop offset=".141" stop-color="#E9D1A2" stop-opacity=".433"/><stop offset=".802" stop-color="#E2B155" stop-opacity=".26"/></linearGradient><linearGradient id="paint2_linear" x1="187.64" y1="3.19" x2="187.64" y2="2.244" gradientUnits="userSpaceOnUse"><stop offset=".141" stop-color="#E9D1A2" stop-opacity=".433"/><stop offset=".802" stop-color="#E2B155" stop-opacity=".26"/></linearGradient><linearGradient id="paint3_linear" x1="187.635" y1="6.027" x2="187.635" y2="4.28" gradientUnits="userSpaceOnUse"><stop offset=".141" stop-color="#E9D1A2" stop-opacity=".433"/><stop offset=".802" stop-color="#E2B155" stop-opacity=".26"/></linearGradient><linearGradient id="paint4_linear" x1="187.635" y1="8.813" x2="187.635" y2="5.884" gradientUnits="userSpaceOnUse"><stop offset=".141" stop-color="#E9D1A2" stop-opacity=".433"/><stop offset=".802" stop-color="#E2B155" stop-opacity=".26"/></linearGradient><linearGradient id="paint5_linear" x1="187.635" y1="12.04" x2="187.635" y2="7.163" gradientUnits="userSpaceOnUse"><stop offset=".141" stop-color="#E9D1A2" stop-opacity=".433"/><stop offset=".802" stop-color="#E2B155" stop-opacity=".26"/></linearGradient><linearGradient id="paint6_linear" x1="187.635" y1="15.205" x2="187.635" y2="8.189" gradientUnits="userSpaceOnUse"><stop offset=".141" stop-color="#E9D1A2" stop-opacity=".433"/><stop offset=".802" stop-color="#E2B155" stop-opacity=".26"/></linearGradient><linearGradient id="paint7_linear" x1="187.635" y1="18.638" x2="187.635" y2="9.024" gradientUnits="userSpaceOnUse"><stop offset=".141" stop-color="#E9D1A2" stop-opacity=".433"/><stop offset=".802" stop-color="#E2B155" stop-opacity=".26"/></linearGradient><linearGradient id="paint8_linear" x1="187.638" y1="22.081" x2="187.638" y2="9.736" gradientUnits="userSpaceOnUse"><stop offset=".141" stop-color="#E9D1A2" stop-opacity=".433"/><stop offset=".802" stop-color="#E2B155" stop-opacity=".26"/></linearGradient><linearGradient id="paint9_linear" x1="187.634" y1="25.475" x2="187.634" y2="10.391" gradientUnits="userSpaceOnUse"><stop offset=".141" stop-color="#E9D1A2" stop-opacity=".433"/><stop offset=".802" stop-color="#E2B155" stop-opacity=".26"/></linearGradient><linearGradient id="paint10_linear" x1="187.627" y1="28.759" x2="187.627" y2="11.071" gradientUnits="userSpaceOnUse"><stop offset=".141" stop-color="#E9D1A2" stop-opacity=".433"/><stop offset=".802" stop-color="#E2B155" stop-opacity=".26"/></linearGradient><linearGradient id="paint11_linear" x1="187.619" y1="32.113" x2="187.619" y2="11.841" gradientUnits="userSpaceOnUse"><stop offset=".141" stop-color="#E9D1A2" stop-opacity=".433"/><stop offset=".802" stop-color="#E2B155" stop-opacity=".26"/></linearGradient><linearGradient id="paint12_linear" x1="187.617" y1="35.014" x2="187.617" y2="12.754" gradientUnits="userSpaceOnUse"><stop offset=".141" stop-color="#E9D1A2" stop-opacity=".433"/><stop offset=".802" stop-color="#E2B155" stop-opacity=".26"/></linearGradient><linearGradient id="paint13_linear" x1="187.615" y1="37.616" x2="187.615" y2="13.88" gradientUnits="userSpaceOnUse"><stop offset=".141" stop-color="#E9D1A2" stop-opacity=".433"/><stop offset=".802" stop-color="#E2B155" stop-opacity=".26"/></linearGradient><linearGradient id="paint14_linear" x1="187.604" y1="39.847" x2="187.604" y2="15.315" gradientUnits="userSpaceOnUse"><stop offset=".141" stop-color="#E9D1A2" stop-opacity=".433"/><stop offset=".802" stop-color="#E2B155" stop-opacity=".26"/></linearGradient><linearGradient id="paint15_linear" x1="187.607" y1="41.948" x2="187.607" y2="17.052" gradientUnits="userSpaceOnUse"><stop offset=".141" stop-color="#E9D1A2" stop-opacity=".433"/><stop offset=".802" stop-color="#E2B155" stop-opacity=".26"/></linearGradient><linearGradient id="paint16_linear" x1="187.608" y1="44.056" x2="187.608" y2="18.792" gradientUnits="userSpaceOnUse"><stop offset=".141" stop-color="#E9D1A2" stop-opacity=".433"/><stop offset=".802" stop-color="#E2B155" stop-opacity=".26"/></linearGradient><linearGradient id="paint17_linear" x1="187.602" y1="45.946" x2="187.602" y2="20.468" gradientUnits="userSpaceOnUse"><stop offset=".141" stop-color="#E9D1A2" stop-opacity=".433"/><stop offset=".802" stop-color="#E2B155" stop-opacity=".26"/></linearGradient><linearGradient id="paint18_linear" x1="187.591" y1="47.65" x2="187.591" y2="22.1" gradientUnits="userSpaceOnUse"><stop offset=".141" stop-color="#E9D1A2" stop-opacity=".433"/><stop offset=".802" stop-color="#E2B155" stop-opacity=".26"/></linearGradient><linearGradient id="paint19_linear" x1="187.591" y1="49.177" x2="187.591" y2="23.68" gradientUnits="userSpaceOnUse"><stop offset=".141" stop-color="#E9D1A2" stop-opacity=".433"/><stop offset=".802" stop-color="#E2B155" stop-opacity=".26"/></linearGradient><linearGradient id="paint20_linear" x1="187.586" y1="50.542" x2="187.586" y2="25.211" gradientUnits="userSpaceOnUse"><stop offset=".141" stop-color="#E9D1A2" stop-opacity=".433"/><stop offset=".802" stop-color="#E2B155" stop-opacity=".26"/></linearGradient><linearGradient id="paint21_linear" x1="187.579" y1="51.616" x2="187.579" y2="26.684" gradientUnits="userSpaceOnUse"><stop offset=".141" stop-color="#E9D1A2" stop-opacity=".433"/><stop offset=".802" stop-color="#E2B155" stop-opacity=".26"/></linearGradient><linearGradient id="paint22_linear" x1="187.572" y1="52.79" x2="187.572" y2="28.121" gradientUnits="userSpaceOnUse"><stop offset=".141" stop-color="#E9D1A2" stop-opacity=".433"/><stop offset=".802" stop-color="#E2B155" stop-opacity=".26"/></linearGradient><linearGradient id="paint23_linear" x1="187.575" y1="53.872" x2="187.575" y2="29.524" gradientUnits="userSpaceOnUse"><stop offset=".141" stop-color="#E9D1A2" stop-opacity=".433"/><stop offset=".802" stop-color="#E2B155" stop-opacity=".26"/></linearGradient><linearGradient id="paint24_linear" x1="187.565" y1="54.885" x2="187.565" y2="30.879" gradientUnits="userSpaceOnUse"><stop offset=".141" stop-color="#E9D1A2" stop-opacity=".433"/><stop offset=".802" stop-color="#E2B155" stop-opacity=".26"/></linearGradient><linearGradient id="paint25_linear" x1="187.555" y1="55.848" x2="187.555" y2="32.206" gradientUnits="userSpaceOnUse"><stop offset=".141" stop-color="#E9D1A2" stop-opacity=".433"/><stop offset=".802" stop-color="#E2B155" stop-opacity=".26"/></linearGradient><linearGradient id="paint26_linear" x1="187.557" y1="56.782" x2="187.557" y2="33.507" gradientUnits="userSpaceOnUse"><stop offset=".141" stop-color="#E9D1A2" stop-opacity=".433"/><stop offset=".802" stop-color="#E2B155" stop-opacity=".26"/></linearGradient><linearGradient id="paint27_linear" x1="187.549" y1="57.574" x2="187.549" y2="34.783" gradientUnits="userSpaceOnUse"><stop offset=".141" stop-color="#E9D1A2" stop-opacity=".433"/><stop offset=".802" stop-color="#E2B155" stop-opacity=".26"/></linearGradient><linearGradient id="paint28_linear" x1="187.549" y1="58.481" x2="187.549" y2="36.032" gradientUnits="userSpaceOnUse"><stop offset=".141" stop-color="#E9D1A2" stop-opacity=".433"/><stop offset=".802" stop-color="#E2B155" stop-opacity=".26"/></linearGradient><linearGradient id="paint29_linear" x1="187.543" y1="59.413" x2="187.543" y2="37.268" gradientUnits="userSpaceOnUse"><stop offset=".141" stop-color="#E9D1A2" stop-opacity=".433"/><stop offset=".802" stop-color="#E2B155" stop-opacity=".26"/></linearGradient><linearGradient id="paint30_linear" x1="187.539" y1="60.385" x2="187.539" y2="38.476" gradientUnits="userSpaceOnUse"><stop offset=".141" stop-color="#E9D1A2" stop-opacity=".433"/><stop offset=".802" stop-color="#E2B155" stop-opacity=".26"/></linearGradient><linearGradient id="paint31_linear" x1="187.523" y1="61.404" x2="187.523" y2="39.699" gradientUnits="userSpaceOnUse"><stop offset=".141" stop-color="#E9D1A2" stop-opacity=".433"/><stop offset=".802" stop-color="#E2B155" stop-opacity=".26"/></linearGradient><linearGradient id="paint32_linear" x1="187.524" y1="62.515" x2="187.524" y2="40.904" gradientUnits="userSpaceOnUse"><stop offset=".141" stop-color="#E9D1A2" stop-opacity=".433"/><stop offset=".802" stop-color="#E2B155" stop-opacity=".26"/></linearGradient><linearGradient id="paint33_linear" x1="187.515" y1="63.681" x2="187.515" y2="42.108" gradientUnits="userSpaceOnUse"><stop offset=".141" stop-color="#E9D1A2" stop-opacity=".433"/><stop offset=".802" stop-color="#E2B155" stop-opacity=".26"/></linearGradient><linearGradient id="paint34_linear" x1="187.507" y1="64.782" x2="187.507" y2="43.338" gradientUnits="userSpaceOnUse"><stop offset=".141" stop-color="#E9D1A2" stop-opacity=".433"/><stop offset=".802" stop-color="#E2B155" stop-opacity=".26"/></linearGradient><linearGradient id="paint35_linear" x1="187.505" y1="65.823" x2="187.505" y2="44.577" gradientUnits="userSpaceOnUse"><stop offset=".141" stop-color="#E9D1A2" stop-opacity=".433"/><stop offset=".802" stop-color="#E2B155" stop-opacity=".26"/></linearGradient><linearGradient id="paint36_linear" x1="187.496" y1="66.793" x2="187.496" y2="45.844" gradientUnits="userSpaceOnUse"><stop offset=".141" stop-color="#E9D1A2" stop-opacity=".433"/><stop offset=".802" stop-color="#E2B155" stop-opacity=".26"/></linearGradient><linearGradient id="paint37_linear" x1="187.494" y1="67.702" x2="187.494" y2="47.109" gradientUnits="userSpaceOnUse"><stop offset=".141" stop-color="#E9D1A2" stop-opacity=".433"/><stop offset=".802" stop-color="#E2B155" stop-opacity=".26"/></linearGradient><linearGradient id="paint38_linear" x1="187.483" y1="68.558" x2="187.483" y2="48.392" gradientUnits="userSpaceOnUse"><stop offset=".141" stop-color="#E9D1A2" stop-opacity=".433"/><stop offset=".802" stop-color="#E2B155" stop-opacity=".26"/></linearGradient><linearGradient id="paint39_linear" x1="187.483" y1="69.348" x2="187.483" y2="49.662" gradientUnits="userSpaceOnUse"><stop offset=".141" stop-color="#E9D1A2" stop-opacity=".433"/><stop offset=".802" stop-color="#E2B155" stop-opacity=".26"/></linearGradient><linearGradient id="paint40_linear" x1="187.476" y1="70.087" x2="187.476" y2="50.944" gradientUnits="userSpaceOnUse"><stop offset=".141" stop-color="#E9D1A2" stop-opacity=".433"/><stop offset=".802" stop-color="#E2B155" stop-opacity=".26"/></linearGradient><linearGradient id="paint41_linear" x1="187.474" y1="70.771" x2="187.474" y2="52.233" gradientUnits="userSpaceOnUse"><stop offset=".141" stop-color="#E9D1A2" stop-opacity=".433"/><stop offset=".802" stop-color="#E2B155" stop-opacity=".26"/></linearGradient><linearGradient id="paint42_linear" x1="187.466" y1="71.403" x2="187.466" y2="53.49" gradientUnits="userSpaceOnUse"><stop offset=".141" stop-color="#E9D1A2" stop-opacity=".433"/><stop offset=".802" stop-color="#E2B155" stop-opacity=".26"/></linearGradient><linearGradient id="paint43_linear" x1="187.461" y1="71.987" x2="187.461" y2="54.75" gradientUnits="userSpaceOnUse"><stop offset=".141" stop-color="#E9D1A2" stop-opacity=".433"/><stop offset=".802" stop-color="#E2B155" stop-opacity=".26"/></linearGradient><linearGradient id="paint44_linear" x1="187.456" y1="72.522" x2="187.456" y2="55.967" gradientUnits="userSpaceOnUse"><stop offset=".141" stop-color="#E9D1A2" stop-opacity=".433"/><stop offset=".802" stop-color="#E2B155" stop-opacity=".26"/></linearGradient><linearGradient id="paint45_linear" x1="187.451" y1="73.011" x2="187.451" y2="57.175" gradientUnits="userSpaceOnUse"><stop offset=".141" stop-color="#E9D1A2" stop-opacity=".433"/><stop offset=".802" stop-color="#E2B155" stop-opacity=".26"/></linearGradient><linearGradient id="paint46_linear" x1="187.445" y1="73.457" x2="187.445" y2="58.336" gradientUnits="userSpaceOnUse"><stop offset=".141" stop-color="#E9D1A2" stop-opacity=".433"/><stop offset=".802" stop-color="#E2B155" stop-opacity=".26"/></linearGradient><linearGradient id="paint47_linear" x1="187.449" y1="73.86" x2="187.449" y2="59.439" gradientUnits="userSpaceOnUse"><stop offset=".141" stop-color="#E9D1A2" stop-opacity=".433"/><stop offset=".802" stop-color="#E2B155" stop-opacity=".26"/></linearGradient><linearGradient id="paint48_linear" x1="187.428" y1="74.219" x2="187.428" y2="60.549" gradientUnits="userSpaceOnUse"><stop offset=".141" stop-color="#E9D1A2" stop-opacity=".433"/><stop offset=".802" stop-color="#E2B155" stop-opacity=".26"/></linearGradient><linearGradient id="paint49_linear" x1="187.43" y1="74.555" x2="187.43" y2="61.348" gradientUnits="userSpaceOnUse"><stop offset=".141" stop-color="#E9D1A2" stop-opacity=".433"/><stop offset=".802" stop-color="#E2B155" stop-opacity=".26"/></linearGradient><linearGradient id="paint50_linear" x1="187.423" y1="74.849" x2="187.423" y2="62.212" gradientUnits="userSpaceOnUse"><stop offset=".141" stop-color="#E9D1A2" stop-opacity=".433"/><stop offset=".802" stop-color="#E2B155" stop-opacity=".26"/></linearGradient><linearGradient id="paint51_linear" x1="187.415" y1="75.099" x2="187.415" y2="62.915" gradientUnits="userSpaceOnUse"><stop offset=".141" stop-color="#E9D1A2" stop-opacity=".433"/><stop offset=".802" stop-color="#E2B155" stop-opacity=".26"/></linearGradient><linearGradient id="paint52_linear" x1="187.416" y1="75.327" x2="187.416" y2="63.51" gradientUnits="userSpaceOnUse"><stop offset=".141" stop-color="#E9D1A2" stop-opacity=".433"/><stop offset=".802" stop-color="#E2B155" stop-opacity=".26"/></linearGradient><linearGradient id="paint53_linear" x1="187.417" y1="75.534" x2="187.417" y2="64.022" gradientUnits="userSpaceOnUse"><stop offset=".141" stop-color="#E9D1A2" stop-opacity=".433"/><stop offset=".802" stop-color="#E2B155" stop-opacity=".26"/></linearGradient><linearGradient id="paint54_linear" x1="187.409" y1="75.708" x2="187.409" y2="64.455" gradientUnits="userSpaceOnUse"><stop offset=".141" stop-color="#E9D1A2" stop-opacity=".433"/><stop offset=".802" stop-color="#E2B155" stop-opacity=".26"/></linearGradient><linearGradient id="paint55_linear" x1="187.409" y1="75.861" x2="187.409" y2="64.818" gradientUnits="userSpaceOnUse"><stop offset=".141" stop-color="#E9D1A2" stop-opacity=".433"/><stop offset=".802" stop-color="#E2B155" stop-opacity=".26"/></linearGradient><linearGradient id="paint56_linear" x1="187.403" y1="76.176" x2="187.403" y2="65.124" gradientUnits="userSpaceOnUse"><stop offset=".141" stop-color="#E9D1A2" stop-opacity=".433"/><stop offset=".802" stop-color="#E2B155" stop-opacity=".26"/></linearGradient><linearGradient id="paint57_linear" x1="187.391" y1="76.717" x2="187.391" y2="65.37" gradientUnits="userSpaceOnUse"><stop offset=".141" stop-color="#E9D1A2" stop-opacity=".433"/><stop offset=".802" stop-color="#E2B155" stop-opacity=".26"/></linearGradient><linearGradient id="paint58_linear" x1="187.392" y1="77.221" x2="187.392" y2="65.57" gradientUnits="userSpaceOnUse"><stop offset=".141" stop-color="#E9D1A2" stop-opacity=".433"/><stop offset=".802" stop-color="#E2B155" stop-opacity=".26"/></linearGradient><linearGradient id="paint59_linear" x1="187.391" y1="77.684" x2="187.391" y2="65.724" gradientUnits="userSpaceOnUse"><stop offset=".141" stop-color="#E9D1A2" stop-opacity=".433"/><stop offset=".802" stop-color="#E2B155" stop-opacity=".26"/></linearGradient><linearGradient id="paint60_linear" x1="187.382" y1="78.115" x2="187.382" y2="65.838" gradientUnits="userSpaceOnUse"><stop offset=".141" stop-color="#E9D1A2" stop-opacity=".433"/><stop offset=".802" stop-color="#E2B155" stop-opacity=".26"/></linearGradient><linearGradient id="paint61_linear" x1="187.38" y1="78.492" x2="187.38" y2="65.92" gradientUnits="userSpaceOnUse"><stop offset=".141" stop-color="#E9D1A2" stop-opacity=".433"/><stop offset=".802" stop-color="#E2B155" stop-opacity=".26"/></linearGradient><linearGradient id="paint62_linear" x1="187.376" y1="78.835" x2="187.376" y2="65.975" gradientUnits="userSpaceOnUse"><stop offset=".141" stop-color="#E9D1A2" stop-opacity=".433"/><stop offset=".802" stop-color="#E2B155" stop-opacity=".26"/></linearGradient><linearGradient id="paint63_linear" x1="187.376" y1="79.134" x2="187.376" y2="66.01" gradientUnits="userSpaceOnUse"><stop offset=".141" stop-color="#E9D1A2" stop-opacity=".433"/><stop offset=".802" stop-color="#E2B155" stop-opacity=".26"/></linearGradient><linearGradient id="paint64_linear" x1="187.374" y1="79.391" x2="187.374" y2="66.024" gradientUnits="userSpaceOnUse"><stop offset=".141" stop-color="#E9D1A2" stop-opacity=".433"/><stop offset=".802" stop-color="#E2B155" stop-opacity=".26"/></linearGradient><linearGradient id="paint65_linear" x1="187.376" y1="79.605" x2="187.376" y2="66.005" gradientUnits="userSpaceOnUse"><stop offset=".141" stop-color="#E9D1A2" stop-opacity=".433"/><stop offset=".802" stop-color="#E2B155" stop-opacity=".26"/></linearGradient><linearGradient id="paint66_linear" x1="187.374" y1="79.773" x2="187.374" y2="65.999" gradientUnits="userSpaceOnUse"><stop offset=".141" stop-color="#E9D1A2" stop-opacity=".433"/><stop offset=".802" stop-color="#E2B155" stop-opacity=".26"/></linearGradient><linearGradient id="paint67_linear" x1="187.374" y1="79.894" x2="187.374" y2="65.968" gradientUnits="userSpaceOnUse"><stop offset=".141" stop-color="#E9D1A2" stop-opacity=".433"/><stop offset=".802" stop-color="#E2B155" stop-opacity=".26"/></linearGradient><linearGradient id="paint68_linear" x1="187.38" y1="79.971" x2="187.38" y2="65.952" gradientUnits="userSpaceOnUse"><stop offset=".141" stop-color="#E9D1A2" stop-opacity=".433"/><stop offset=".802" stop-color="#E2B155" stop-opacity=".26"/></linearGradient><linearGradient id="paint69_linear" x1="187.37" y1="80" x2="187.37" y2="66.057" gradientUnits="userSpaceOnUse"><stop offset=".141" stop-color="#E9D1A2" stop-opacity=".433"/><stop offset=".802" stop-color="#E2B155" stop-opacity=".26"/></linearGradient><clipPath id="clip0"><path fill="#fff" d="M0 0h375v80H0z"/></clipPath></defs></svg>