<svg width="60" height="60" fill="none" xmlns="http://www.w3.org/2000/svg"><g clip-path="url(#clip0)"><path clip-rule="evenodd" d="M5.51 13.78l10.854 10.852L5.51 13.78zm17.99 3.713L12.65 6.643l10.85 10.85zm16.878 7.14L51.23 13.778 40.379 24.632zm3.713-17.99l-10.853 10.85 10.853-10.85zM33.238 41.507L44.091 52.36 33.238 41.507zm17.992 3.716L40.379 34.371 51.23 45.223zM16.364 34.371L5.51 45.223l10.853-10.852zM12.65 52.36L23.5 41.507 12.65 52.36zm15.72-10.035c7.083 0 12.826-5.743 12.826-12.825 0-7.082-5.743-12.825-12.825-12.825-7.083 0-12.825 5.743-12.825 12.825 0 7.082 5.742 12.825 12.825 12.825zm0 15.675c15.741 0 28.5-12.76 28.5-28.5C56.87 13.762 44.112 1 28.37 1 12.63 1-.13 13.762-.13 29.5c0 15.74 12.76 28.5 28.5 28.5z" stroke="#FFC14C" stroke-linecap="square"/></g><defs><clipPath id="clip0"><path fill="#fff" d="M0 0h60v60H0z"/></clipPath></defs></svg>