<svg width="91" height="101" fill="none" xmlns="http://www.w3.org/2000/svg"><g clip-path="url(#clip0)"><path d="M33.889 15.201a2.07 2.07 0 00-.982.255 2.076 2.076 0 00-.803 2.806l2.232 4.03c-5.378 3.328-8.941 9.01-8.941 15.497v1.205a5.609 5.609 0 00-4.247-1.938 5.634 5.634 0 00-5.631 5.63v17.346a5.634 5.634 0 005.63 5.631 5.61 5.61 0 004.248-1.938v2.43c0 3.275 2.68 5.956 5.956 5.956h1.511v7.716a5.634 5.634 0 005.631 5.63 5.634 5.634 0 005.631-5.63V72.11h2.615v7.716a5.634 5.634 0 005.631 5.63 5.634 5.634 0 005.63-5.63V72.11h1.512c3.276 0 5.957-2.68 5.957-5.957v-2.43a5.609 5.609 0 004.247 1.94 5.634 5.634 0 005.63-5.632V42.687a5.634 5.634 0 00-5.63-5.631c-1.697 0-3.215.75-4.247 1.938v-1.205c0-6.485-3.572-12.163-8.948-15.49l2.239-4.037a2.077 2.077 0 00-.804-2.806 2.07 2.07 0 00-.982-.255 2.065 2.065 0 00-1.824 1.059l-2.34 4.228a21.29 21.29 0 00-7.378-1.307c-2.598 0-5.092.458-7.379 1.3l-2.34-4.221a2.066 2.066 0 00-1.824-1.059z" fill="#fff"/><path d="M21.15 38.523a4.14 4.14 0 00-4.165 4.164v17.346a4.14 4.14 0 004.165 4.164 4.14 4.14 0 004.164-4.165V42.688a4.14 4.14 0 00-4.165-4.164zm48.568 0a4.14 4.14 0 00-4.165 4.164v17.346a4.14 4.14 0 004.165 4.164 4.14 4.14 0 004.164-4.165V42.688a4.14 4.14 0 00-4.164-4.164zM38.493 58.317a4.14 4.14 0 00-4.164 4.164v17.346a4.14 4.14 0 004.164 4.164 4.14 4.14 0 004.165-4.164V62.48a4.14 4.14 0 00-4.165-4.164zm13.877 0a4.14 4.14 0 00-4.164 4.164v17.346a4.14 4.14 0 004.164 4.164 4.14 4.14 0 004.164-4.164V62.48a4.14 4.14 0 00-4.164-4.164z" fill="#A4C639"/><path d="M33.9 16.668a.577.577 0 00-.28.076.574.574 0 00-.23.804l2.934 5.3c-5.644 2.936-9.456 8.517-9.464 14.922H64c-.007-6.405-3.82-11.986-9.463-14.923l2.933-5.299a.574.574 0 00-.23-.803.582.582 0 00-.803.23l-2.972 5.356a19.798 19.798 0 00-8.035-1.684c-2.877 0-5.603.605-8.035 1.684l-2.972-5.357a.583.583 0 00-.522-.306zm-7.04 22.569v26.917a4.48 4.48 0 004.49 4.49h28.16a4.48 4.48 0 004.49-4.49V39.237H26.86z" fill="#A4C639"/><path d="M36.86 27.873a1.56 1.56 0 00-1.55 1.549c0 .848.701 1.55 1.55 1.55a1.56 1.56 0 001.549-1.55 1.56 1.56 0 00-1.55-1.55zm17.141 0a1.56 1.56 0 00-1.55 1.549c0 .848.702 1.55 1.55 1.55a1.56 1.56 0 001.55-1.55 1.56 1.56 0 00-1.55-1.55z" fill="#fff"/></g><defs><clipPath id="clip0"><path fill="#fff" transform="translate(15.517 15)" d="M0 0h60v70.547H0z"/></clipPath></defs></svg>