<svg width="91" height="96" fill="none" xmlns="http://www.w3.org/2000/svg"><g clip-path="url(#clip0)"><path d="M71.42 68.224c-.452 3.362-2.715 6.271-5.882 7.564-1.552.646-3.232.84-4.913.646-1.616-.194-3.232-.711-4.913-1.68-2.327-1.294-4.654-3.297-7.369-6.27 4.267-5.237 6.852-10.02 7.822-14.286.452-2.004.517-3.814.323-5.495-.258-1.616-.84-3.103-1.745-4.396-2.004-2.909-5.365-4.59-9.114-4.59-3.75 0-7.111 1.746-9.115 4.59-.905 1.293-1.486 2.78-1.745 4.396a13.428 13.428 0 00.323 5.495c.97 4.265 3.62 9.114 7.822 14.349-2.65 2.974-5.042 4.978-7.37 6.271-1.68.97-3.296 1.487-4.912 1.68a10.343 10.343 0 01-4.913-.645c-3.168-1.293-5.43-4.203-5.882-7.564-.194-1.616-.065-3.232.582-5.042.193-.647.517-1.292.84-2.068.453-1.034.97-2.134 1.486-3.233l.065-.128c4.46-9.633 9.244-19.458 14.221-29.024l.194-.389c.517-.968 1.034-2.002 1.552-2.972.517-1.035 1.098-2.005 1.81-2.846 1.357-1.551 3.167-2.392 5.17-2.392 2.005 0 3.814.84 5.172 2.393.711.84 1.293 1.81 1.81 2.845.517.97 1.034 2.004 1.551 2.972l.195.389A856.981 856.981 0 0168.64 57.882v.064c.517 1.035.97 2.199 1.486 3.233.324.776.647 1.421.84 2.068.518 1.68.712 3.297.453 4.977zm-25.79-3.038c-3.49-4.395-5.754-8.533-6.53-12.022-.322-1.487-.387-2.78-.193-3.944a6.284 6.284 0 011.034-2.716c1.228-1.744 3.297-2.845 5.689-2.845 2.391 0 4.524 1.035 5.688 2.845a6.272 6.272 0 011.034 2.716c.194 1.164.129 2.521-.194 3.944-.775 3.425-3.038 7.562-6.528 12.022zm29.152-3.361c-.323-.776-.646-1.616-.969-2.327-.517-1.163-1.034-2.263-1.487-3.297l-.065-.064A672.744 672.744 0 0057.975 26.92l-.194-.39a127.27 127.27 0 01-1.551-3.037c-.647-1.164-1.293-2.391-2.327-3.556-2.07-2.585-5.042-4.007-8.21-4.007-3.232 0-6.14 1.422-8.274 3.879-.97 1.163-1.68 2.39-2.327 3.555a133.328 133.328 0 01-1.552 3.039l-.194.387c-4.976 9.696-9.825 19.522-14.285 29.218l-.064.129c-.453 1.033-.97 2.132-1.488 3.296a42.817 42.817 0 00-.969 2.328c-.84 2.39-1.099 4.654-.776 6.98a13.738 13.738 0 008.404 10.731c1.68.712 3.425 1.035 5.236 1.035.517 0 1.163-.065 1.68-.13 2.133-.26 4.33-.969 6.464-2.198 2.65-1.486 5.172-3.62 8.016-6.722 2.843 3.103 5.43 5.236 8.015 6.722 2.133 1.229 4.331 1.939 6.464 2.198.517.065 1.164.13 1.68.13 1.81 0 3.62-.323 5.237-1.035 4.525-1.81 7.692-5.947 8.403-10.73.517-2.264.258-4.525-.582-6.918z" fill="#E0565B"/></g><defs><clipPath id="clip0"><path fill="#fff" transform="translate(15.63 15.93)" d="M0 0h60v64.688H0z"/></clipPath></defs></svg>