<svg width="103" height="91" fill="none" xmlns="http://www.w3.org/2000/svg"><g clip-path="url(#clip0)"><path d="M51.656 15.273c-19.335 0-34.483 24.6-35.917 45.378 6.068 10.53 20.7 14.489 35.917 14.489 15.217 0 29.85-3.959 35.914-14.49-1.433-20.777-16.58-45.377-35.914-45.377" fill="#B6DEFF"/><path d="M82.52 55.702s-4.271-9.233-8.612-14.62c-4.343-5.388-9.648-11.256-12.784-11.256-3.135 0-11.898 15.515-15.918 15.515s-6.11-7.033-11.053-7.033c-4.946 0-12.803 16.96-12.803 16.96l-.532 2.875s2.73 12.102 31.285 12.102c28.558 0 30.84-11.903 30.84-11.903l-.423-2.64" fill="#6C6"/><path d="M45.654 51.962c-4.435 0-6.708-4.376-7.941-7.077-1.108-2.433-1.3-6.275-4.445-6.382.309-.123.606-.195.885-.195 4.943 0 7.033 7.033 11.054 7.033 4.02 0 12.782-15.515 15.917-15.515.59 0 1.256.208 1.978.579-.534-.07-1.219-.021-1.746.508-1.014 1.013-10.212 21.05-15.702 21.05z" fill="#17AD49"/></g><defs><clipPath id="clip0"><path fill="#fff" transform="translate(15.517 15.273)" d="M0 0h72.113v60H0z"/></clipPath></defs></svg>