<svg width="91" height="92" fill="none" xmlns="http://www.w3.org/2000/svg"><g clip-path="url(#clip0)"><path opacity=".5" d="M45.446 24.563v17.245l14.964-8.64V15.921l-14.964 8.64z" fill="#13A049"/><path opacity=".5" d="M45.445 24.563L30.48 15.922v17.281l14.964 8.641V24.563z" fill="#A2CC39"/><path opacity=".9" d="M60.409 15.922l-14.964 8.64-14.964-8.64-14.964 8.64 29.928 17.282 29.91-17.281-14.946-8.641z" fill="url(#paint0_linear)"/><path d="M45.445 41.844L15.517 24.563v17.281l14.964 8.64v17.264l14.964 8.641 14.964-8.64V50.484l14.946-8.641v-17.28l-29.91 17.281z" fill="url(#paint1_linear)"/><path d="M45.446 41.844v34.545l14.964-8.64V50.484l14.947-8.641V24.562l-29.91 17.282z" fill="url(#paint2_linear)"/><path opacity=".05" d="M45.446 59.108v17.281l14.964-8.64-14.964-8.641z" fill="#231F20"/><path opacity=".1" d="M45.445 76.425V59.143L30.48 67.784l14.964 8.64z" fill="#231F20"/><path opacity=".05" d="M30.48 33.203l-14.963 8.64 14.964 8.642 14.964-8.641-14.964-8.64zm29.93 0l-14.964 8.641 14.964 8.64 14.947-8.64-14.947-8.64z" fill="#231F20"/></g><defs><linearGradient id="paint0_linear" x1="75.362" y1="28.881" x2="15.517" y2="28.881" gradientUnits="userSpaceOnUse"><stop stop-color="#37BDA6"/><stop offset="1" stop-color="#8AD3B8"/></linearGradient><linearGradient id="paint1_linear" x1="75.362" y1="50.475" x2="15.517" y2="50.475" gradientUnits="userSpaceOnUse"><stop offset=".5" stop-color="#4BB6AD"/><stop offset="1" stop-color="#78BBC1"/></linearGradient><linearGradient id="paint2_linear" x1="45.441" y1="50.475" x2="75.363" y2="50.475" gradientUnits="userSpaceOnUse"><stop stop-color="#4379A7"/><stop offset="1" stop-color="#7CC9B8"/></linearGradient><clipPath id="clip0"><path fill="#fff" transform="translate(15.517 15.922)" d="M0 0h60v60.703H0z"/></clipPath></defs></svg>