<svg width="91" height="91" fill="none" xmlns="http://www.w3.org/2000/svg"><g clip-path="url(#clip0)"><path d="M28.657 15.273h33.72c7.257 0 13.14 5.883 13.14 13.14v33.72c0 7.258-5.883 13.14-13.14 13.14h-33.72c-7.258 0-13.14-5.882-13.14-13.14v-33.72c0-7.257 5.882-13.14 13.14-13.14z" fill="url(#paint0_linear)"/><path d="M35.185 58.88h.006l-2.052 3.554a2.712 2.712 0 11-4.696-2.712l1.51-2.617.146-.251c.259-.373.898-1.015 2.177-.894 0 0 3.008.326 3.226 1.89 0 0 .03.514-.317 1.03zm29.096-9.076h-6.397c-.435-.03-.625-.185-.7-.275l-.005-.009-6.848-11.86-.009.006-.41-.59c-.673-1.029-1.742 1.604-1.742 1.604-1.276 2.933.18 6.268.689 7.276L58.37 62.43a2.711 2.711 0 104.697-2.711l-2.378-4.12c-.047-.1-.127-.37.361-.372h3.231a2.712 2.712 0 000-5.423zM51.856 53.49s.342 1.737-.98 1.737H27.229a2.712 2.712 0 010-5.423h6.08c.982-.057 1.214-.624 1.214-.624l.006.003 7.936-13.745h-.003a.607.607 0 00.004-.557l-2.621-4.54a2.711 2.711 0 114.696-2.711l1.216 2.105 1.213-2.102a2.712 2.712 0 114.697 2.712L40.623 49.472c-.048.117-.063.3.296.332h6.601l.002.064s3.815.06 4.334 3.622z" fill="#fff"/></g><defs><linearGradient id="paint0_linear" x1="45.517" y1="15.273" x2="45.517" y2="75.273" gradientUnits="userSpaceOnUse"><stop stop-color="#17C9FB"/><stop offset="1" stop-color="#1A74E8"/></linearGradient><clipPath id="clip0"><path fill="#fff" transform="translate(15.517 15.273)" d="M0 0h60v60H0z"/></clipPath></defs></svg>