<svg width="13" height="11" fill="none" xmlns="http://www.w3.org/2000/svg"><path fill-rule="evenodd" clip-rule="evenodd" d="M13 5.5a.773.773 0 00-.238-.555.827.827 0 00-.574-.23H2.775l3.488-3.372a.774.774 0 00.239-.556.774.774 0 00-.239-.557.828.828 0 00-.575-.23.828.828 0 00-.575.23L.24 4.944A.785.785 0 000 5.5a.763.763 0 00.239.556l4.874 4.714c.153.147.36.23.575.23a.828.828 0 00.575-.23.774.774 0 00.239-.557.774.774 0 00-.239-.556L2.775 6.286h9.413a.827.827 0 00.574-.23A.773.773 0 0013 5.5z" fill="#FFC14C"/></svg>