<svg width="13" height="11" fill="none" xmlns="http://www.w3.org/2000/svg"><path fill-rule="evenodd" clip-rule="evenodd" d="M0 5.5c0-.208.086-.408.238-.555a.827.827 0 01.574-.23h9.413L6.737 1.342a.774.774 0 01-.239-.556c0-.209.086-.41.239-.557A.828.828 0 017.312 0c.215 0 .422.083.575.23l4.874 4.714A.785.785 0 0113 5.5a.764.764 0 01-.239.556L7.887 10.77a.828.828 0 01-.575.23.828.828 0 01-.575-.23.774.774 0 01-.239-.557c0-.208.086-.408.239-.556l3.488-3.371H.812a.827.827 0 01-.574-.23A.773.773 0 010 5.5z" fill="#FFC14C"/></svg>